<svg width="41" height="47" viewBox="0 0 41 47" fill="none" xmlns="http://www.w3.org/2000/svg">
<path fill-rule="evenodd" clip-rule="evenodd" d="M37.251 3.466C37.6385 3.33294 38.0556 3.31135 38.4547 3.40368C38.8539 3.496 39.2191 3.69854 39.5088 3.98824C39.7985 4.27794 40.001 4.64315 40.0934 5.0423C40.1857 5.44146 40.1641 5.85852 40.031 6.246L39.701 7.188L39.327 8.196L38.853 9.41L38.485 10.314L38.075 11.278L37.855 11.778L37.389 12.804C36.031 15.714 34.165 19.116 31.933 21.464C29.803 23.704 26.587 25.77 24.013 27.236C24.352 28.8615 24.2808 30.5459 23.806 32.1371C23.3311 33.7282 22.4675 35.1761 21.293 36.35C16.753 40.89 11.679 40.89 7.90505 39.77C5.84172 39.1626 3.90238 38.1943 2.17705 36.91L1.61705 36.464L0.447047 35.474C0.354642 35.3963 0.281314 35.2985 0.232722 35.188C0.184131 35.0775 0.161573 34.9573 0.166792 34.8367C0.17201 34.7161 0.204863 34.5983 0.262818 34.4924C0.320773 34.3865 0.402278 34.2954 0.501047 34.226L1.16505 33.752C2.62105 32.692 4.12305 31.388 4.48105 29.592C4.54505 29.2587 4.59371 28.924 4.62705 28.588L4.72705 27.574C4.76209 27.2361 4.81147 26.8998 4.87505 26.566C5.15105 25.188 5.73505 23.624 7.14905 22.206C8.32294 21.0316 9.7708 20.1679 11.362 19.6931C12.9531 19.2182 14.6375 19.147 16.263 19.486C17.729 16.912 19.793 13.696 22.035 11.566C24.383 9.334 27.785 7.466 30.695 6.11L31.721 5.644L32.709 5.214L34.089 4.644L34.919 4.318L36.311 3.798L37.251 3.466ZM18.463 25.036C17.3379 23.9112 15.812 23.2793 14.221 23.2793C12.6301 23.2793 11.1042 23.9112 9.97905 25.036C9.27305 25.74 8.96705 26.504 8.79705 27.35C8.73414 27.6838 8.68543 28.0201 8.65105 28.358L8.60105 28.864C8.56264 29.3719 8.49654 29.8773 8.40305 30.378C8.04305 32.186 6.98505 33.678 6.10305 34.674C7.03458 35.2005 8.02117 35.6231 9.04505 35.934C11.813 36.758 15.225 36.758 18.465 33.52C19.5899 32.3948 20.2218 30.869 20.2218 29.278C20.2218 27.687 19.5879 26.1612 18.463 25.036ZM21.423 18.706C20.905 19.496 20.413 20.302 19.959 21.086C20.9147 21.7551 21.7459 22.5863 22.415 23.542C23.197 23.088 24.005 22.596 24.795 22.078L24.735 21.944C24.4063 21.2521 23.9597 20.6227 23.415 20.084C22.9338 19.6025 22.383 19.1959 21.781 18.878L21.423 18.706ZM34.843 8.656C34.077 8.974 33.245 9.336 32.385 9.736C29.569 11.05 26.653 12.696 24.793 14.464C24.4784 14.764 24.165 15.0927 23.853 15.45C24.577 15.85 25.417 16.43 26.243 17.258C27.071 18.084 27.649 18.924 28.051 19.648C28.4084 19.336 28.737 19.0227 29.037 18.708C30.805 16.848 32.451 13.932 33.765 11.114C34.165 10.254 34.523 9.422 34.843 8.656ZM7.99905 0.5C8.37321 0.499999 8.73986 0.604956 9.05735 0.802943C9.37484 1.00093 9.63042 1.284 9.79505 1.62L9.89105 1.854L10.151 2.61C10.4255 3.41437 10.8676 4.15126 11.4482 4.77189C12.0289 5.39251 12.7347 5.8827 13.519 6.21L13.889 6.35L14.645 6.608C15.0193 6.73595 15.3473 6.972 15.5874 7.28631C15.8275 7.60063 15.969 7.97908 15.9941 8.37383C16.0191 8.76857 15.9266 9.16188 15.7281 9.50402C15.5296 9.84617 15.2341 10.1218 14.879 10.296L14.645 10.392L13.889 10.652C13.0847 10.9264 12.3478 11.3686 11.7272 11.9492C11.1065 12.5298 10.6163 13.2357 10.289 14.02L10.149 14.39L9.89105 15.146C9.7631 15.5203 9.52705 15.8482 9.21273 16.0883C8.89842 16.3285 8.51996 16.47 8.12522 16.495C7.73047 16.5201 7.33716 16.4275 6.99502 16.229C6.65288 16.0306 6.37727 15.7351 6.20305 15.38L6.10705 15.146L5.84705 14.39C5.57264 13.5856 5.13049 12.8487 4.54986 12.2281C3.96923 11.6075 3.26338 11.1173 2.47905 10.79L2.10905 10.65L1.35305 10.392C0.978773 10.2641 0.650842 10.028 0.410718 9.71369C0.170594 9.39937 0.0290609 9.02092 0.0040146 8.62617C-0.0210317 8.23142 0.0715332 7.83812 0.270006 7.49598C0.468478 7.15383 0.763945 6.87823 1.11905 6.704L1.35305 6.608L2.10905 6.348C2.91341 6.0736 3.65031 5.63144 4.27093 5.05081C4.89156 4.47019 5.38175 3.76433 5.70905 2.98L5.84905 2.61L6.10705 1.854C6.2418 1.45917 6.49664 1.11637 6.83591 0.873579C7.17517 0.630788 7.58186 0.500166 7.99905 0.5ZM7.99905 6.892C7.52593 7.4874 6.98645 8.02689 6.39105 8.5C6.98838 8.97333 7.52438 9.50933 7.99905 10.108C8.47238 9.51067 9.00838 8.97467 9.60705 8.5C9.01165 8.02689 8.47216 7.4874 7.99905 6.892Z" fill="#FB4E29"/>
</svg>
