<svg width="36" height="44" viewBox="0 0 36 44" fill="none" xmlns="http://www.w3.org/2000/svg">
<path d="M8.47451 29.526C8.83443 29.1673 9.31738 28.9591 9.82528 28.9436C10.3332 28.928 10.8279 29.1064 11.2091 29.4425C11.5902 29.7786 11.8291 30.2471 11.8773 30.753C11.9255 31.2588 11.7793 31.764 11.4685 32.166L11.3025 32.354L6.70651 36.95C6.27078 37.3851 5.6898 37.6441 5.07494 37.6773C4.46008 37.7105 3.85459 37.5156 3.37451 37.13L3.17051 36.95L0.696514 34.474C0.337818 34.1141 0.129567 33.6311 0.114058 33.1232C0.0985485 32.6154 0.276944 32.1206 0.613012 31.7395C0.949079 31.3583 1.41762 31.1194 1.92346 31.0712C2.42931 31.023 2.93453 31.1692 3.33651 31.48L3.52451 31.646L4.93851 33.06L8.47451 29.524V29.526ZM33.9985 31.5C34.5289 31.5 35.0377 31.7107 35.4127 32.0858C35.7878 32.4609 35.9985 32.9696 35.9985 33.5C35.9985 34.0304 35.7878 34.5392 35.4127 34.9142C35.0377 35.2893 34.5289 35.5 33.9985 35.5H15.9985C15.4681 35.5 14.9594 35.2893 14.5843 34.9142C14.2092 34.5392 13.9985 34.0304 13.9985 33.5C13.9985 32.9696 14.2092 32.4609 14.5843 32.0858C14.9594 31.7107 15.4681 31.5 15.9985 31.5H33.9985ZM11.3025 15.524C11.4885 15.7098 11.636 15.9303 11.7366 16.1731C11.8373 16.4159 11.8891 16.6762 11.8891 16.939C11.8891 17.2018 11.8373 17.4621 11.7366 17.7049C11.636 17.9477 11.4885 18.1683 11.3025 18.354L6.70651 22.95C6.47436 23.1822 6.19873 23.3664 5.89537 23.4921C5.59202 23.6178 5.26687 23.6825 4.93851 23.6825C4.61015 23.6825 4.28501 23.6178 3.98165 23.4921C3.6783 23.3664 3.40267 23.1822 3.17051 22.95L0.696514 20.474C0.505493 20.2895 0.353129 20.0688 0.248311 19.8248C0.143493 19.5808 0.0883206 19.3184 0.086013 19.0528C0.0837054 18.7873 0.134309 18.5239 0.234871 18.2781C0.335432 18.0323 0.483939 17.809 0.671724 17.6212C0.859509 17.4334 1.08281 17.2849 1.32861 17.1844C1.5744 17.0838 1.83776 17.0332 2.10332 17.0355C2.36887 17.0378 2.63131 17.093 2.87532 17.1978C3.11933 17.3026 3.34002 17.455 3.52451 17.646L4.93851 19.06L8.47451 15.526C8.84957 15.1511 9.35819 14.9404 9.88851 14.9404C10.4188 14.9404 10.9275 15.1491 11.3025 15.524ZM33.9985 17.5C34.5083 17.5006 34.9986 17.6958 35.3692 18.0457C35.7399 18.3957 35.963 18.8739 35.9929 19.3828C36.0227 19.8917 35.8572 20.3928 35.53 20.7837C35.2028 21.1746 34.7387 21.4258 34.2325 21.486L33.9985 21.5H15.9985C15.4889 21.4989 14.999 21.3034 14.6287 20.9533C14.2584 20.6032 14.0357 20.125 14.0061 19.6162C13.9765 19.1075 14.1422 18.6067 14.4693 18.216C14.7965 17.8253 15.2605 17.5742 15.7665 17.514L15.9985 17.5H33.9985ZM8.47451 1.52602C8.83443 1.16732 9.31738 0.959069 9.82528 0.94356C10.3332 0.92805 10.8279 1.10645 11.2091 1.44251C11.5902 1.77858 11.8291 2.24712 11.8773 2.75296C11.9255 3.25881 11.7793 3.76403 11.4685 4.16602L11.3025 4.35402L6.70651 8.95002C6.27078 9.38509 5.6898 9.64406 5.07494 9.67727C4.46008 9.71049 3.85459 9.51562 3.37451 9.13002L3.17051 8.95002L0.696514 6.47402C0.337818 6.1141 0.129567 5.63115 0.114058 5.12325C0.0985485 4.61535 0.276944 4.12059 0.613012 3.73946C0.949079 3.35833 1.41762 3.11941 1.92346 3.07122C2.42931 3.02303 2.93453 3.16919 3.33651 3.48002L3.52451 3.64602L4.93851 5.06002L8.47451 1.52602ZM33.9985 3.50002C34.5083 3.50058 34.9986 3.69577 35.3692 4.04571C35.7399 4.39565 35.963 4.87392 35.9929 5.38281C36.0227 5.89169 35.8572 6.39277 35.53 6.78368C35.2028 7.17459 34.7387 7.42581 34.2325 7.48602L33.9985 7.50002H15.9985C15.4889 7.49895 14.999 7.3034 14.6287 6.9533C14.2584 6.6032 14.0357 6.12496 14.0061 5.61623C13.9765 5.1075 14.1422 4.60665 14.4693 4.21596C14.7965 3.82527 15.2605 3.5742 15.7665 3.51402L15.9985 3.50002H33.9985Z" fill="#FB4E29"/>
</svg>
