<svg width="48" height="49" viewBox="0 0 48 49" fill="none" xmlns="http://www.w3.org/2000/svg">
<path d="M24 4.5C24.7507 4.5 25.4907 4.54067 26.22 4.622C26.4811 4.65089 26.7339 4.73092 26.964 4.85752C27.1942 4.98412 27.3971 5.1548 27.5613 5.35984C27.7255 5.56487 27.8476 5.80023 27.9209 6.05248C27.9941 6.30473 28.0169 6.56893 27.988 6.83C27.9591 7.09107 27.8791 7.34389 27.7525 7.57403C27.6259 7.80417 27.4552 8.00712 27.2502 8.17129C27.0451 8.33547 26.8098 8.45765 26.5575 8.53086C26.3053 8.60408 26.0411 8.62689 25.78 8.598C22.4841 8.22929 19.155 8.89388 16.2534 10.4998C13.3517 12.1058 11.0207 14.5738 9.58293 17.5624C8.14516 20.551 7.67161 23.9125 8.22778 27.182C8.78396 30.4515 10.3424 33.4674 12.6875 35.8125C15.0326 38.1576 18.0485 39.716 21.318 40.2722C24.5875 40.8284 27.949 40.3548 30.9376 38.9171C33.9262 37.4793 36.3942 35.1483 38.0002 32.2466C39.6061 29.345 40.2707 26.0159 39.902 22.72C39.8731 22.4589 39.8959 22.1947 39.9691 21.9425C40.0424 21.6902 40.1645 21.4549 40.3287 21.2498C40.6603 20.8358 41.1427 20.5703 41.67 20.512C42.1973 20.4537 42.7261 20.6071 43.1402 20.9387C43.3452 21.1029 43.5159 21.3058 43.6425 21.536C43.7691 21.7661 43.8491 22.0189 43.878 22.28C43.958 23.0093 43.9987 23.7493 44 24.5C44 35.546 35.046 44.5 24 44.5C12.954 44.5 4 35.546 4 24.5C4 13.454 12.954 4.5 24 4.5ZM23.936 16.254C24.0678 16.7674 23.9904 17.3122 23.7208 17.7686C23.4511 18.225 23.0113 18.5557 22.498 18.688C21.0877 19.0574 19.8601 19.9273 19.0441 21.1354C18.2281 22.3435 17.8795 23.8072 18.0634 25.2534C18.2473 26.6996 18.9511 28.0295 20.0435 28.9949C21.1358 29.9603 22.5422 30.4953 24 30.5C25.3306 30.5006 26.6237 30.0588 27.6758 29.2442C28.7279 28.4296 29.4793 27.2884 29.812 26C29.9538 25.4967 30.287 25.0689 30.7403 24.8083C31.1936 24.5478 31.7309 24.475 32.2372 24.6058C32.7435 24.7365 33.1784 25.0604 33.4488 25.5079C33.7193 25.9554 33.8037 26.491 33.684 27C33.0705 29.3519 31.6217 31.3999 29.6083 32.7615C27.5949 34.1232 25.1547 34.7052 22.7435 34.399C20.3323 34.0928 18.1151 32.9192 16.506 31.0975C14.897 29.2758 14.0061 26.9306 14 24.5C13.9997 22.2828 14.7362 20.1283 16.0938 18.3753C17.4515 16.6224 19.3532 15.3703 21.5 14.816C21.7544 14.7504 22.0192 14.7356 22.2793 14.7724C22.5394 14.8092 22.7897 14.8969 23.0159 15.0304C23.2421 15.1639 23.4398 15.3407 23.5976 15.5507C23.7555 15.7606 23.8705 15.9996 23.936 16.254ZM37.008 4.754C37.3731 4.90536 37.6851 5.16147 37.9047 5.49002C38.1243 5.81856 38.2417 6.20481 38.242 6.6V10.26H41.9C42.2955 10.2601 42.6821 10.3774 43.0109 10.5972C43.3397 10.817 43.596 11.1293 43.7474 11.4947C43.8987 11.8601 43.9383 12.2622 43.8612 12.6501C43.784 13.038 43.5936 13.3943 43.314 13.674L36.24 20.74C35.865 21.1151 35.3564 21.3259 34.826 21.326H30L26.344 24.984C25.9687 25.3593 25.4597 25.5701 24.929 25.5701C24.3983 25.5701 23.8893 25.3593 23.514 24.984C23.1387 24.6087 22.9279 24.0997 22.9279 23.569C22.9279 23.0383 23.1387 22.5293 23.514 22.154L27.172 18.5V13.672C27.1721 13.1416 27.3829 12.633 27.758 12.258L34.828 5.186C35.1077 4.90613 35.4641 4.71552 35.8522 4.63826C36.2402 4.56101 36.6425 4.60059 37.008 4.752M34.242 11.426L31.172 14.5V17.328H34L37.072 14.258H36.242C35.7116 14.258 35.2029 14.0473 34.8278 13.6722C34.4527 13.2971 34.242 12.7884 34.242 12.258V11.426Z" fill="#FB4E29"/>
</svg>
