<svg width="49" height="48" viewBox="0 0 49 48" fill="none" xmlns="http://www.w3.org/2000/svg">
<g clip-path="url(#clip0_159_3522)">
<path d="M28.6195 24.7905L46.528 5.33497C46.528 5.33497 48.3657 3.48603 46.5222 1.65378C44.6787 -0.178471 42.841 1.67047 42.841 1.67047L18.0293 24.7905L23.5598 30.2874L24.8132 28.9257" stroke="black" stroke-width="2" stroke-miterlimit="10" stroke-linecap="round" stroke-linejoin="round"/>
<path d="M19.5457 31.8107L20.8039 33.0614L23.5605 30.2879L18.03 24.791L15.2734 27.5645L15.8166 28.1044" stroke="black" stroke-width="2" stroke-miterlimit="10" stroke-linecap="round" stroke-linejoin="round"/>
<path d="M19.2296 31.4959L20.8046 33.0613L18.0481 35.8347L12.5176 30.3379L15.2741 27.5645" stroke="black" stroke-width="2" stroke-miterlimit="10" stroke-linecap="round" stroke-linejoin="round"/>
<path d="M15.2734 27.5645L15.5413 27.8306" stroke="black" stroke-width="2" stroke-miterlimit="10" stroke-linecap="round" stroke-linejoin="round"/>
<path d="M6.05217 39.6786C6.16177 36.5625 6.65517 34.3012 12.8118 30.6309L17.6368 35.4265C17.6368 35.4265 19.7092 47.2501 1.17773 47.2501C1.17773 47.2501 5.15058 47.6484 5.73089 44.1962C5.83252 43.5917 5.89683 43.0241 5.9393 42.4868" stroke="black" stroke-width="2" stroke-miterlimit="10" stroke-linecap="round" stroke-linejoin="round"/>
<path d="M14.9259 37.2334C14.9259 37.2334 14.5008 42.1785 10.4082 43.0267" stroke="black" stroke-width="2" stroke-miterlimit="10" stroke-linecap="round" stroke-linejoin="round"/>
</g>
<defs>
<clipPath id="clip0_159_3522">
<rect width="48" height="48" fill="white" transform="translate(0.333984)"/>
</clipPath>
</defs>
</svg>
