<svg width="49" height="48" viewBox="0 0 49 48" fill="none" xmlns="http://www.w3.org/2000/svg">
<g clip-path="url(#clip0_159_3540)">
<path fill-rule="evenodd" clip-rule="evenodd" d="M34.0869 25.2751C35.1676 24.2745 35.7445 22.7848 35.8015 20.8474C35.9182 16.8767 33.4126 16.3388 31.5831 15.946C30.8696 15.7929 30.1888 15.6468 29.7083 15.3349V13.3464C30.9992 12.0342 31.7318 10.1842 31.7318 8.20195C31.7318 7.91105 31.7148 7.61931 31.6829 7.3316C31.825 6.67762 32.1767 4.50475 31.0818 2.67415C30.3553 1.45966 29.1696 0.656623 27.5576 0.28754C23.2533 -0.69821 20.9585 1.10445 20.2005 1.88246C18.8788 2.11073 17.9563 2.70603 17.4549 3.65503C16.5959 5.28154 17.3763 7.30488 17.7002 8.00817C17.6982 8.39366 17.7229 9.15545 17.913 9.94133C18.458 12.1944 19.8585 12.6752 20.6447 12.7612C20.6794 12.765 20.7137 12.767 20.7479 12.767C20.8273 12.767 20.9044 12.7561 20.9787 12.7372C21.3291 13.1929 21.7331 13.5986 22.1747 13.9373V15.5259C21.4319 16.0187 20.2761 16.4864 19.1532 16.9408C16.4826 18.0214 13.4556 19.2463 13.5266 21.7558L13.5313 21.9223C13.5869 23.9077 13.6442 25.9607 14.9775 27.1536C15.6711 27.774 16.5921 28.07 17.7886 28.0559C18.3434 28.9188 19.4798 31.2274 18.0056 33.9795C16.9159 36.0134 16.6585 38.3464 17.2401 40.9138C17.7046 42.9641 18.6806 45.14 20.2234 47.5657C20.3955 47.8362 20.6939 48 21.0145 48H32.539C32.9553 48 33.3218 47.7253 33.4388 47.3258C33.7139 46.3852 33.9527 45.5221 34.1687 44.6868C34.2984 44.1855 33.9972 43.6742 33.496 43.5445C32.994 43.4148 32.4832 43.7161 32.3535 44.2173C32.1949 44.8303 32.0237 45.4594 31.8339 46.1252H21.5339C20.9461 45.1682 20.4554 44.2521 20.058 43.3737C25.3495 41.6839 28.3477 38.6499 29.9523 36.333C30.7905 35.1228 31.3406 33.9891 31.6946 33.0976C31.736 33.1475 31.7775 33.1972 31.8185 33.2464C32.6093 34.1945 33.3562 35.0901 33.4961 36.2905C33.5231 36.5224 33.5381 36.7849 33.5403 37.0709C33.5444 37.5861 33.9633 38.001 34.4776 38.001C34.4801 38.001 34.4827 38.001 34.4852 38.001C35.0029 37.9969 35.4193 37.5738 35.4152 37.0561C35.4124 36.7027 35.3934 36.3721 35.3585 36.0735C35.154 34.3183 34.147 33.1108 33.2586 32.0456C32.4282 31.0498 31.7108 30.1899 31.7449 29.0469L31.8235 26.4152C32.4632 26.2854 33.3238 25.9816 34.0869 25.2751ZM21.1761 10.8732C21.1235 10.8888 21.0736 10.9103 21.0254 10.9344C20.9688 10.9169 20.91 10.904 20.8488 10.8974C19.4857 10.7482 19.5775 7.88396 19.5789 7.85696C19.5888 7.68728 19.5522 7.51825 19.4733 7.36769C19.233 6.90946 18.6512 5.40482 19.1129 4.53063C19.3535 4.07539 19.9152 3.79331 20.7828 3.69215C21.0494 3.66103 21.2769 3.53559 21.4301 3.31576C21.5409 3.17429 23.1673 1.20532 27.1392 2.11505C28.2448 2.36826 29.0063 2.86296 29.4673 3.62747C29.9736 4.46725 30.014 5.47653 29.9587 6.17683C29.1648 5.95268 28.0225 5.43688 27.5196 4.27488C27.3537 3.89146 26.9537 3.66403 26.5397 3.71746C26.1254 3.77071 25.7962 4.0918 25.7328 4.50466C25.7283 4.53353 25.2389 7.3826 23.5708 7.19764C23.3228 7.17017 23.0736 7.24348 22.8791 7.40013C22.6847 7.55678 22.5606 7.78534 22.5347 8.03367C22.4287 9.04708 21.9236 10.6504 21.1761 10.8732ZM19.3747 41.623C18.5323 39.0194 18.6297 36.7849 19.6582 34.8648C21.6491 31.1482 20.0317 28.0405 19.2879 26.9261L19.9624 24.7882C20.1182 24.2945 19.8441 23.7679 19.3505 23.6122C18.8571 23.4566 18.3302 23.7304 18.1744 24.2242L17.5576 26.1795C16.9617 26.1608 16.5236 26.021 16.2277 25.7563C15.4959 25.1016 15.4521 23.5318 15.4055 21.8699L15.4008 21.7026C15.3666 20.4956 17.856 19.4883 19.8564 18.6788C21.3681 18.0671 22.796 17.4893 23.7169 16.7119C23.9279 16.5338 24.0496 16.2717 24.0496 15.9956V13.4501C24.0496 13.1291 23.8854 12.8304 23.6143 12.6585C23.3328 12.48 23.0671 12.2619 22.8245 12.0116C23.6845 11.1902 24.0868 9.89483 24.2671 9.04333C25.5969 8.82827 26.4723 7.78421 26.9967 6.68278C27.9463 7.53644 29.0969 7.91743 29.8557 8.08514C29.8564 8.12414 29.8568 8.16314 29.8568 8.20214C29.8568 9.80521 29.2338 11.2786 28.1478 12.2447C27.9477 12.4226 27.8334 12.6775 27.8334 12.9452V15.7781C27.8334 16.0267 27.9322 16.2652 28.108 16.441C28.97 17.3029 30.1492 17.5561 31.1895 17.7794C32.9411 18.1555 33.9983 18.3823 33.9273 20.7925C33.8153 24.6058 31.2427 24.6439 30.9553 24.6354C30.9443 24.6347 30.9334 24.6353 30.9223 24.635C30.9186 24.635 30.9149 24.6344 30.9111 24.6344C30.9061 24.6344 30.9011 24.6345 30.8962 24.6346C30.8824 24.6346 30.8686 24.634 30.855 24.6346C29.1406 24.6608 27.9178 24.0775 27.1919 23.5797C26.7651 23.2868 26.1814 23.3955 25.8887 23.8224C25.5958 24.2494 25.7045 24.8329 26.1315 25.1257C26.942 25.6817 28.2199 26.3207 29.9459 26.4757L29.8708 28.9911C29.8458 29.825 30.0479 30.5416 30.3627 31.1805C29.9785 32.6244 27.8333 38.9744 19.3747 41.623Z" fill="black"/>
<path fill-rule="evenodd" clip-rule="evenodd" d="M25.5683 32.6328C25.0507 32.6328 24.6309 33.0525 24.6309 33.5703V35.0325C24.6309 35.5502 25.0507 35.9699 25.5683 35.9699C26.086 35.9699 26.5058 35.5502 26.5058 35.0325V33.5703C26.5058 33.0525 26.0861 32.6328 25.5683 32.6328Z" fill="black"/>
<path fill-rule="evenodd" clip-rule="evenodd" d="M34.082 39.8555C33.5657 39.8555 33.1445 40.2766 33.1445 40.793C33.1445 41.3093 33.5657 41.7306 34.082 41.7306C34.5985 41.7306 35.0196 41.3093 35.0196 40.793C35.0196 40.2766 34.5985 39.8555 34.082 39.8555Z" fill="black"/>
</g>
<defs>
<clipPath id="clip0_159_3540">
<rect width="48" height="48" fill="white" transform="translate(0.666016)"/>
</clipPath>
</defs>
</svg>
