<svg width="106" height="24" viewBox="0 0 106 24" fill="none" xmlns="http://www.w3.org/2000/svg">
<path d="M24 12C24 18.6274 18.6274 24 12 24C5.37258 24 0 18.6274 0 12C0 5.37258 5.37258 0 12 0C18.6274 0 24 5.37258 24 12Z" fill="#FB4E29"/>
<path d="M23.5683 11.9689C23.5683 18.3579 18.389 23.5372 12 23.5372C5.61098 23.5372 0.431655 18.3579 0.431655 11.9689C0.431655 5.57983 5.61098 0.400503 12 0.400503C18.389 0.400503 23.5683 5.57983 23.5683 11.9689Z" fill="#FB4E29"/>
<path fill-rule="evenodd" clip-rule="evenodd" d="M12 23.3645C18.2937 23.3645 23.3957 18.2625 23.3957 11.9689C23.3957 5.67519 18.2937 0.573165 12 0.573165C5.70634 0.573165 0.604317 5.67519 0.604317 11.9689C0.604317 18.2625 5.70634 23.3645 12 23.3645ZM12 23.5372C18.389 23.5372 23.5683 18.3579 23.5683 11.9689C23.5683 5.57983 18.389 0.400503 12 0.400503C5.61098 0.400503 0.431655 5.57983 0.431655 11.9689C0.431655 18.3579 5.61098 23.5372 12 23.5372Z" fill="white"/>
<path d="M1.86017 12.909L4.62276 12.909L4.62277 11.1015L4.20325 11.1015L4.20325 12.4086L3.4492 12.4086L3.44921 11.2053L3.02969 11.2053L3.02969 12.4086H2.27969L2.27969 11.1123L1.86018 11.1123L1.86017 12.909Z" fill="white"/>
<path d="M5.54964 8.21479L2.99735 7.15759L2.80686 7.61745L4.54661 8.33808L4.53732 8.36052L2.29994 8.84126L2.12856 9.25501L4.68085 10.3122L4.87237 9.84986L3.13387 9.12974L3.14264 9.10856L5.37929 8.62605L5.54964 8.21479Z" fill="white"/>
<path d="M6.29955 4.58899L5.94282 4.94572C5.87414 4.89739 5.80356 4.86433 5.73107 4.84652C5.65794 4.82808 5.58513 4.82331 5.51264 4.83221C5.44015 4.84112 5.36988 4.86369 5.30184 4.89994C5.2338 4.93491 5.1699 4.98228 5.11012 5.04206C5.00393 5.14825 4.93652 5.26907 4.90791 5.40451C4.87866 5.53932 4.89201 5.68112 4.94797 5.82992C5.00329 5.97808 5.1044 6.12561 5.25129 6.2725C5.40072 6.42193 5.54984 6.52463 5.69863 6.58059C5.84743 6.63527 5.9886 6.64799 6.12213 6.61874C6.25567 6.58822 6.37522 6.52018 6.48077 6.41462C6.53928 6.35612 6.58633 6.2938 6.62194 6.22767C6.65755 6.16027 6.68044 6.09096 6.69062 6.01974C6.70143 5.94788 6.69857 5.87571 6.68203 5.80322C6.66614 5.73009 6.63498 5.65951 6.58856 5.59147L6.9472 5.23664C7.02669 5.34284 7.08487 5.45888 7.12175 5.58479C7.15927 5.71006 7.17358 5.83946 7.16467 5.973C7.15513 6.1059 7.12016 6.23753 7.05975 6.36789C6.9987 6.49761 6.91 6.62065 6.79363 6.73702C6.62194 6.90871 6.42895 7.02221 6.21465 7.07753C6.00036 7.13286 5.77939 7.12427 5.55174 7.05178C5.32409 6.97929 5.10535 6.83812 4.89551 6.62828C4.68503 6.4178 4.54418 6.19873 4.47296 5.97109C4.40111 5.7428 4.39284 5.52151 4.44816 5.30722C4.50349 5.09293 4.61636 4.90057 4.78677 4.73015C4.89551 4.62142 5.01188 4.53557 5.13588 4.47262C5.25988 4.40967 5.38801 4.3712 5.52027 4.35721C5.6519 4.34258 5.78385 4.35434 5.91611 4.3925C6.04838 4.42938 6.17619 4.49488 6.29955 4.58899Z" fill="white"/>
<path d="M7.32368 2.85987L8.38088 5.41217L9.96735 4.75503L9.80681 4.36745L8.6827 4.83307L7.78604 2.66835L7.32368 2.85987Z" fill="white"/>
<path fill-rule="evenodd" clip-rule="evenodd" d="M11.25 4.50524H10.7158L11.6884 1.74265H12.3062L13.2801 4.50523H12.746L12.5171 3.82403L11.4785 3.82403L11.25 4.50524ZM12.0081 2.30919L12.382 3.42205L11.6133 3.42205L11.9865 2.30919L12.0081 2.30919Z" fill="white"/>
<path d="M15.0548 4.50274L15.2227 2.21865L14.7155 2.00856L14.5568 4.93304L15.1276 5.16947L17.0846 2.98988L16.5761 2.77926L15.081 4.51358L15.0548 4.50274Z" fill="white"/>
<path d="M16.6047 5.98726L18.5582 4.03381L19.8287 5.30431L19.532 5.60095L18.6154 4.68432L18.0851 5.21466L18.9359 6.06547L18.6393 6.36211L17.7884 5.5113L17.2552 6.04449L18.1795 6.96875L17.8829 7.26539L16.6047 5.98726Z" fill="white"/>
<path d="M18.8581 8.82382C18.8273 8.89985 18.8275 8.97567 18.8588 9.05127C18.8792 9.10029 18.9098 9.14017 18.9507 9.1709C18.9929 9.20212 19.0399 9.22158 19.0917 9.2293C19.1439 9.23785 19.1956 9.23204 19.2466 9.21188C19.321 9.18008 19.3735 9.12574 19.4039 9.04888C19.4347 8.97286 19.435 8.89828 19.4047 8.82517C19.3734 8.74957 19.32 8.69578 19.2444 8.6638C19.1689 8.63182 19.0939 8.63173 19.0195 8.66353C18.9427 8.69436 18.8889 8.74779 18.8581 8.82382Z" fill="white"/>
<path d="M21.4748 12.3654C21.5926 12.3528 21.6844 12.2998 21.75 12.2062C21.8157 12.1136 21.8485 11.9931 21.8485 11.8447C21.8485 11.7404 21.8327 11.6509 21.8013 11.5763C21.7698 11.5016 21.7271 11.4445 21.6731 11.405C21.6192 11.3654 21.5576 11.3452 21.4883 11.3443C21.4308 11.3443 21.3809 11.3573 21.3386 11.3834C21.2963 11.4104 21.2604 11.4468 21.2307 11.4927C21.2019 11.5385 21.1776 11.5893 21.1578 11.6451C21.1381 11.7008 21.1214 11.757 21.1079 11.8137L21.0432 12.0727C21.0189 12.177 20.9861 12.2773 20.9447 12.3735C20.9033 12.4706 20.8512 12.5574 20.7882 12.6338C20.7253 12.7112 20.6493 12.7723 20.5603 12.8173C20.4712 12.8623 20.3669 12.8847 20.2473 12.8847C20.0854 12.8847 19.9429 12.8434 19.8197 12.7606C19.6974 12.6779 19.6016 12.5583 19.5324 12.4018C19.464 12.2463 19.4299 12.0579 19.4299 11.8366C19.4299 11.6217 19.4631 11.4351 19.5297 11.2768C19.5962 11.1195 19.6934 10.9963 19.8211 10.9072C19.9488 10.8191 20.1043 10.7714 20.2878 10.7642L20.2878 11.2566C20.1916 11.2638 20.1115 11.2935 20.0477 11.3456C19.9838 11.3978 19.9362 11.4657 19.9047 11.5493C19.8732 11.6338 19.8575 11.7283 19.8575 11.8326C19.8575 11.9414 19.8737 12.0367 19.906 12.1186C19.9393 12.2013 19.9852 12.266 20.0436 12.3128C20.103 12.3596 20.1722 12.3834 20.2514 12.3843C20.3233 12.3834 20.3827 12.3623 20.4294 12.3209C20.4771 12.2795 20.5166 12.2215 20.5481 12.1469C20.5805 12.0731 20.6093 11.9868 20.6345 11.8879L20.7154 11.5736C20.7738 11.3461 20.8624 11.1662 20.9811 11.034C21.1007 10.9027 21.2595 10.8371 21.4573 10.8371C21.6201 10.8371 21.7626 10.8811 21.8849 10.9693C22.0072 11.0583 22.1021 11.1793 22.1695 11.3321C22.2379 11.485 22.272 11.6581 22.272 11.8515C22.272 12.0475 22.2379 12.2193 22.1695 12.3668C22.1021 12.5151 22.0081 12.6316 21.8876 12.7161C21.768 12.8007 21.6304 12.8443 21.4748 12.847V12.3654Z" fill="white"/>
<path d="M21.9132 14.7314L21.5256 14.5709L21.1989 15.3597L19.0341 14.4631L18.8442 14.9217L21.0089 15.8184L20.6821 16.6072L21.0697 16.7678L21.9132 14.7314Z" fill="white"/>
<path d="M18.9254 19.4583L18.5715 19.8122L17.2953 18.536C17.1554 18.3961 17.0654 18.24 17.0253 18.0676C16.9846 17.8959 16.9938 17.7208 17.053 17.5421C17.1128 17.364 17.2221 17.1955 17.3811 17.0365C17.5407 16.8769 17.7095 16.7672 17.8876 16.7075C18.0663 16.6483 18.2415 16.6391 18.4131 16.6798C18.5848 16.7205 18.7406 16.8108 18.8805 16.9507L20.1567 18.2269L19.8029 18.5808L18.5562 17.3341C18.4748 17.2527 18.3845 17.1981 18.2853 17.1701C18.1855 17.1427 18.0847 17.1437 17.983 17.1729C17.8819 17.2028 17.7865 17.2626 17.6968 17.3523C17.6072 17.4419 17.5474 17.5373 17.5175 17.6384C17.4876 17.7408 17.4867 17.8416 17.5146 17.9408C17.5426 18.04 17.5973 18.1303 17.6787 18.2117L18.9254 19.4583Z" fill="white"/>
<path fill-rule="evenodd" clip-rule="evenodd" d="M16.0326 18.3151L15.1677 18.6734C14.9085 18.7807 14.7078 18.9237 14.5657 19.1023C14.4227 19.2813 14.3418 19.4866 14.3229 19.7183C14.3032 19.9503 14.3484 20.1993 14.4586 20.4651C14.5683 20.7302 14.7117 20.9375 14.8885 21.0872C15.0653 21.2368 15.2662 21.3245 15.4909 21.3501C15.7152 21.3769 15.954 21.3379 16.2074 21.2329L17.0898 20.8674L16.0326 18.3151ZM15.3558 19.0641L15.7359 18.9067L16.4617 20.6589L16.0679 20.822C15.8951 20.8936 15.7371 20.9211 15.594 20.9044C15.4503 20.889 15.3217 20.8289 15.2082 20.724C15.0951 20.62 14.998 20.4704 14.9172 20.2752C14.8363 20.0799 14.7988 19.9047 14.8045 19.7495C14.8107 19.5951 14.8596 19.4605 14.9512 19.3456C15.0431 19.2316 15.178 19.1378 15.3558 19.0641Z" fill="white"/>
<path d="M12.3359 19.4259H12.6372V19.1022L11.495 19.1022V19.4259H11.8355L11.8355 21.7931H11.495V22.1168H12.6372V21.7931H12.3359L12.3359 19.4259Z" fill="white"/>
<path fill-rule="evenodd" clip-rule="evenodd" d="M8.06791 18.9848C7.88367 19.1382 7.73459 19.3524 7.62068 19.6274C7.50677 19.9024 7.46089 20.1588 7.48304 20.3968C7.50402 20.6352 7.58148 20.8429 7.71543 21.0201C7.84854 21.1969 8.02685 21.3316 8.25034 21.4242C8.47383 21.5168 8.69557 21.5478 8.91556 21.5172C9.13471 21.4863 9.3364 21.3942 9.52064 21.2408C9.70371 21.0879 9.8522 20.8739 9.96611 20.5989C10.0797 20.3247 10.126 20.0684 10.105 19.83C10.0828 19.5921 10.0054 19.3843 9.87261 19.2067C9.73866 19.0295 9.55994 18.8947 9.33645 18.8021C9.11296 18.7095 8.89164 18.6787 8.67248 18.7096C8.4525 18.7401 8.25098 18.8319 8.06791 18.9848ZM7.97363 20.3474C7.96805 20.1893 8.00535 20.0135 8.08553 19.8199C8.16572 19.6263 8.26384 19.4752 8.3799 19.3666C8.49478 19.2584 8.61967 19.1919 8.75458 19.167C8.88915 19.1429 9.0258 19.1596 9.16455 19.2171C9.3033 19.2746 9.41174 19.3594 9.48986 19.4716C9.56765 19.5846 9.60933 19.7201 9.61492 19.8782C9.61933 20.0367 9.58144 20.2128 9.50126 20.4063C9.42107 20.5999 9.32354 20.7508 9.20866 20.8589C9.0926 20.9676 8.96729 21.0339 8.83273 21.058C8.69782 21.0829 8.56099 21.0667 8.42224 21.0092C8.28349 20.9517 8.17523 20.8665 8.09744 20.7535C8.01932 20.6413 7.97805 20.5059 7.97363 20.3474Z" fill="white"/>
<path d="M5.07271 18.2879C4.99831 18.3801 4.97097 18.4825 4.99068 18.5951C5.00975 18.707 5.07175 18.8154 5.17667 18.9203C5.25044 18.9941 5.32484 19.0462 5.39987 19.0767C5.47491 19.1073 5.54549 19.1174 5.61162 19.1073C5.67775 19.0971 5.73562 19.0678 5.78522 19.0195C5.82592 18.9788 5.85199 18.9343 5.86343 18.886C5.87424 18.837 5.87393 18.7858 5.86248 18.7324C5.8504 18.6796 5.83164 18.6265 5.8062 18.5731C5.78077 18.5197 5.75279 18.4682 5.72227 18.4186L5.58492 18.1897C5.52832 18.0987 5.48063 18.0046 5.44184 17.9073C5.40242 17.8094 5.37793 17.7112 5.3684 17.6126C5.35822 17.5134 5.36871 17.4164 5.39987 17.3217C5.43103 17.2269 5.4889 17.1373 5.57347 17.0527C5.68793 16.9382 5.81797 16.8667 5.96359 16.8381C6.10857 16.8101 6.26086 16.827 6.42047 16.8887C6.57881 16.9503 6.73619 17.0594 6.89262 17.2158C7.0446 17.3678 7.15301 17.5233 7.21787 17.6822C7.2821 17.8406 7.30054 17.9964 7.2732 18.1496C7.24522 18.3022 7.16891 18.4459 7.04428 18.5807L6.69613 18.2326C6.75908 18.1595 6.79469 18.0819 6.80296 17.9999C6.81122 17.9178 6.79692 17.8361 6.76004 17.7547C6.72252 17.6727 6.66688 17.5948 6.59311 17.521C6.51617 17.4441 6.43732 17.3881 6.35656 17.3532C6.27454 17.3182 6.19632 17.3048 6.12192 17.3131C6.04689 17.322 5.98107 17.3541 5.92448 17.4094C5.87424 17.4609 5.84722 17.5179 5.8434 17.5802C5.83895 17.6431 5.85199 17.7121 5.88251 17.7872C5.91176 17.8622 5.95246 17.9436 6.0046 18.0313L6.16961 18.3108C6.28916 18.513 6.3537 18.7028 6.36324 18.8803C6.37151 19.0577 6.30569 19.2163 6.1658 19.3562C6.0507 19.4713 5.91876 19.5409 5.76996 19.5651C5.62052 19.5886 5.46791 19.5702 5.31212 19.5098C5.15569 19.45 5.00912 19.3518 4.8724 19.215C4.73378 19.0764 4.63649 18.9308 4.58053 18.7782C4.5233 18.6256 4.5074 18.4768 4.53284 18.3318C4.55764 18.1875 4.62409 18.0593 4.73219 17.9474L5.07271 18.2879Z" fill="white"/>
<path d="M5.23638 15.0357C5.26718 14.9596 5.26693 14.8838 5.23561 14.8082C5.21531 14.7592 5.18468 14.7193 5.14372 14.6886C5.10159 14.6574 5.05459 14.6379 5.00272 14.6302C4.95051 14.6216 4.8989 14.6275 4.84787 14.6476C4.77344 14.6794 4.721 14.7337 4.69054 14.8106C4.65973 14.8866 4.65947 14.9612 4.68976 15.0343C4.72107 15.1099 4.7745 15.1637 4.85005 15.1957C4.92559 15.2277 5.00057 15.2278 5.075 15.196C5.15178 15.1651 5.20558 15.1117 5.23638 15.0357Z" fill="white"/>
<path d="M37.9766 19.14C36.87 19.14 35.93 18.92 35.1566 18.48C34.3833 18.04 33.79 17.42 33.3766 16.62C32.9633 15.8067 32.7566 14.86 32.7566 13.78C32.7566 12.6867 32.97 11.7333 33.3966 10.92C33.8233 10.0933 34.4233 9.44667 35.1966 8.98C35.9833 8.51333 36.91 8.28 37.9766 8.28C38.7766 8.28 39.4766 8.41333 40.0766 8.68C40.69 8.94667 41.2033 9.32 41.6166 9.8C42.0433 10.28 42.3566 10.84 42.5566 11.48C42.77 12.1067 42.87 12.7867 42.8566 13.52C42.8566 13.7067 42.85 13.8867 42.8366 14.06C42.8233 14.2333 42.7966 14.4067 42.7566 14.58H35.5366C35.5766 14.98 35.69 15.3467 35.8766 15.68C36.0633 16.0133 36.3233 16.28 36.6566 16.48C37.0033 16.6667 37.43 16.76 37.9366 16.76C38.27 16.76 38.5766 16.7267 38.8566 16.66C39.1366 16.58 39.3766 16.46 39.5766 16.3C39.7766 16.14 39.9166 15.9533 39.9966 15.74H42.7566C42.5833 16.5267 42.2566 17.1733 41.7766 17.68C41.31 18.1867 40.7433 18.56 40.0766 18.8C39.41 19.0267 38.71 19.14 37.9766 19.14ZM35.5966 12.62H40.1766C40.1633 12.26 40.07 11.9267 39.8966 11.62C39.7366 11.3 39.49 11.0467 39.1566 10.86C38.8366 10.66 38.4233 10.56 37.9166 10.56C37.41 10.56 36.9833 10.66 36.6366 10.86C36.3033 11.06 36.05 11.32 35.8766 11.64C35.7166 11.9467 35.6233 12.2733 35.5966 12.62ZM44.6605 19V8.46H47.2805L47.4205 9.68C47.7139 9.32 48.0472 9.04 48.4205 8.84C48.8072 8.62667 49.1939 8.48 49.5805 8.4C49.9805 8.32 50.3405 8.28 50.6605 8.28C51.6739 8.28 52.4605 8.5 53.0205 8.94C53.5939 9.38 54.0005 9.97333 54.2405 10.72C54.4939 11.4533 54.6205 12.2733 54.6205 13.18V19H51.8205V13.54C51.8205 13.22 51.7939 12.9 51.7405 12.58C51.6872 12.26 51.5872 11.9667 51.4405 11.7C51.3072 11.4333 51.1139 11.22 50.8605 11.06C50.6072 10.9 50.2739 10.82 49.8605 10.82C49.3272 10.82 48.8805 10.9533 48.5205 11.22C48.1605 11.4867 47.8939 11.8467 47.7205 12.3C47.5472 12.7533 47.4605 13.2533 47.4605 13.8V19H44.6605ZM61.4899 19.14C60.4099 19.14 59.4833 18.92 58.7099 18.48C57.9499 18.04 57.3699 17.42 56.9699 16.62C56.5699 15.8067 56.3699 14.8533 56.3699 13.76C56.3699 12.6533 56.5766 11.6933 56.9899 10.88C57.4033 10.0533 57.9966 9.41333 58.7699 8.96C59.5566 8.50667 60.5033 8.28 61.6099 8.28C62.4633 8.28 63.2233 8.43333 63.8899 8.74C64.5566 9.04667 65.0899 9.48667 65.4899 10.06C65.9033 10.6333 66.1433 11.34 66.2099 12.18H63.4699C63.3499 11.7133 63.1166 11.3733 62.7699 11.16C62.4366 10.9467 62.0366 10.84 61.5699 10.84C60.9699 10.84 60.4899 10.9867 60.1299 11.28C59.7833 11.5733 59.5299 11.9467 59.3699 12.4C59.2233 12.8533 59.1499 13.3067 59.1499 13.76C59.1499 14.2533 59.2299 14.72 59.3899 15.16C59.5499 15.5867 59.8033 15.94 60.1499 16.22C60.5099 16.4867 60.9766 16.62 61.5499 16.62C62.0299 16.62 62.4499 16.5133 62.8099 16.3C63.1699 16.0733 63.4033 15.7267 63.5099 15.26H66.3099C66.2433 16.1267 65.9833 16.8467 65.5299 17.42C65.0766 17.9933 64.4966 18.4267 63.7899 18.72C63.0966 19 62.3299 19.14 61.4899 19.14ZM68.0004 19V4.84H70.8004V19H68.0004ZM76.3599 19.14C75.8799 19.14 75.4133 19.08 74.9599 18.96C74.5199 18.8267 74.1266 18.6267 73.7799 18.36C73.4333 18.0933 73.1599 17.76 72.9599 17.36C72.7599 16.96 72.6599 16.4933 72.6599 15.96C72.6599 15.24 72.8066 14.6667 73.0999 14.24C73.3933 13.8 73.7866 13.4667 74.2799 13.24C74.7733 13.0133 75.3399 12.86 75.9799 12.78C76.6333 12.7 77.3066 12.66 77.9999 12.66H79.5199C79.5199 12.2733 79.4466 11.9333 79.2999 11.64C79.1666 11.3333 78.9599 11.1 78.6799 10.94C78.3999 10.7667 78.0399 10.68 77.5999 10.68C77.3199 10.68 77.0466 10.72 76.7799 10.8C76.5266 10.8667 76.3133 10.9667 76.1399 11.1C75.9666 11.2333 75.8533 11.4067 75.7999 11.62H72.9599C73.0399 11.0333 73.2266 10.5333 73.5199 10.12C73.8133 9.69333 74.1799 9.34667 74.6199 9.08C75.0599 8.81333 75.5399 8.62 76.0599 8.5C76.5933 8.36667 77.1399 8.3 77.6999 8.3C79.2333 8.3 80.3666 8.74 81.0999 9.62C81.8333 10.4867 82.1999 11.72 82.1999 13.32V19H79.6799L79.6399 17.64C79.3066 18.1067 78.9266 18.4467 78.4999 18.66C78.0866 18.8733 77.6866 19.0067 77.2999 19.06C76.9133 19.1133 76.5999 19.14 76.3599 19.14ZM76.9999 16.92C77.4666 16.92 77.8933 16.8267 78.2799 16.64C78.6666 16.4533 78.9733 16.2 79.1999 15.88C79.4266 15.56 79.5399 15.2 79.5399 14.8V14.54H77.6199C77.3399 14.54 77.0666 14.5533 76.7999 14.58C76.5466 14.6067 76.3133 14.66 76.0999 14.74C75.8999 14.8067 75.7399 14.92 75.6199 15.08C75.4999 15.24 75.4399 15.4533 75.4399 15.72C75.4399 15.9867 75.5066 16.2133 75.6399 16.4C75.7866 16.5733 75.9799 16.7067 76.2199 16.8C76.4599 16.88 76.7199 16.92 76.9999 16.92ZM86.9871 19L83.2871 8.46H86.3471L88.8671 16.72L91.3671 8.46H94.4471L90.7471 19H86.9871ZM100.359 19.14C99.2528 19.14 98.3128 18.92 97.5395 18.48C96.7661 18.04 96.1728 17.42 95.7595 16.62C95.3461 15.8067 95.1395 14.86 95.1395 13.78C95.1395 12.6867 95.3528 11.7333 95.7795 10.92C96.2061 10.0933 96.8061 9.44667 97.5795 8.98C98.3661 8.51333 99.2928 8.28 100.359 8.28C101.159 8.28 101.859 8.41333 102.459 8.68C103.073 8.94667 103.586 9.32 103.999 9.8C104.426 10.28 104.739 10.84 104.939 11.48C105.153 12.1067 105.253 12.7867 105.239 13.52C105.239 13.7067 105.233 13.8867 105.219 14.06C105.206 14.2333 105.179 14.4067 105.139 14.58H97.9195C97.9595 14.98 98.0728 15.3467 98.2595 15.68C98.4461 16.0133 98.7061 16.28 99.0395 16.48C99.3861 16.6667 99.8128 16.76 100.319 16.76C100.653 16.76 100.959 16.7267 101.239 16.66C101.519 16.58 101.759 16.46 101.959 16.3C102.159 16.14 102.299 15.9533 102.379 15.74H105.139C104.966 16.5267 104.639 17.1733 104.159 17.68C103.693 18.1867 103.126 18.56 102.459 18.8C101.793 19.0267 101.093 19.14 100.359 19.14ZM97.9795 12.62H102.559C102.546 12.26 102.453 11.9267 102.279 11.62C102.119 11.3 101.873 11.0467 101.539 10.86C101.219 10.66 100.806 10.56 100.299 10.56C99.7928 10.56 99.3661 10.66 99.0195 10.86C98.6861 11.06 98.4328 11.32 98.2595 11.64C98.0995 11.9467 98.0061 12.2733 97.9795 12.62Z" fill="#FB4E29"/>
</svg>
