<svg width="64" height="65" viewBox="0 0 64 65" fill="none" xmlns="http://www.w3.org/2000/svg">
<path d="M0 35.3933L8.66191 35.3933L8.66192 30.0864H7.73144L7.73143 34.3421L4.78774 34.3421L4.78774 30.4255L3.85727 30.4255L3.85726 34.3421L0.93048 34.3421L0.930488 30.1543L1.00115e-05 30.1543L0 35.3933Z" fill="#FAFAFA"/>
<path d="M11.5475 20.8885L3.545 17.5664L3.15007 18.522L9.44895 21.1368L9.41658 21.2151L1.30492 22.9863L0.916468 23.9261L8.91902 27.2482L9.32042 26.277L3.03717 23.6687L3.06954 23.5904L11.1591 21.8284L11.5475 20.8885Z" fill="#FAFAFA"/>
<path d="M13.5901 9.46806L12.8484 10.2114C12.5912 10.0415 12.327 9.93063 12.0559 9.87868C11.7867 9.82472 11.5195 9.82073 11.2544 9.86668C10.9892 9.90865 10.735 9.99556 10.4917 10.1274C10.2485 10.2593 10.0252 10.4272 9.82182 10.631C9.45098 11.0026 9.20873 11.4332 9.09509 11.9228C8.98343 12.4103 9.02131 12.9259 9.20873 13.4694C9.39813 14.0109 9.75801 14.5474 10.2884 15.0789C10.8187 15.6104 11.354 15.971 11.8943 16.1609C12.4367 16.3487 12.951 16.3867 13.4375 16.2748C13.926 16.1609 14.3557 15.9181 14.7265 15.5464C14.9299 15.3426 15.0974 15.1188 15.2289 14.8751C15.3605 14.6313 15.4483 14.3775 15.4921 14.1138C15.536 13.846 15.531 13.5773 15.4772 13.3075C15.4233 13.0338 15.3127 12.769 15.1452 12.5133L15.8869 11.7699C16.1441 12.1396 16.3225 12.5222 16.4222 12.9179C16.5219 13.3135 16.5488 13.7081 16.503 14.1018C16.4551 14.4934 16.3395 14.8711 16.1561 15.2347C15.9746 15.5964 15.7294 15.9321 15.4203 16.2418C14.898 16.7653 14.3058 17.103 13.6439 17.2549C12.9819 17.4067 12.2991 17.3638 11.5953 17.126C10.8915 16.8882 10.2166 16.4456 9.57059 15.7982C8.92461 15.1508 8.48299 14.4744 8.24573 13.7691C8.00847 13.0637 7.96561 12.3794 8.11714 11.716C8.26866 11.0526 8.60561 10.4591 9.12799 9.93562C9.43702 9.6259 9.77198 9.38013 10.1329 9.1983C10.4957 9.01447 10.8735 8.89958 11.2663 8.85362C11.6571 8.80567 12.0499 8.83164 12.4446 8.93155C12.8374 9.02946 13.2192 9.2083 13.5901 9.46806Z" fill="#FAFAFA"/>
<path d="M17.3105 3.93615L20.6252 11.9563L25.3142 10.0097L24.9582 9.14822L21.2382 10.6924L18.2795 3.53387L17.3105 3.93615Z" fill="#FAFAFA"/>
<path fill-rule="evenodd" clip-rule="evenodd" d="M28.8787 9.18092H27.779L30.9595 0.5L32.0423 0.5L35.2228 9.18091L34.1232 9.18091L33.2524 6.72245L29.7495 6.72245L28.8787 9.18092ZM31.5348 1.87335L32.9221 5.78993L30.0798 5.78994L31.4671 1.87335H31.5348Z" fill="#FAFAFA"/>
<path d="M40.9204 9.49974L41.3351 1.7622L40.3191 1.34046L39.9428 10.5804L40.9431 10.9956L47.1963 4.19535L46.1804 3.7736L41.0142 9.53867L40.9204 9.49974Z" fill="#FAFAFA"/>
<path d="M46.3678 13.9759L52.4927 7.8375L56.1892 11.5421L55.5312 12.2015L52.5764 9.2402L50.5069 11.3143L53.2703 14.0837L52.6124 14.7431L49.849 11.9737L47.7675 14.0598L50.7701 17.069L50.1122 17.7284L46.3678 13.9759Z" fill="#FAFAFA"/>
<path d="M53.2896 22.7907C53.2087 22.9864 53.2082 23.1808 53.288 23.374C53.342 23.5046 53.4218 23.6091 53.5275 23.6875C53.6368 23.7675 53.7579 23.8167 53.8906 23.835C54.0244 23.856 54.1551 23.8399 54.2827 23.7869C54.4755 23.7069 54.6123 23.5691 54.6932 23.3734C54.7741 23.1777 54.7746 22.9833 54.6947 22.7901C54.6149 22.5969 54.4773 22.4598 54.2821 22.3787C54.0868 22.2977 53.8928 22.2971 53.7 22.3772C53.5073 22.4572 53.3704 22.595 53.2896 22.7907Z" fill="#FAFAFA"/>
<path d="M61.7161 34.1048C62.1447 34.0539 62.4774 33.8476 62.7142 33.4859C62.9511 33.1242 63.0695 32.6805 63.0695 32.1549C63.0695 31.7706 63.0075 31.4344 62.8834 31.1461C62.7594 30.8607 62.5888 30.6375 62.3717 30.4764C62.1545 30.3182 61.9078 30.239 61.6315 30.239C61.4003 30.239 61.2015 30.2941 61.0351 30.4043C60.8716 30.5174 60.7349 30.6615 60.6249 30.8367C60.5177 31.0119 60.4289 31.1956 60.3584 31.3877C60.2908 31.5799 60.2358 31.7565 60.1935 31.9176L59.9566 32.7992C59.8974 33.0253 59.8157 33.2768 59.7113 33.5537C59.607 33.8335 59.4646 34.1005 59.2842 34.3548C59.1065 34.612 58.8781 34.8239 58.599 34.9907C58.3199 35.1574 57.9773 35.2407 57.5712 35.2407C57.1032 35.2407 56.6802 35.1178 56.3024 34.872C55.9246 34.629 55.6243 34.2729 55.4015 33.8038C55.1788 33.3376 55.0674 32.771 55.0674 32.1041C55.0674 31.4824 55.1675 30.9441 55.3677 30.4891C55.5679 30.037 55.847 29.6809 56.2051 29.421C56.5632 29.1638 56.9791 29.0183 57.4528 28.9844L57.4528 30.0695C57.1257 30.0977 56.855 30.208 56.6408 30.4001C56.4293 30.5951 56.2714 30.8409 56.1671 31.1377C56.0656 31.4372 56.0148 31.7593 56.0148 32.1041C56.0148 32.5053 56.0797 32.8656 56.2094 33.185C56.3419 33.5043 56.5252 33.7572 56.7592 33.9437C56.996 34.1302 57.2724 34.2234 57.5882 34.2234C57.8758 34.2234 58.1098 34.1429 58.2902 33.9818C58.4707 33.8208 58.6173 33.6088 58.7301 33.346C58.8429 33.0832 58.9416 32.7992 59.0262 32.494L59.3307 31.4259C59.5252 30.7477 59.803 30.2108 60.1639 29.8152C60.5248 29.4195 60.9971 29.2217 61.5807 29.2217C62.0657 29.2217 62.4887 29.3531 62.8496 29.6159C63.2133 29.8816 63.4953 30.2376 63.6955 30.6841C63.8985 31.1334 64 31.635 64 32.1888C64 32.7484 63.8999 33.2457 63.6997 33.6809C63.5023 34.1161 63.2317 34.4608 62.8877 34.7151C62.5437 34.9723 62.1531 35.1079 61.7161 35.122V34.1048Z" fill="#FAFAFA"/>
<path d="M62.8357 41.4088L61.976 41.0519L60.9337 43.5739L53.7908 40.6087L53.3894 41.5799L60.5323 44.5451L59.4899 47.067L60.3496 47.4239L62.8357 41.4088Z" fill="#FAFAFA"/>
<path d="M53.2104 56.4649L52.4687 57.2082L48.4133 53.144C47.9946 52.7243 47.7195 52.2508 47.5879 51.7233C47.4563 51.1998 47.4743 50.6642 47.6417 50.1168C47.8112 49.5713 48.1362 49.0577 48.6167 48.5762C49.0972 48.0946 49.6096 47.7689 50.1539 47.5991C50.7002 47.4312 51.2355 47.4123 51.7599 47.5421C52.2843 47.676 52.7558 47.9528 53.1745 48.3724L57.2298 52.4366L56.4881 53.1799L52.4926 49.1756C52.1935 48.8759 51.8616 48.6751 51.4967 48.5732C51.1338 48.4733 50.764 48.4783 50.3872 48.5882C50.0103 48.7021 49.6515 48.9298 49.3105 49.2715C48.9696 49.6132 48.7423 49.9729 48.6287 50.3505C48.517 50.7302 48.512 51.1008 48.6137 51.4625C48.7154 51.8282 48.9158 52.1609 49.2148 52.4606L53.2104 56.4649Z" fill="#FAFAFA"/>
<path fill-rule="evenodd" clip-rule="evenodd" d="M44.2566 52.6505L41.787 53.6757C40.9743 54.0131 40.3503 54.4602 39.9151 55.0171C39.4811 55.5765 39.2396 56.2182 39.1908 56.9419C39.1431 57.6683 39.2919 58.4491 39.6372 59.2846C39.9803 60.1148 40.4221 60.7664 40.9625 61.2394C41.5039 61.7151 42.1166 61.9976 42.8005 62.0868C43.4855 62.1787 44.2161 62.0635 44.9924 61.7412L47.5714 60.6706L44.2566 52.6505ZM42.2056 54.5113L43.6436 53.9143L46.2462 60.2114L44.6989 60.8537C44.0737 61.1133 43.499 61.2035 42.9749 61.1243C42.452 61.0478 41.9878 60.8184 41.5826 60.436C41.1785 60.0563 40.8426 59.5427 40.575 58.8953C40.3052 58.2426 40.1795 57.6356 40.1978 57.0744C40.2161 56.5132 40.3899 56.0144 40.7192 55.5779C41.0485 55.1415 41.544 54.7859 42.2056 54.5113Z" fill="#FAFAFA"/>
<path d="M31.6024 63.4827H30.3167V64.5H33.8978V63.4827H32.6513L32.6513 56.0443H33.8978L33.8978 55.027H30.3167V56.0443H31.6024L31.6024 63.4827Z" fill="#FAFAFA"/>
<path fill-rule="evenodd" clip-rule="evenodd" d="M19.6438 54.787C19.0843 55.2766 18.6298 55.9444 18.2802 56.7902C17.9306 57.6361 17.7809 58.4304 17.831 59.173C17.8811 59.9157 18.1028 60.5644 18.4962 61.1192C18.8895 61.6739 19.4274 62.093 20.1099 62.3763C20.7924 62.6596 21.4684 62.7445 22.1379 62.6309C22.8075 62.5174 23.422 62.2158 23.9814 61.7262C24.5408 61.2366 24.9954 60.5689 25.345 59.723C25.6946 58.8771 25.8443 58.0828 25.7942 57.3402C25.744 56.5975 25.5223 55.9488 25.129 55.3941C24.7357 54.8393 24.1978 54.4202 23.5153 54.1369C22.8328 53.8536 22.1568 53.7687 21.4872 53.8823C20.8177 53.9958 20.2032 54.2974 19.6438 54.787ZM18.839 59.0822C18.8047 58.5082 18.931 57.874 19.218 57.1795C19.505 56.4851 19.8632 55.9471 20.2925 55.5656C20.7192 55.183 21.18 54.9506 21.6747 54.8685C22.1669 54.7853 22.6553 54.8443 23.1398 55.0454C23.6243 55.2466 24.0126 55.5515 24.3045 55.9602C24.5938 56.3678 24.7557 56.8586 24.79 57.4326C24.8218 58.0055 24.6942 58.6392 24.4072 59.3337C24.1201 60.0281 23.7633 60.5666 23.3366 60.9492C22.9073 61.3308 22.4465 61.5631 21.9543 61.6463C21.4596 61.7284 20.9699 61.6689 20.4854 61.4678C20.0008 61.2666 19.6139 60.9623 19.3246 60.5546C19.0327 60.1459 18.8708 59.6551 18.839 59.0822Z" fill="#FAFAFA"/>
<path d="M9.76195 52.4844C9.49478 52.8241 9.40506 53.2057 9.49279 53.6293C9.58051 54.0529 9.8098 54.4506 10.1806 54.8222C10.4518 55.094 10.7329 55.2878 11.024 55.4037C11.3131 55.5176 11.5912 55.5545 11.8584 55.5146C12.1236 55.4726 12.3539 55.3537 12.5493 55.1579C12.7127 54.9941 12.8144 54.8142 12.8543 54.6184C12.8902 54.4226 12.8852 54.2238 12.8393 54.022C12.7915 53.8222 12.7247 53.6293 12.639 53.4435C12.5512 53.2597 12.4655 53.0958 12.3818 52.952L11.9272 52.1607C11.8096 51.9589 11.6899 51.7231 11.5683 51.4533C11.4447 51.1816 11.357 50.8919 11.3051 50.5841C11.2493 50.2764 11.2613 49.9647 11.341 49.649C11.4208 49.3333 11.6042 49.0316 11.8913 48.7438C12.2223 48.4121 12.6081 48.1993 13.0487 48.1054C13.4873 48.0095 13.9509 48.0485 14.4394 48.2223C14.9258 48.3942 15.4043 48.7159 15.8749 49.1874C16.3135 49.627 16.6225 50.0786 16.802 50.5422C16.9794 51.0038 17.0333 51.4533 16.9635 51.8909C16.8917 52.3265 16.7003 52.7242 16.3893 53.0838L15.6237 52.3165C15.835 52.0648 15.9486 51.795 15.9646 51.5073C15.9766 51.2196 15.9148 50.9338 15.7792 50.6501C15.6396 50.3663 15.4482 50.1026 15.205 49.8588C14.9219 49.5751 14.6218 49.3663 14.3048 49.2324C13.9858 49.1005 13.6777 49.0516 13.3807 49.0855C13.0816 49.1215 12.8204 49.2514 12.5971 49.4752C12.3937 49.679 12.2851 49.9018 12.2711 50.1435C12.2572 50.3853 12.303 50.6391 12.4087 50.9048C12.5144 51.1706 12.645 51.4413 12.8005 51.7171L13.3388 52.6882C13.6797 53.3056 13.8622 53.8821 13.8861 54.4176C13.91 54.9531 13.7156 55.4277 13.3029 55.8413C12.96 56.185 12.5682 56.3918 12.1276 56.4617C11.683 56.5316 11.2324 56.4797 10.7758 56.3059C10.3152 56.132 9.88955 55.8493 9.49877 55.4576C9.104 55.062 8.82387 54.6394 8.65839 54.1898C8.49091 53.7422 8.43907 53.3066 8.50287 52.883C8.56468 52.4574 8.74512 52.0848 9.04418 51.765L9.76195 52.4844Z" fill="#FAFAFA"/>
<path d="M10.4361 42.2414C10.517 42.0457 10.5175 41.8513 10.4377 41.6581C10.3837 41.5276 10.3039 41.423 10.1982 41.3446C10.0888 41.2646 9.96781 41.2154 9.8351 41.1971C9.70132 41.1762 9.57061 41.1922 9.44297 41.2452C9.2502 41.3252 9.11337 41.4631 9.0325 41.6587C8.95162 41.8544 8.95111 42.0489 9.03095 42.242C9.1108 42.4352 9.24835 42.5724 9.44361 42.6534C9.63886 42.7345 9.83287 42.735 10.0256 42.655C10.2184 42.5749 10.3552 42.4371 10.4361 42.2414Z" fill="#FAFAFA"/>
</svg>
