<svg width="338" height="338" viewBox="0 0 338 338" fill="none" xmlns="http://www.w3.org/2000/svg">
<g filter="url(#filter0_d_308_1049)">
<path d="M85.0261 145.452L55.462 133.206L62.8526 115.364L66.0284 116.679L60.1207 130.942L70.1102 135.079L75.6352 121.741L78.811 123.056L73.286 136.395L83.3332 140.557L89.3365 126.063L92.5124 127.379L85.0261 145.452Z" fill="#F66C08"/>
<path d="M92.7091 77.5056L115.336 100.133L112.685 102.785L82.5886 97.3487L82.3676 97.5697L100.134 115.336L97.3936 118.076L74.7662 95.4483L77.4179 92.7967L107.603 98.2327L107.823 98.0117L90.0133 80.2014L92.7091 77.5056Z" fill="#F66C08"/>
<path d="M138.42 64.1271L134.84 65.6099C134.202 64.6679 133.456 63.9167 132.604 63.3565C131.762 62.7922 130.855 62.4009 129.886 62.1825C128.921 61.9505 127.931 61.8871 126.915 61.9924C125.899 62.0976 124.9 62.3535 123.918 62.7601C122.128 63.5016 120.694 64.6256 119.615 66.1321C118.546 67.6347 117.948 69.444 117.821 71.5599C117.704 73.6718 118.175 76.0078 119.236 78.5677C120.296 81.1276 121.615 83.1127 123.191 84.5231C124.777 85.9295 126.479 86.786 128.297 87.0927C130.125 87.3954 131.934 87.176 133.724 86.4346C134.706 86.028 135.593 85.5026 136.386 84.8584C137.179 84.2142 137.837 83.474 138.358 82.6378C138.886 81.7879 139.248 80.8656 139.445 79.8708C139.647 78.8624 139.643 77.8043 139.432 76.6965L143.012 75.2136C143.368 76.8362 143.438 78.3916 143.22 79.8799C143.002 81.3683 142.537 82.7503 141.825 84.0261C141.11 85.2922 140.182 86.4149 139.043 87.394C137.914 88.3692 136.603 89.1658 135.111 89.7836C132.59 90.828 130.093 91.1409 127.619 90.7223C125.146 90.3036 122.875 89.1919 120.809 87.3871C118.742 85.5823 117.063 83.1208 115.771 80.0027C114.48 76.8846 113.927 73.9568 114.112 71.2192C114.297 68.4816 115.116 66.0903 116.569 64.0452C118.022 62.0002 120.009 60.4555 122.531 59.4111C124.022 58.7932 125.512 58.4297 127.001 58.3207C128.498 58.2076 129.95 58.3505 131.355 58.7493C132.757 59.1384 134.061 59.7822 135.267 60.6805C136.47 61.5693 137.521 62.7181 138.42 64.1271Z" fill="#F66C08"/>
<path d="M158.922 82.5469L158.922 50.5469L162.797 50.5469L162.797 79.1094L177.672 79.1094L177.672 82.5469L158.922 82.5469Z" fill="#F66C08"/>
<path d="M191.005 84.7638L187.252 83.2091L210.353 58.1415L214.049 59.6722L212.659 93.7329L208.905 92.1782L210.379 63.6318L210.148 63.5361L191.005 84.7638ZM197.175 73.7893L212.303 80.0557L210.988 83.2315L195.859 76.9651L197.175 73.7893Z" fill="#F66C08"/>
<path d="M243.986 77.1084L231.655 102.874L231.921 103.139L257.686 90.8086L260.558 93.6812L229.622 108L226.794 105.172L241.113 74.2358L243.986 77.1084Z" fill="#F66C08"/>
<path d="M243.934 125.819L273.498 113.573L280.889 131.415L277.713 132.731L271.805 118.468L261.816 122.606L267.341 135.945L264.165 137.26L258.64 123.922L248.593 128.083L254.596 142.577L251.42 143.892L243.934 125.819Z" fill="#F66C08"/>
<path d="M254.297 167.61C254.297 166.839 254.573 166.177 255.125 165.625C255.677 165.073 256.339 164.797 257.109 164.797C257.88 164.797 258.542 165.073 259.094 165.625C259.646 166.177 259.922 166.839 259.922 167.61C259.922 168.38 259.646 169.042 259.094 169.594C258.542 170.146 257.88 170.422 257.109 170.422C256.599 170.422 256.13 170.292 255.703 170.031C255.276 169.781 254.932 169.443 254.672 169.016C254.422 168.599 254.297 168.13 254.297 167.61Z" fill="#F66C08"/>
<path d="M267.925 216.07C269.459 216.502 270.886 216.27 272.204 215.373C273.523 214.476 274.553 213.133 275.295 211.343C275.837 210.034 276.099 208.801 276.083 207.644C276.062 206.497 275.794 205.495 275.281 204.64C274.763 203.794 274.032 203.176 273.089 202.785C272.3 202.458 271.544 202.365 270.821 202.505C270.103 202.659 269.433 202.956 268.81 203.397C268.198 203.842 267.635 204.342 267.124 204.897C266.622 205.456 266.185 205.98 265.813 206.468L263.761 209.136C263.24 209.822 262.606 210.563 261.859 211.359C261.109 212.164 260.246 212.872 259.271 213.483C258.302 214.108 257.224 214.507 256.036 214.68C254.848 214.853 253.561 214.653 252.175 214.079C250.578 213.417 249.308 212.4 248.365 211.029C247.418 209.667 246.895 208.03 246.797 206.118C246.694 204.215 247.113 202.128 248.054 199.857C248.931 197.739 250.032 196.047 251.357 194.781C252.678 193.524 254.133 192.706 255.722 192.327C257.307 191.958 258.932 192.05 260.597 192.604L259.066 196.3C257.91 195.934 256.83 195.926 255.828 196.278C254.831 196.643 253.945 197.257 253.171 198.12C252.402 198.996 251.774 200.022 251.288 201.196C250.722 202.562 250.435 203.881 250.427 205.152C250.429 206.427 250.698 207.547 251.233 208.513C251.779 209.483 252.59 210.192 253.668 210.638C254.65 211.045 255.562 211.101 256.405 210.808C257.248 210.514 258.048 210 258.803 209.264C259.559 208.529 260.297 207.701 261.016 206.781L263.562 203.574C265.183 201.539 266.888 200.104 268.678 199.266C270.468 198.429 272.359 198.423 274.351 199.249C276.006 199.934 277.264 200.98 278.126 202.385C278.992 203.804 279.452 205.415 279.506 207.219C279.565 209.036 279.204 210.887 278.423 212.774C277.633 214.679 276.59 216.232 275.293 217.431C274.005 218.634 272.595 219.425 271.062 219.805C269.525 220.194 268.001 220.104 266.49 219.534L267.925 216.07Z" fill="#F66C08"/>
<path d="M259.011 240.097L261.442 242.528L244.471 259.498L242.041 257.068L249.156 249.952L228.959 229.756L231.699 227.015L251.896 247.212L259.011 240.097Z" fill="#F66C08"/>
<path d="M207.352 280.195L203.772 281.678L195.664 262.104C194.827 260.083 194.556 258.081 194.851 256.098C195.14 254.129 195.957 252.331 197.301 250.703C198.649 249.085 200.482 247.796 202.802 246.835C205.121 245.874 207.329 245.489 209.427 245.68C211.528 245.881 213.382 246.573 214.988 247.757C216.589 248.954 217.808 250.563 218.645 252.584L226.753 272.159L223.173 273.642L215.185 254.356C214.587 252.912 213.737 251.759 212.636 250.896C211.538 250.043 210.269 249.537 208.828 249.379C207.381 249.234 205.834 249.502 204.189 250.184C202.543 250.866 201.26 251.769 200.339 252.895C199.423 254.03 198.883 255.285 198.72 256.66C198.551 258.05 198.766 259.466 199.363 260.909L207.352 280.195Z" fill="#F66C08"/>
<path d="M172.297 254.546L182.172 254.546L182.172 286.546L171.859 286.546C168.755 286.546 166.099 285.906 163.891 284.625C161.682 283.354 159.99 281.526 158.812 279.14C157.635 276.765 157.047 273.921 157.047 270.609C157.047 267.276 157.641 264.406 158.828 262C160.016 259.604 161.745 257.76 164.016 256.468C166.286 255.187 169.047 254.546 172.297 254.546ZM178.297 257.984L172.547 257.984C169.901 257.984 167.708 258.494 165.969 259.515C164.229 260.536 162.932 261.989 162.078 263.875C161.224 265.76 160.797 268.005 160.797 270.609C160.797 273.192 161.219 275.416 162.062 277.281C162.906 279.156 164.167 280.593 165.844 281.593C167.521 282.604 169.609 283.109 172.109 283.109L178.297 283.109L178.297 257.984Z" fill="#F66C08"/>
<path d="M122.235 277.086L134.481 247.522L138.061 249.005L125.815 278.569L122.235 277.086Z" fill="#F66C08"/>
<path d="M130.779 242.741L143.002 247.804L141.567 251.268L129.344 246.206L130.779 242.741Z" fill="#F66C08"/>
<path d="M118.851 271.538L131.074 276.601L129.639 280.066L117.416 275.003L118.851 271.538Z" fill="#F66C08"/>
<path d="M87.6722 231.92C90.0587 229.534 92.552 227.902 95.152 227.026C97.7521 226.149 100.275 225.991 102.72 226.551C105.166 227.111 107.353 228.355 109.283 230.285C111.213 232.215 112.458 234.403 113.018 236.848C113.577 239.294 113.419 241.816 112.542 244.416C111.666 247.016 110.034 249.51 107.648 251.896C105.261 254.283 102.768 255.914 100.168 256.791C97.5679 257.667 95.0452 257.826 92.5998 257.266C90.1543 256.706 87.9667 255.461 86.0369 253.531C84.1071 251.602 82.8623 249.414 82.3025 246.969C81.7428 244.523 81.9011 242 82.7776 239.4C83.6542 236.8 85.2857 234.307 87.6722 231.92ZM90.3238 234.572C88.3645 236.531 87.0387 238.513 86.3463 240.516C85.6466 242.512 85.5066 244.413 85.9265 246.217C86.3389 248.014 87.2302 249.598 88.6002 250.968C89.9702 252.338 91.5575 253.233 93.3621 253.653C95.1593 254.065 97.0597 253.925 99.0632 253.233C101.059 252.533 103.037 251.204 104.996 249.245C106.956 247.285 108.285 245.308 108.985 243.312C109.677 241.308 109.817 239.408 109.405 237.61C108.985 235.806 108.09 234.219 106.72 232.849C105.35 231.479 103.766 230.587 101.969 230.175C100.164 229.755 98.264 229.895 96.2679 230.595C94.2645 231.287 92.2831 232.613 90.3238 234.572Z" fill="#F66C08"/>
<path d="M64.6707 205.214C63.2797 205.993 62.4351 207.166 62.1369 208.733C61.8388 210.299 62.0604 211.978 62.8019 213.768C63.344 215.077 64.0301 216.134 64.8601 216.94C65.6862 217.737 66.5834 218.256 67.5516 218.498C68.5159 218.73 69.4696 218.65 70.4127 218.26C71.2018 217.933 71.8026 217.464 72.2149 216.854C72.6136 216.237 72.8771 215.553 73.0053 214.801C73.1238 214.053 73.1679 213.302 73.1374 212.548C73.0973 211.798 73.0358 211.119 72.9529 210.51L72.5176 207.173C72.4008 206.319 72.3251 205.347 72.2905 204.256C72.252 203.156 72.3613 202.045 72.6184 200.924C72.862 199.797 73.3425 198.753 74.0601 197.79C74.7777 196.828 75.8293 196.059 77.2152 195.485C78.8127 194.824 80.4297 194.644 82.0661 194.947C83.6985 195.241 85.2257 196.029 86.6477 197.312C88.0657 198.585 89.2451 200.357 90.1858 202.628C91.0628 204.745 91.4805 206.72 91.4391 208.552C91.3936 210.375 90.9431 211.983 90.0876 213.374C89.2281 214.756 88.0139 215.84 86.445 216.625L84.9143 212.929C85.9907 212.371 86.7592 211.613 87.2195 210.655C87.6662 209.692 87.8583 208.632 87.7959 207.474C87.7198 206.31 87.4386 205.141 86.9522 203.967C86.3862 202.601 85.6566 201.465 84.7635 200.561C83.8607 199.661 82.8784 199.059 81.8165 198.755C80.745 198.454 79.6703 198.527 78.5925 198.974C77.6109 199.38 76.9257 199.986 76.537 200.789C76.1483 201.593 75.9468 202.522 75.9326 203.577C75.9184 204.631 75.9822 205.738 76.124 206.897L76.5914 210.965C76.8841 213.55 76.6935 215.771 76.0198 217.628C75.346 219.486 74.0131 220.827 72.021 221.652C70.3657 222.338 68.7368 222.489 67.1342 222.104C65.518 221.713 64.0534 220.899 62.7403 219.662C61.4135 218.419 60.3595 216.854 59.5782 214.968C58.7889 213.062 58.429 211.227 58.4984 209.462C58.5581 207.701 58.9957 206.144 59.811 204.792C60.6224 203.429 61.7639 202.415 63.2357 201.749L64.6707 205.214Z" fill="#F66C08"/>
<path d="M82.25 169.298C82.25 170.069 81.974 170.731 81.4219 171.283C80.8698 171.835 80.2083 172.111 79.4375 172.111C78.6667 172.111 78.0052 171.835 77.4531 171.283C76.901 170.731 76.625 170.069 76.625 169.298C76.625 168.528 76.901 167.866 77.4531 167.314C78.0052 166.762 78.6667 166.486 79.4375 166.486C79.9479 166.486 80.4167 166.616 80.8438 166.876C81.2708 167.126 81.6146 167.465 81.875 167.892C82.125 168.309 82.25 168.778 82.25 169.298Z" fill="#F66C08"/>
</g>
<defs>
<filter id="filter0_d_308_1049" x="41.2734" y="40.5469" width="251.67" height="260" filterUnits="userSpaceOnUse" color-interpolation-filters="sRGB">
<feFlood flood-opacity="0" result="BackgroundImageFix"/>
<feColorMatrix in="SourceAlpha" type="matrix" values="0 0 0 0 0 0 0 0 0 0 0 0 0 0 0 0 0 0 127 0" result="hardAlpha"/>
<feOffset dx="-2" dy="2"/>
<feGaussianBlur stdDeviation="6"/>
<feComposite in2="hardAlpha" operator="out"/>
<feColorMatrix type="matrix" values="0 0 0 0 0.964706 0 0 0 0 0.423529 0 0 0 0 0.0313726 0 0 0 0.5 0"/>
<feBlend mode="normal" in2="BackgroundImageFix" result="effect1_dropShadow_308_1049"/>
<feBlend mode="normal" in="SourceGraphic" in2="effect1_dropShadow_308_1049" result="shape"/>
</filter>
</defs>
</svg>
