<svg width="153" height="17" viewBox="0 0 153 17" fill="none" xmlns="http://www.w3.org/2000/svg">
<path d="M5.25984 16.14C4.15318 16.14 3.21318 15.92 2.43984 15.48C1.66651 15.04 1.07318 14.42 0.659844 13.62C0.24651 12.8067 0.0398438 11.86 0.0398438 10.78C0.0398438 9.68667 0.253177 8.73333 0.679844 7.92C1.10651 7.09333 1.70651 6.44667 2.47984 5.98C3.26651 5.51333 4.19318 5.28 5.25984 5.28C6.05984 5.28 6.75984 5.41333 7.35984 5.68C7.97318 5.94667 8.48651 6.32 8.89984 6.8C9.32651 7.28 9.63984 7.84 9.83984 8.48C10.0532 9.10667 10.1532 9.78667 10.1398 10.52C10.1398 10.7067 10.1332 10.8867 10.1198 11.06C10.1065 11.2333 10.0798 11.4067 10.0398 11.58H2.81984C2.85984 11.98 2.97318 12.3467 3.15984 12.68C3.34651 13.0133 3.60651 13.28 3.93984 13.48C4.28651 13.6667 4.71318 13.76 5.21984 13.76C5.55318 13.76 5.85984 13.7267 6.13984 13.66C6.41984 13.58 6.65984 13.46 6.85984 13.3C7.05984 13.14 7.19984 12.9533 7.27984 12.74H10.0398C9.86651 13.5267 9.53984 14.1733 9.05984 14.68C8.59318 15.1867 8.02651 15.56 7.35984 15.8C6.69318 16.0267 5.99318 16.14 5.25984 16.14ZM2.87984 9.62H7.45984C7.44651 9.26 7.35318 8.92667 7.17984 8.62C7.01984 8.3 6.77318 8.04667 6.43984 7.86C6.11984 7.66 5.70651 7.56 5.19984 7.56C4.69318 7.56 4.26651 7.66 3.91984 7.86C3.58651 8.06 3.33318 8.32 3.15984 8.64C2.99984 8.94667 2.90651 9.27333 2.87984 9.62ZM11.9438 16V5.46H14.5638L14.7038 6.68C14.9971 6.32 15.3304 6.04 15.7038 5.84C16.0904 5.62667 16.4771 5.48 16.8638 5.4C17.2638 5.32 17.6238 5.28 17.9438 5.28C18.9571 5.28 19.7438 5.5 20.3038 5.94C20.8771 6.38 21.2838 6.97333 21.5238 7.72C21.7771 8.45333 21.9038 9.27333 21.9038 10.18V16H19.1038V10.54C19.1038 10.22 19.0771 9.9 19.0238 9.58C18.9704 9.26 18.8704 8.96667 18.7238 8.7C18.5904 8.43333 18.3971 8.22 18.1438 8.06C17.8904 7.9 17.5571 7.82 17.1438 7.82C16.6104 7.82 16.1638 7.95333 15.8038 8.22C15.4438 8.48667 15.1771 8.84667 15.0038 9.3C14.8304 9.75333 14.7438 10.2533 14.7438 10.8V16H11.9438ZM28.7731 16.14C27.6931 16.14 26.7665 15.92 25.9931 15.48C25.2331 15.04 24.6531 14.42 24.2531 13.62C23.8531 12.8067 23.6531 11.8533 23.6531 10.76C23.6531 9.65333 23.8598 8.69333 24.2731 7.88C24.6865 7.05333 25.2798 6.41333 26.0531 5.96C26.8398 5.50667 27.7865 5.28 28.8931 5.28C29.7465 5.28 30.5065 5.43333 31.1731 5.74C31.8398 6.04667 32.3731 6.48667 32.7731 7.06C33.1865 7.63333 33.4265 8.34 33.4931 9.18H30.7531C30.6331 8.71333 30.3998 8.37333 30.0531 8.16C29.7198 7.94667 29.3198 7.84 28.8531 7.84C28.2531 7.84 27.7731 7.98667 27.4131 8.28C27.0665 8.57333 26.8131 8.94667 26.6531 9.4C26.5065 9.85333 26.4331 10.3067 26.4331 10.76C26.4331 11.2533 26.5131 11.72 26.6731 12.16C26.8331 12.5867 27.0865 12.94 27.4331 13.22C27.7931 13.4867 28.2598 13.62 28.8331 13.62C29.3131 13.62 29.7331 13.5133 30.0931 13.3C30.4531 13.0733 30.6865 12.7267 30.7931 12.26H33.5931C33.5265 13.1267 33.2665 13.8467 32.8131 14.42C32.3598 14.9933 31.7798 15.4267 31.0731 15.72C30.3798 16 29.6131 16.14 28.7731 16.14ZM35.2836 16V1.84H38.0836V16H35.2836ZM43.6431 16.14C43.1631 16.14 42.6965 16.08 42.2431 15.96C41.8031 15.8267 41.4098 15.6267 41.0631 15.36C40.7165 15.0933 40.4431 14.76 40.2431 14.36C40.0431 13.96 39.9431 13.4933 39.9431 12.96C39.9431 12.24 40.0898 11.6667 40.3831 11.24C40.6765 10.8 41.0698 10.4667 41.5631 10.24C42.0565 10.0133 42.6231 9.86 43.2631 9.78C43.9165 9.7 44.5898 9.66 45.2831 9.66H46.8031C46.8031 9.27333 46.7298 8.93333 46.5831 8.64C46.4498 8.33333 46.2431 8.1 45.9631 7.94C45.6831 7.76667 45.3231 7.68 44.8831 7.68C44.6031 7.68 44.3298 7.72 44.0631 7.8C43.8098 7.86667 43.5965 7.96667 43.4231 8.1C43.2498 8.23333 43.1365 8.40667 43.0831 8.62H40.2431C40.3231 8.03333 40.5098 7.53333 40.8031 7.12C41.0965 6.69333 41.4631 6.34667 41.9031 6.08C42.3431 5.81333 42.8231 5.62 43.3431 5.5C43.8765 5.36667 44.4231 5.3 44.9831 5.3C46.5165 5.3 47.6498 5.74 48.3831 6.62C49.1165 7.48667 49.4831 8.72 49.4831 10.32V16H46.9631L46.9231 14.64C46.5898 15.1067 46.2098 15.4467 45.7831 15.66C45.3698 15.8733 44.9698 16.0067 44.5831 16.06C44.1965 16.1133 43.8831 16.14 43.6431 16.14ZM44.2831 13.92C44.7498 13.92 45.1765 13.8267 45.5631 13.64C45.9498 13.4533 46.2565 13.2 46.4831 12.88C46.7098 12.56 46.8231 12.2 46.8231 11.8V11.54H44.9031C44.6231 11.54 44.3498 11.5533 44.0831 11.58C43.8298 11.6067 43.5965 11.66 43.3831 11.74C43.1831 11.8067 43.0231 11.92 42.9031 12.08C42.7831 12.24 42.7231 12.4533 42.7231 12.72C42.7231 12.9867 42.7898 13.2133 42.9231 13.4C43.0698 13.5733 43.2631 13.7067 43.5031 13.8C43.7431 13.88 44.0031 13.92 44.2831 13.92ZM54.2703 16L50.5703 5.46H53.6303L56.1503 13.72L58.6503 5.46H61.7303L58.0303 16H54.2703ZM67.6427 16.14C66.536 16.14 65.596 15.92 64.8227 15.48C64.0493 15.04 63.456 14.42 63.0427 13.62C62.6293 12.8067 62.4227 11.86 62.4227 10.78C62.4227 9.68667 62.636 8.73333 63.0627 7.92C63.4893 7.09333 64.0893 6.44667 64.8627 5.98C65.6493 5.51333 66.576 5.28 67.6427 5.28C68.4427 5.28 69.1427 5.41333 69.7427 5.68C70.356 5.94667 70.8693 6.32 71.2827 6.8C71.7093 7.28 72.0227 7.84 72.2227 8.48C72.436 9.10667 72.536 9.78667 72.5227 10.52C72.5227 10.7067 72.516 10.8867 72.5027 11.06C72.4893 11.2333 72.4627 11.4067 72.4227 11.58H65.2027C65.2427 11.98 65.356 12.3467 65.5427 12.68C65.7293 13.0133 65.9893 13.28 66.3227 13.48C66.6693 13.6667 67.096 13.76 67.6027 13.76C67.936 13.76 68.2427 13.7267 68.5227 13.66C68.8027 13.58 69.0427 13.46 69.2427 13.3C69.4427 13.14 69.5827 12.9533 69.6627 12.74H72.4227C72.2493 13.5267 71.9227 14.1733 71.4427 14.68C70.976 15.1867 70.4093 15.56 69.7427 15.8C69.076 16.0267 68.376 16.14 67.6427 16.14ZM65.2627 9.62H69.8427C69.8293 9.26 69.736 8.92667 69.5627 8.62C69.4027 8.3 69.156 8.04667 68.8227 7.86C68.5027 7.66 68.0893 7.56 67.5827 7.56C67.076 7.56 66.6493 7.66 66.3027 7.86C65.9693 8.06 65.716 8.32 65.5427 8.64C65.3827 8.94667 65.2893 9.27333 65.2627 9.62ZM74.4666 11.46V8.94H81.2866V11.46H74.4666ZM87.7434 16.14C87.2501 16.14 86.7434 16.0867 86.2234 15.98C85.7034 15.8733 85.2234 15.6933 84.7834 15.44C84.3434 15.1733 83.9701 14.82 83.6634 14.38C83.3568 13.9267 83.1568 13.3667 83.0634 12.7H85.9034C85.9834 12.94 86.1234 13.1467 86.3234 13.32C86.5368 13.4933 86.7768 13.62 87.0434 13.7C87.3234 13.78 87.6034 13.82 87.8834 13.82C88.0701 13.82 88.2568 13.8067 88.4434 13.78C88.6301 13.7533 88.8034 13.7 88.9634 13.62C89.1234 13.54 89.2501 13.44 89.3434 13.32C89.4368 13.1867 89.4834 13.02 89.4834 12.82C89.4834 12.6067 89.4168 12.44 89.2834 12.32C89.1501 12.2 88.9634 12.1067 88.7234 12.04C88.4834 11.96 88.2101 11.8867 87.9034 11.82C87.3568 11.7 86.7701 11.5667 86.1434 11.42C85.5168 11.2733 84.9768 11.06 84.5234 10.78C84.3368 10.6467 84.1701 10.5 84.0234 10.34C83.8768 10.18 83.7568 10 83.6634 9.8C83.5701 9.6 83.4968 9.39333 83.4434 9.18C83.3901 8.95333 83.3634 8.71333 83.3634 8.46C83.3634 7.88667 83.4834 7.4 83.7234 7C83.9768 6.58667 84.3101 6.25333 84.7234 6C85.1368 5.74667 85.5968 5.56667 86.1034 5.46C86.6101 5.34 87.1301 5.28 87.6634 5.28C88.3834 5.28 89.0501 5.4 89.6634 5.64C90.2768 5.86667 90.7834 6.22667 91.1834 6.72C91.5834 7.2 91.8301 7.82667 91.9234 8.6H89.2434C89.1901 8.30667 89.0101 8.07333 88.7034 7.9C88.3968 7.71333 88.0168 7.62 87.5634 7.62C87.4034 7.62 87.2301 7.63333 87.0434 7.66C86.8701 7.68667 86.7101 7.73333 86.5634 7.8C86.4168 7.86667 86.2968 7.96 86.2034 8.08C86.1101 8.18667 86.0634 8.33333 86.0634 8.52C86.0634 8.66667 86.1034 8.8 86.1834 8.92C86.2768 9.04 86.4034 9.14 86.5634 9.22C86.7368 9.3 86.9434 9.37333 87.1834 9.44C87.6368 9.54667 88.0901 9.64667 88.5434 9.74C89.0101 9.82 89.4234 9.90667 89.7834 10C90.2234 10.0933 90.6234 10.2467 90.9834 10.46C91.3568 10.6733 91.6568 10.9667 91.8834 11.34C92.1234 11.7 92.2434 12.1733 92.2434 12.76C92.2434 13.4267 92.1101 13.98 91.8434 14.42C91.5768 14.8467 91.2168 15.1867 90.7634 15.44C90.3234 15.6933 89.8368 15.8733 89.3034 15.98C88.7834 16.0867 88.2634 16.14 87.7434 16.14ZM98.1773 16.14C96.9907 16.14 96.1107 15.8067 95.5373 15.14C94.9773 14.4733 94.6973 13.56 94.6973 12.4V7.96H93.1173V5.46H94.6973V2.62H97.4973V5.46H100.697V7.96H97.4973V11.82C97.4973 12.1667 97.5373 12.4667 97.6173 12.72C97.7107 12.9733 97.8573 13.1733 98.0573 13.32C98.2707 13.4533 98.5573 13.52 98.9173 13.52C99.2373 13.52 99.504 13.4733 99.7173 13.38C99.944 13.2733 100.131 13.16 100.277 13.04L101.157 15.2C100.877 15.4267 100.564 15.6133 100.217 15.76C99.884 15.8933 99.544 15.9867 99.1973 16.04C98.8507 16.1067 98.5107 16.14 98.1773 16.14ZM107.095 16.14C105.548 16.14 104.355 15.7467 103.515 14.96C102.688 14.16 102.275 12.96 102.275 11.36V5.46H105.075V11.16C105.075 11.64 105.142 12.0667 105.275 12.44C105.422 12.8 105.642 13.0867 105.935 13.3C106.242 13.5133 106.635 13.62 107.115 13.62C107.635 13.62 108.035 13.5067 108.315 13.28C108.595 13.0533 108.788 12.7533 108.895 12.38C109.002 11.9933 109.055 11.5867 109.055 11.16V5.46H111.835V11.36C111.835 13.0267 111.415 14.24 110.575 15C109.748 15.76 108.588 16.14 107.095 16.14ZM118.354 16.14C117.287 16.14 116.401 15.9 115.694 15.42C115.001 14.9267 114.481 14.2733 114.134 13.46C113.787 12.6333 113.614 11.72 113.614 10.72C113.614 9.66667 113.801 8.73333 114.174 7.92C114.547 7.09333 115.101 6.44667 115.834 5.98C116.567 5.51333 117.481 5.28 118.574 5.28C118.947 5.28 119.314 5.32667 119.674 5.42C120.047 5.5 120.387 5.62667 120.694 5.8C121.014 5.96 121.287 6.17333 121.514 6.44V1.84H124.314V16H121.594L121.554 14.82C121.314 15.1267 121.021 15.38 120.674 15.58C120.341 15.7667 119.981 15.9067 119.594 16C119.207 16.0933 118.794 16.14 118.354 16.14ZM118.914 13.62C119.514 13.62 120.001 13.48 120.374 13.2C120.761 12.92 121.047 12.56 121.234 12.12C121.421 11.68 121.514 11.2067 121.514 10.7C121.514 10.18 121.421 9.70667 121.234 9.28C121.061 8.84 120.781 8.49333 120.394 8.24C120.021 7.97333 119.527 7.84 118.914 7.84C118.301 7.84 117.807 7.98 117.434 8.26C117.061 8.54 116.794 8.90667 116.634 9.36C116.487 9.8 116.414 10.2733 116.414 10.78C116.414 11.1533 116.454 11.5133 116.534 11.86C116.627 12.1933 116.774 12.4933 116.974 12.76C117.174 13.0267 117.434 13.24 117.754 13.4C118.074 13.5467 118.461 13.62 118.914 13.62ZM126.514 16V5.46H129.314V16H126.514ZM127.914 4.4C127.394 4.4 126.974 4.24667 126.654 3.94C126.334 3.62 126.174 3.21333 126.174 2.72C126.174 2.2 126.341 1.78 126.674 1.46C127.007 1.14 127.427 0.979999 127.934 0.979999C128.401 0.979999 128.801 1.14 129.134 1.46C129.481 1.76667 129.654 2.18 129.654 2.7C129.654 3.20667 129.487 3.62 129.154 3.94C128.834 4.24667 128.421 4.4 127.914 4.4ZM136.454 16.14C135.387 16.14 134.454 15.9267 133.654 15.5C132.854 15.06 132.234 14.44 131.794 13.64C131.354 12.8267 131.134 11.8667 131.134 10.76C131.134 9.62667 131.354 8.65333 131.794 7.84C132.247 7.01333 132.874 6.38 133.674 5.94C134.474 5.5 135.394 5.28 136.434 5.28C137.5 5.28 138.427 5.50667 139.214 5.96C140 6.41333 140.614 7.04667 141.054 7.86C141.494 8.67333 141.714 9.64667 141.714 10.78C141.714 11.8867 141.494 12.8467 141.054 13.66C140.627 14.46 140.02 15.0733 139.234 15.5C138.46 15.9267 137.534 16.14 136.454 16.14ZM136.414 13.58C137.027 13.58 137.52 13.4467 137.894 13.18C138.267 12.9133 138.534 12.5667 138.694 12.14C138.867 11.7 138.954 11.24 138.954 10.76C138.954 10.28 138.867 9.82 138.694 9.38C138.534 8.94 138.267 8.58 137.894 8.3C137.534 8.00667 137.04 7.86 136.414 7.86C135.814 7.86 135.327 8.00667 134.954 8.3C134.58 8.58 134.307 8.94 134.134 9.38C133.974 9.82 133.894 10.28 133.894 10.76C133.894 11.2533 133.974 11.7133 134.134 12.14C134.307 12.5667 134.58 12.9133 134.954 13.18C135.327 13.4467 135.814 13.58 136.414 13.58ZM147.626 16.14C147.133 16.14 146.626 16.0867 146.106 15.98C145.586 15.8733 145.106 15.6933 144.666 15.44C144.226 15.1733 143.853 14.82 143.546 14.38C143.24 13.9267 143.04 13.3667 142.946 12.7H145.786C145.866 12.94 146.006 13.1467 146.206 13.32C146.42 13.4933 146.66 13.62 146.926 13.7C147.206 13.78 147.486 13.82 147.766 13.82C147.953 13.82 148.14 13.8067 148.326 13.78C148.513 13.7533 148.686 13.7 148.846 13.62C149.006 13.54 149.133 13.44 149.226 13.32C149.32 13.1867 149.366 13.02 149.366 12.82C149.366 12.6067 149.3 12.44 149.166 12.32C149.033 12.2 148.846 12.1067 148.606 12.04C148.366 11.96 148.093 11.8867 147.786 11.82C147.24 11.7 146.653 11.5667 146.026 11.42C145.4 11.2733 144.86 11.06 144.406 10.78C144.22 10.6467 144.053 10.5 143.906 10.34C143.76 10.18 143.64 10 143.546 9.8C143.453 9.6 143.38 9.39333 143.326 9.18C143.273 8.95333 143.246 8.71333 143.246 8.46C143.246 7.88667 143.366 7.4 143.606 7C143.86 6.58667 144.193 6.25333 144.606 6C145.02 5.74667 145.48 5.56667 145.986 5.46C146.493 5.34 147.013 5.28 147.546 5.28C148.266 5.28 148.933 5.4 149.546 5.64C150.16 5.86667 150.666 6.22667 151.066 6.72C151.466 7.2 151.713 7.82667 151.806 8.6H149.126C149.073 8.30667 148.893 8.07333 148.586 7.9C148.28 7.71333 147.9 7.62 147.446 7.62C147.286 7.62 147.113 7.63333 146.926 7.66C146.753 7.68667 146.593 7.73333 146.446 7.8C146.3 7.86667 146.18 7.96 146.086 8.08C145.993 8.18667 145.946 8.33333 145.946 8.52C145.946 8.66667 145.986 8.8 146.066 8.92C146.16 9.04 146.286 9.14 146.446 9.22C146.62 9.3 146.826 9.37333 147.066 9.44C147.52 9.54667 147.973 9.64667 148.426 9.74C148.893 9.82 149.306 9.90667 149.666 10C150.106 10.0933 150.506 10.2467 150.866 10.46C151.24 10.6733 151.54 10.9667 151.766 11.34C152.006 11.7 152.126 12.1733 152.126 12.76C152.126 13.4267 151.993 13.98 151.726 14.42C151.46 14.8467 151.1 15.1867 150.646 15.44C150.206 15.6933 149.72 15.8733 149.186 15.98C148.666 16.0867 148.146 16.14 147.626 16.14Z" fill="#FB4E29"/>
</svg>
