<svg width="619" height="125" viewBox="0 0 619 125" fill="none" xmlns="http://www.w3.org/2000/svg">
<path d="M111.491 125H81.2241L30.6021 48.359V125H0.335054V0.745996H30.6021L81.2241 77.741V0.745996H111.491V125ZM251.136 61.28C258.334 62.814 264.116 66.413 268.482 72.077C272.848 77.623 275.031 83.995 275.031 91.193C275.031 101.577 271.373 109.837 264.057 115.973C256.859 121.991 246.77 125 233.79 125H175.911V0.745996H231.843C244.469 0.745996 254.322 3.63699 261.402 9.41899C268.6 15.201 272.199 23.048 272.199 32.96C272.199 40.276 270.252 46.353 266.358 51.191C262.582 56.029 257.508 59.392 251.136 61.28ZM206.178 51.014H226.002C230.958 51.014 234.734 49.952 237.33 47.828C240.044 45.586 241.401 42.341 241.401 38.093C241.401 33.845 240.044 30.6 237.33 28.358C234.734 26.116 230.958 24.995 226.002 24.995H206.178V51.014ZM228.48 100.574C233.554 100.574 237.448 99.453 240.162 97.211C242.994 94.851 244.41 91.488 244.41 87.122C244.41 82.756 242.935 79.334 239.985 76.856C237.153 74.378 233.2 73.139 228.126 73.139H206.178V100.574H228.48ZM442.682 0.745996V125H412.415V73.847H365.333V125H335.066V0.745996H365.333V49.421H412.415V0.745996H442.682ZM553.562 0.745996C566.66 0.745996 578.106 3.34199 587.9 8.53399C597.694 13.726 605.246 21.042 610.556 30.482C615.984 39.804 618.698 50.601 618.698 62.873C618.698 75.027 615.984 85.824 610.556 95.264C605.246 104.704 597.635 112.02 587.723 117.212C577.929 122.404 566.542 125 553.562 125H507.011V0.745996H553.562ZM551.615 98.804C563.061 98.804 571.97 95.677 578.342 89.423C584.714 83.169 587.9 74.319 587.9 62.873C587.9 51.427 584.714 42.518 578.342 36.146C571.97 29.774 563.061 26.588 551.615 26.588H537.278V98.804H551.615Z" fill="black"/>
</svg>
