<svg width="40" height="40" viewBox="0 0 40 40" fill="none" xmlns="http://www.w3.org/2000/svg">
<path d="M40 20C40 31.0457 31.0457 40 20 40C8.9543 40 0 31.0457 0 20C0 8.9543 8.9543 0 20 0C31.0457 0 40 8.9543 40 20Z" fill="#FB4E29"/>
<path d="M39.2806 19.9481C39.2806 30.5964 30.6484 39.2287 20 39.2287C9.35163 39.2287 0.719424 30.5964 0.719424 19.9481C0.719424 9.29971 9.35163 0.667505 20 0.667505C30.6484 0.667505 39.2806 9.29971 39.2806 19.9481Z" fill="#FB4E29"/>
<path fill-rule="evenodd" clip-rule="evenodd" d="M20 38.9409C30.4894 38.9409 38.9928 30.4375 38.9928 19.9481C38.9928 9.45864 30.4894 0.955275 20 0.955275C9.51056 0.955275 1.00719 9.45864 1.00719 19.9481C1.00719 30.4375 9.51056 38.9409 20 38.9409ZM20 39.2287C30.6484 39.2287 39.2806 30.5964 39.2806 19.9481C39.2806 9.29971 30.6484 0.667505 20 0.667505C9.35163 0.667505 0.719424 9.29971 0.719424 19.9481C0.719424 30.5964 9.35163 39.2287 20 39.2287Z" fill="white"/>
<path d="M3.10029 21.515L7.7046 21.515L7.70461 18.5024L7.00542 18.5024L7.00541 20.6809L5.74867 20.6809L5.74867 18.6756L5.04948 18.6755L5.04948 20.6809H3.79948L3.79948 18.5204L3.10029 18.5204L3.10029 21.515Z" fill="white"/>
<path d="M9.2494 13.6913L4.99558 11.9293L4.6781 12.6957L7.57769 13.8968L7.5622 13.9342L3.83323 14.7354L3.5476 15.425L7.80142 17.187L8.12062 16.4164L5.22311 15.2162L5.23774 15.1809L8.96549 14.3768L9.2494 13.6913Z" fill="white"/>
<path d="M10.4992 7.64831L9.90469 8.24287C9.79023 8.16232 9.6726 8.10721 9.55178 8.07754C9.4299 8.0468 9.30855 8.03885 9.18773 8.05369C9.06691 8.06853 8.9498 8.10615 8.8364 8.16656C8.723 8.22485 8.61649 8.3038 8.51687 8.40343C8.33988 8.58041 8.22754 8.78178 8.17985 9.00752C8.13109 9.2322 8.15335 9.46853 8.24661 9.71653C8.33882 9.96347 8.50733 10.2093 8.75214 10.4542C9.0012 10.7032 9.24972 10.8744 9.49772 10.9676C9.74572 11.0588 9.98099 11.08 10.2036 11.0312C10.4261 10.9804 10.6254 10.867 10.8013 10.691C10.8988 10.5935 10.9772 10.4897 11.0366 10.3795C11.0959 10.2671 11.1341 10.1516 11.151 10.0329C11.169 9.91313 11.1643 9.79285 11.1367 9.67203C11.1102 9.55015 11.0583 9.43251 10.9809 9.31911L11.5787 8.72774C11.7111 8.90472 11.8081 9.09814 11.8696 9.30798C11.9321 9.51677 11.956 9.73244 11.9411 9.955C11.9252 10.1765 11.8669 10.3959 11.7662 10.6131C11.6645 10.8293 11.5167 11.0344 11.3227 11.2284C11.0366 11.5145 10.7149 11.7037 10.3578 11.7959C10.0006 11.8881 9.63231 11.8738 9.2529 11.753C8.87349 11.6321 8.50891 11.3969 8.15918 11.0471C7.80838 10.6963 7.57363 10.3312 7.45493 9.95181C7.33518 9.57133 7.3214 9.20252 7.4136 8.84536C7.50581 8.48821 7.69392 8.16761 7.97796 7.88359C8.15918 7.70236 8.35313 7.55929 8.55979 7.45436C8.76646 7.34944 8.98001 7.28533 9.20045 7.26201C9.41983 7.23763 9.63974 7.25724 9.86018 7.32083C10.0806 7.3823 10.2936 7.49146 10.4992 7.64831Z" fill="white"/>
<path d="M12.2061 4.76645L13.9681 9.02028L16.6122 7.92505L16.3447 7.27908L14.4712 8.05512L12.9767 4.44726L12.2061 4.76645Z" fill="white"/>
<path fill-rule="evenodd" clip-rule="evenodd" d="M18.75 7.50873H17.8597L19.4807 2.90441L20.5104 2.90441L22.1336 7.50872H21.2433L20.8618 6.37338L19.1308 6.37338L18.75 7.50873ZM20.0135 3.84865L20.6367 5.70342L19.3555 5.70342L19.9775 3.84865L20.0135 3.84865Z" fill="white"/>
<path d="M25.0914 7.50456L25.3712 3.69776L24.5258 3.3476L24.2614 8.22174L25.2127 8.61578L28.4743 4.98312L27.6269 4.6321L25.135 7.52262L25.0914 7.50456Z" fill="white"/>
<path d="M27.6746 9.97877L30.9303 6.72301L33.0478 8.84051L32.5534 9.33492L31.0257 7.8072L30.1418 8.69109L31.5598 10.1091L31.0654 10.6035L29.6474 9.1855L28.7587 10.0742L30.2992 11.6146L29.8048 12.109L27.6746 9.97877Z" fill="white"/>
<path d="M31.4301 14.7064C31.3788 14.8331 31.3792 14.9594 31.4314 15.0855C31.4652 15.1672 31.5163 15.2336 31.5846 15.2848C31.6548 15.3369 31.7331 15.3693 31.8196 15.3822C31.9066 15.3964 31.9926 15.3867 32.0776 15.3531C32.2017 15.3001 32.2891 15.2096 32.3399 15.0815C32.3912 14.9548 32.3916 14.8305 32.3412 14.7086C32.289 14.5826 32.1999 14.493 32.074 14.4397C31.9481 14.3864 31.8231 14.3862 31.6991 14.4392C31.5711 14.4906 31.4815 14.5797 31.4301 14.7064Z" fill="white"/>
<path d="M35.7914 20.609C35.9877 20.588 36.1406 20.4996 36.25 20.3437C36.3594 20.1893 36.4141 19.9885 36.4141 19.7412C36.4141 19.5673 36.3879 19.4182 36.3354 19.2938C36.283 19.1694 36.2118 19.0742 36.1219 19.0083C36.0319 18.9423 35.9293 18.9086 35.8139 18.9071C35.7179 18.9071 35.6348 18.9288 35.5643 18.9723C35.4939 19.0173 35.4339 19.078 35.3845 19.1544C35.3365 19.2309 35.296 19.3155 35.2631 19.4085C35.2301 19.5014 35.2024 19.5951 35.1799 19.6895L35.072 20.1211C35.0315 20.295 34.9768 20.4621 34.9078 20.6225C34.8389 20.7844 34.752 20.929 34.6471 21.0564C34.5421 21.1853 34.4155 21.2872 34.2671 21.3622C34.1187 21.4371 33.9449 21.4746 33.7455 21.4746C33.4757 21.4746 33.2382 21.4056 33.0328 21.2677C32.829 21.1298 32.6694 20.9305 32.554 20.6697C32.4401 20.4104 32.3831 20.0964 32.3831 19.7277C32.3831 19.3695 32.4386 19.0585 32.5495 18.7947C32.6604 18.5324 32.8223 18.3271 33.0351 18.1787C33.2479 18.0318 33.5072 17.9524 33.813 17.9404L33.813 18.761C33.6526 18.773 33.5192 18.8224 33.4128 18.9094C33.3064 18.9963 33.2269 19.1095 33.1745 19.2488C33.122 19.3897 33.0958 19.5471 33.0958 19.721C33.0958 19.9023 33.1228 20.0612 33.1767 20.1976C33.2322 20.3355 33.3086 20.4434 33.406 20.5213C33.505 20.5993 33.6204 20.639 33.7523 20.6405C33.8722 20.639 33.9711 20.6038 34.049 20.5348C34.1285 20.4659 34.1944 20.3692 34.2469 20.2448C34.3008 20.1219 34.3488 19.978 34.3908 19.8131L34.5256 19.2893C34.6231 18.9101 34.7707 18.6104 34.9685 18.39C35.1679 18.1712 35.4324 18.0618 35.7622 18.0618C36.0334 18.0618 36.271 18.1352 36.4748 18.2821C36.6787 18.4305 36.8368 18.6321 36.9492 18.8869C37.0631 19.1417 37.1201 19.4302 37.1201 19.7524C37.1201 20.0792 37.0631 20.3654 36.9492 20.6112C36.8368 20.8586 36.6802 21.0526 36.4793 21.1935C36.28 21.3344 36.0507 21.4071 35.7914 21.4116V20.609Z" fill="white"/>
<path d="M36.522 24.5523L35.876 24.2848L35.3314 25.5996L31.7236 24.1051L31.407 24.8695L35.0148 26.3639L34.4702 27.6787L35.1162 27.9463L36.522 24.5523Z" fill="white"/>
<path d="M31.5422 32.4305L30.9525 33.0203L28.8254 30.8933C28.5923 30.6601 28.4423 30.3999 28.3755 30.1127C28.3077 29.8266 28.3231 29.5346 28.4216 29.2368C28.5213 28.94 28.7035 28.6592 28.9685 28.3942C29.2345 28.1282 29.5159 27.9454 29.8126 27.8458C30.1104 27.7472 30.4024 27.7318 30.6886 27.7997C30.9747 27.8675 31.2344 28.018 31.4675 28.2512L33.5946 30.3782L33.0048 30.968L30.927 28.8902C30.7914 28.7546 30.6409 28.6634 30.4755 28.6168C30.3092 28.5712 30.1412 28.5728 29.9716 28.6216C29.8031 28.6714 29.6441 28.771 29.4947 28.9204C29.3453 29.0699 29.2456 29.2288 29.1958 29.3973C29.146 29.568 29.1444 29.736 29.1911 29.9013C29.2377 30.0666 29.3288 30.2171 29.4645 30.3528L31.5422 32.4305Z" fill="white"/>
<path fill-rule="evenodd" clip-rule="evenodd" d="M26.721 30.5252L25.2795 31.1223C24.8474 31.3012 24.513 31.5395 24.2761 31.8372C24.0379 32.1354 23.903 32.4776 23.8716 32.8638C23.8387 33.2505 23.9141 33.6654 24.0976 34.1085C24.2806 34.5503 24.5194 34.8958 24.8142 35.1453C25.1089 35.3947 25.4436 35.5408 25.8182 35.5835C26.192 35.6282 26.5901 35.5631 27.0124 35.3882L28.483 34.779L26.721 30.5252ZM25.593 31.7735L26.2265 31.5111L27.4362 34.4315L26.7798 34.7034C26.4918 34.8227 26.2285 34.8685 25.9899 34.8407C25.7505 34.815 25.5362 34.7148 25.347 34.54C25.1584 34.3667 24.9967 34.1173 24.862 33.7919C24.7272 33.4665 24.6646 33.1745 24.6742 32.9158C24.6845 32.6585 24.7659 32.4341 24.9186 32.2427C25.0719 32.0527 25.2967 31.8963 25.593 31.7735Z" fill="white"/>
<path d="M20.5598 32.3765H21.062L21.062 31.8369L19.1584 31.8369L19.1584 32.3765H19.7258L19.7258 36.3218H19.1584V36.8614H21.062V36.3218H20.5598L20.5598 32.3765Z" fill="white"/>
<path fill-rule="evenodd" clip-rule="evenodd" d="M13.4465 31.6413C13.1394 31.8969 12.891 32.254 12.7011 32.7123C12.5113 33.1706 12.4348 33.5981 12.4717 33.9946C12.5067 34.3919 12.6358 34.7382 12.859 35.0335C13.0809 35.3282 13.3781 35.5527 13.7506 35.707C14.1231 35.8612 14.4926 35.9129 14.8593 35.862C15.2245 35.8105 15.5607 35.6569 15.8677 35.4013C16.1728 35.1464 16.4203 34.7898 16.6102 34.3315C16.7995 33.8745 16.8766 33.4474 16.8417 33.05C16.8047 32.6535 16.6756 32.3072 16.4543 32.0111C16.2311 31.7159 15.9332 31.4911 15.5608 31.3368C15.1883 31.1825 14.8194 31.1311 14.4541 31.1826C14.0875 31.2335 13.7516 31.3864 13.4465 31.6413ZM13.2894 33.9123C13.2801 33.6489 13.3422 33.3558 13.4759 33.0332C13.6095 32.7106 13.7731 32.4587 13.9665 32.2776C14.158 32.0974 14.3661 31.9865 14.591 31.945C14.8152 31.9049 15.043 31.9327 15.2743 32.0285C15.5055 32.1243 15.6862 32.2656 15.8164 32.4526C15.9461 32.6409 16.0155 32.8668 16.0249 33.1303C16.0322 33.3945 15.9691 33.6879 15.8354 34.0106C15.7018 34.3332 15.5392 34.5846 15.3478 34.7649C15.1543 34.946 14.9455 35.0566 14.7212 35.0967C14.4964 35.1382 14.2683 35.1111 14.0371 35.0153C13.8058 34.9195 13.6254 34.7774 13.4957 34.5891C13.3655 34.4021 13.2967 34.1765 13.2894 33.9123Z" fill="white"/>
<path d="M8.45451 30.4799C8.33051 30.6335 8.28494 30.8042 8.3178 30.9918C8.34959 31.1783 8.45292 31.359 8.62779 31.5338C8.75073 31.6568 8.87473 31.7437 8.99978 31.7946C9.12484 31.8454 9.24248 31.8624 9.3527 31.8454C9.46292 31.8285 9.55937 31.7797 9.64203 31.6992C9.70986 31.6314 9.75331 31.5572 9.77239 31.4766C9.79041 31.395 9.78988 31.3097 9.7708 31.2207C9.75066 31.1327 9.7194 31.0442 9.677 30.9552C9.63461 30.8662 9.58798 30.7803 9.53711 30.6977L9.30819 30.3161C9.21387 30.1646 9.13438 30.0077 9.06973 29.8456C9.00402 29.6824 8.96322 29.5186 8.94732 29.3543C8.93037 29.189 8.94785 29.0274 8.99979 28.8695C9.05172 28.7116 9.14816 28.5621 9.28912 28.4212C9.47988 28.2304 9.69661 28.1112 9.93931 28.0635C10.1809 28.0169 10.4348 28.0449 10.7008 28.1477C10.9647 28.2505 11.227 28.4323 11.4877 28.693C11.741 28.9463 11.9217 29.2054 12.0298 29.4704C12.1368 29.7343 12.1676 29.9939 12.122 30.2494C12.0754 30.5037 11.9482 30.7432 11.7405 30.9679L11.1602 30.3877C11.2651 30.2658 11.3245 30.1365 11.3383 29.9998C11.352 29.8631 11.3282 29.7269 11.2667 29.5912C11.2042 29.4545 11.1115 29.3247 10.9885 29.2017C10.8603 29.0735 10.7289 28.9802 10.5943 28.9219C10.4576 28.8637 10.3272 28.8414 10.2032 28.8552C10.0781 28.87 9.96845 28.9235 9.87413 29.0157C9.79041 29.1016 9.74536 29.1964 9.73901 29.3003C9.73159 29.4052 9.75331 29.5202 9.80418 29.6453C9.85293 29.7703 9.92076 29.906 10.0077 30.0522L10.2827 30.518C10.4819 30.855 10.5895 31.1714 10.6054 31.4671C10.6192 31.7628 10.5095 32.0272 10.2763 32.2603C10.0845 32.4522 9.86459 32.5682 9.6166 32.6085C9.36754 32.6477 9.11318 32.617 8.85353 32.5163C8.59282 32.4167 8.34853 32.2529 8.12067 32.0251C7.88963 31.794 7.72748 31.5513 7.63422 31.297C7.53883 31.0426 7.51234 30.7946 7.55473 30.553C7.59606 30.3124 7.70681 30.0989 7.88698 29.9123L8.45451 30.4799Z" fill="white"/>
<path d="M8.7273 25.0594C8.77864 24.9327 8.77821 24.8064 8.72602 24.6804C8.69218 24.5987 8.64112 24.5322 8.57286 24.481C8.50264 24.429 8.42431 24.3965 8.33787 24.3837C8.25085 24.3694 8.16483 24.3791 8.07978 24.4127C7.95573 24.4657 7.86833 24.5562 7.81756 24.6843C7.76622 24.8111 7.76579 24.9353 7.81626 25.0572C7.86845 25.1832 7.9575 25.2729 8.08341 25.3262C8.20931 25.3795 8.33429 25.3796 8.45834 25.3266C8.5863 25.2752 8.67596 25.1862 8.7273 25.0594Z" fill="white"/>
</svg>
