<svg width="48" height="48" viewBox="0 0 48 48" fill="none" xmlns="http://www.w3.org/2000/svg">
<path d="M7.96875 8.4375C8.7454 8.4375 9.375 7.8079 9.375 7.03125C9.375 6.2546 8.7454 5.625 7.96875 5.625C7.1921 5.625 6.5625 6.2546 6.5625 7.03125C6.5625 7.8079 7.1921 8.4375 7.96875 8.4375Z" fill="black"/>
<path d="M39.8438 30C40.6204 30 41.25 29.3704 41.25 28.5938C41.25 27.8171 40.6204 27.1875 39.8438 27.1875C39.0671 27.1875 38.4375 27.8171 38.4375 28.5938C38.4375 29.3704 39.0671 30 39.8438 30Z" fill="black"/>
<path d="M3.75 21.5625C4.26777 21.5625 4.6875 21.1428 4.6875 20.625C4.6875 20.1072 4.26777 19.6875 3.75 19.6875C3.23223 19.6875 2.8125 20.1072 2.8125 20.625C2.8125 21.1428 3.23223 21.5625 3.75 21.5625Z" fill="black"/>
<path d="M20.625 5.625C21.1428 5.625 21.5625 5.20527 21.5625 4.6875C21.5625 4.16973 21.1428 3.75 20.625 3.75C20.1072 3.75 19.6875 4.16973 19.6875 4.6875C19.6875 5.20527 20.1072 5.625 20.625 5.625Z" fill="black"/>
<path d="M39.375 22.5C39.8928 22.5 40.3125 22.0803 40.3125 21.5625C40.3125 21.0447 39.8928 20.625 39.375 20.625C38.8572 20.625 38.4375 21.0447 38.4375 21.5625C38.4375 22.0803 38.8572 22.5 39.375 22.5Z" fill="black"/>
<path d="M15 44.0625C15.5178 44.0625 15.9375 43.6428 15.9375 43.125C15.9375 42.6072 15.5178 42.1875 15 42.1875C14.4822 42.1875 14.0625 42.6072 14.0625 43.125C14.0625 43.6428 14.4822 44.0625 15 44.0625Z" fill="black"/>
<path d="M15.2931 36.3371C15.0445 36.3371 14.806 36.2383 14.6302 36.0625L8.00113 29.4334C7.63504 29.0673 7.63504 28.4736 8.00113 28.1074L33.5232 2.58532C35.7165 0.392133 39.285 0.392133 41.4782 2.58532C43.6714 4.7786 43.6714 8.3471 41.4782 10.5404L15.956 36.0625C15.7802 36.2383 15.5417 36.3371 15.2931 36.3371ZM9.98985 28.7704L15.2931 34.0737L40.1523 9.21448C41.6145 7.75235 41.6145 5.37326 40.1523 3.91123C38.6902 2.4492 36.3111 2.4491 34.8491 3.91123L9.98985 28.7704Z" fill="black"/>
<path d="M4.68566 40.3145C4.44041 40.3145 4.20097 40.2182 4.02266 40.0399C3.78191 39.7991 3.69059 39.4468 3.78416 39.1194L6.43587 29.8387C6.47966 29.6854 6.56178 29.546 6.67437 29.4333L8.00019 28.1075C8.36628 27.7415 8.95991 27.7416 9.326 28.1075L15.9551 34.7366C16.1308 34.9125 16.2297 35.1509 16.2297 35.3995C16.2297 35.6482 16.1308 35.8867 15.9551 36.0624L14.6293 37.3883C14.5166 37.5008 14.3772 37.583 14.2239 37.6268L4.94309 40.2784C4.85816 40.3027 4.77153 40.3145 4.68566 40.3145ZM8.17194 30.5873L6.05056 38.0119L13.4752 35.8906L13.9663 35.3995L8.66309 30.0962L8.17194 30.5873Z" fill="black"/>
<path d="M38.4944 13.1349C38.2544 13.1349 38.0146 13.0434 37.8315 12.8603L31.2023 6.23128C30.8362 5.86518 30.8362 5.27156 31.2023 4.90546C31.5685 4.53937 32.1619 4.53928 32.5282 4.90546L39.1574 11.5345C39.5235 11.9006 39.5235 12.4942 39.1574 12.8604C38.9743 13.0433 38.7344 13.1349 38.4944 13.1349Z" fill="black"/>
<path d="M35.842 15.7863C35.602 15.7863 35.3622 15.6948 35.1791 15.5117L28.55 8.88264C28.1839 8.51655 28.1839 7.92293 28.55 7.55683C28.9161 7.19074 29.5096 7.19064 29.8759 7.55683L36.505 14.1859C36.8711 14.552 36.8711 15.1456 36.505 15.5118C36.3218 15.6948 36.082 15.7863 35.842 15.7863Z" fill="black"/>
<path d="M33.1916 18.4387C32.9516 18.4387 32.7118 18.3471 32.5287 18.1641L25.8996 11.535C25.5335 11.1689 25.5335 10.5753 25.8996 10.2091C26.2658 9.84307 26.8592 9.84307 27.2255 10.2091L33.8546 16.8382C34.2207 17.2043 34.2207 17.7979 33.8546 18.1641C33.6714 18.3471 33.4316 18.4387 33.1916 18.4387Z" fill="black"/>
<path d="M30.5393 21.0901C30.2993 21.0901 30.0595 20.9985 29.8764 20.8155L23.2472 14.1863C22.8811 13.8202 22.8811 13.2266 23.2472 12.8604C23.6134 12.4944 24.2069 12.4945 24.5731 12.8604L31.2023 19.4896C31.5684 19.8557 31.5684 20.4493 31.2023 20.8155C31.0191 20.9985 30.7792 21.0901 30.5393 21.0901Z" fill="black"/>
<path d="M27.8869 23.7415C27.6469 23.7415 27.4071 23.6499 27.224 23.4669L20.5949 16.8377C20.2288 16.4716 20.2288 15.878 20.5949 15.5118C20.961 15.1458 21.5546 15.1458 21.9208 15.5118L28.5499 22.141C28.916 22.5071 28.916 23.1007 28.5499 23.4669C28.3668 23.65 28.1269 23.7415 27.8869 23.7415Z" fill="black"/>
<path d="M11.9785 33.0222C11.7386 33.0222 11.4986 32.9306 11.3156 32.7476C10.9495 32.3815 10.9495 31.7879 11.3156 31.4217L23.911 18.8263C24.2771 18.4602 24.8706 18.4602 25.2369 18.8263C25.603 19.1924 25.603 19.786 25.2369 20.1522L12.6414 32.7477C12.4583 32.9307 12.2184 33.0222 11.9785 33.0222Z" fill="black"/>
<path d="M40.3131 45.9378H25.3122C24.7945 45.9378 24.3747 45.518 24.3747 45.0003C24.3747 44.4826 24.7945 44.0628 25.3122 44.0628H40.3131C41.3465 44.0628 42.1872 43.222 42.1872 42.1886C42.1872 41.1552 41.3465 40.3145 40.3131 40.3145H4.68555C4.16777 40.3145 3.74805 39.8946 3.74805 39.377C3.74805 38.8593 4.16777 38.4395 4.68555 38.4395H40.3131C42.3804 38.4395 44.0622 40.1213 44.0622 42.1886C44.0622 44.2559 42.3804 45.9378 40.3131 45.9378Z" fill="black"/>
</svg>
