<svg width="526" height="503" viewBox="0 0 526 503" fill="none" xmlns="http://www.w3.org/2000/svg">
<path d="M346.389 176.962C346.389 81.9898 269.325 4.99988 174.263 4.99988C79.2002 4.99988 2.13672 81.9898 2.13672 176.962C2.13672 271.933 79.2002 348.923 174.263 348.923C269.325 348.923 346.389 271.933 346.389 176.962Z" stroke="#000103" stroke-width="2"/>
<path d="M523.863 175.894C523.863 80.3318 446.321 2.86377 350.668 2.86377C255.015 2.86377 177.473 80.3318 177.473 175.894C177.473 271.455 255.015 348.923 350.668 348.923C446.321 348.923 523.863 271.455 523.863 175.894Z" stroke="#000103" stroke-width="2"/>
<path d="M523.863 327.562C523.863 232 446.321 154.532 350.668 154.532C255.015 154.532 177.473 232 177.473 327.562C177.473 423.123 255.015 500.591 350.668 500.591C446.321 500.591 523.863 423.123 523.863 327.562Z" stroke="#000103" stroke-width="2"/>
<path d="M348.527 327.562C348.527 232 270.985 154.532 175.332 154.532C79.6788 154.532 2.13672 232 2.13672 327.562C2.13672 423.123 79.6788 500.591 175.332 500.591C270.985 500.591 348.527 423.123 348.527 327.562Z" stroke="#000103" stroke-width="2"/>
<path fill-rule="evenodd" clip-rule="evenodd" d="M262.866 175.894C292.732 193.154 317.031 218.963 332.407 249.972C317.431 282.352 292.792 309.355 262.186 327.295C232.05 309.697 207.643 283.373 192.438 251.792C207.757 219.973 232.418 193.49 262.866 175.894Z" fill="#FB4E29"/>
<mask id="mask0_308_916" style="mask-type:luminance" maskUnits="userSpaceOnUse" x="192" y="175" width="141" height="153">
<path fill-rule="evenodd" clip-rule="evenodd" d="M262.866 175.894C292.732 193.154 317.031 218.963 332.407 249.972C317.431 282.352 292.792 309.355 262.186 327.295C232.05 309.697 207.643 283.373 192.438 251.792C207.757 219.973 232.418 193.49 262.866 175.894Z" fill="white"/>
</mask>
<g mask="url(#mask0_308_916)">
<path d="M262.865 175.894L265.008 172.195L262.865 170.958L260.725 172.195L262.865 175.894ZM332.406 249.972L336.287 251.764L337.147 249.908L336.238 248.077L332.406 249.972ZM262.185 327.295L260.028 330.984L262.189 332.246L264.349 330.979L262.185 327.295ZM192.437 251.792L188.583 249.94L187.691 251.792L188.583 253.644L192.437 251.792ZM260.725 179.592C289.864 196.433 313.573 221.616 328.575 251.869L336.238 248.077C320.486 216.31 295.599 189.875 265.008 172.195L260.725 179.592ZM264.349 330.979C295.704 312.602 320.943 284.939 336.287 251.764L328.523 248.179C313.915 279.763 289.879 306.108 260.021 323.61L264.349 330.979ZM188.583 253.644C204.16 285.996 229.161 312.959 260.028 330.984L264.343 323.605C234.94 306.437 211.125 280.75 196.29 249.94L188.583 253.644ZM260.725 172.195C229.535 190.22 204.277 217.344 188.583 249.94L196.29 253.644C211.236 222.601 235.297 196.761 265.008 179.592L260.725 172.195Z" fill="#FB4E29"/>
</g>
<path d="M221.074 256.856C219.911 256.856 218.909 256.61 218.066 256.12C217.234 255.629 216.594 254.952 216.146 254.088C215.709 253.213 215.49 252.21 215.49 251.08C215.49 249.928 215.714 248.914 216.162 248.04C216.621 247.165 217.271 246.488 218.114 246.008C218.957 245.517 219.959 245.272 221.122 245.272C222.274 245.272 223.266 245.512 224.098 245.992C224.93 246.472 225.57 247.144 226.018 248.008C226.477 248.872 226.706 249.88 226.706 251.032C226.706 252.162 226.477 253.17 226.018 254.056C225.57 254.93 224.925 255.618 224.082 256.12C223.25 256.61 222.247 256.856 221.074 256.856ZM221.106 254.712C221.874 254.712 222.498 254.536 222.978 254.184C223.458 253.832 223.805 253.378 224.018 252.824C224.242 252.269 224.354 251.688 224.354 251.08C224.354 250.632 224.29 250.189 224.162 249.752C224.045 249.314 223.858 248.92 223.602 248.568C223.346 248.216 223.01 247.938 222.594 247.736C222.178 247.522 221.677 247.416 221.09 247.416C220.333 247.416 219.714 247.592 219.234 247.944C218.754 248.285 218.397 248.733 218.162 249.288C217.938 249.842 217.826 250.434 217.826 251.064C217.826 251.693 217.938 252.285 218.162 252.84C218.397 253.394 218.754 253.848 219.234 254.2C219.725 254.541 220.349 254.712 221.106 254.712ZM233.209 256.856C232.1 256.856 231.188 256.648 230.473 256.232C229.769 255.816 229.246 255.218 228.905 254.44C228.574 253.661 228.409 252.728 228.409 251.64V245.4H230.697V251.752C230.697 252.264 230.772 252.749 230.921 253.208C231.081 253.656 231.342 254.024 231.705 254.312C232.078 254.589 232.585 254.728 233.225 254.728C233.876 254.728 234.377 254.589 234.729 254.312C235.081 254.024 235.326 253.65 235.465 253.192C235.604 252.733 235.673 252.253 235.673 251.752V245.4H237.961V251.64C237.961 252.717 237.796 253.65 237.465 254.44C237.134 255.218 236.617 255.816 235.913 256.232C235.209 256.648 234.308 256.856 233.209 256.856ZM240.286 256.728V245.4H244.846C245.411 245.4 245.95 245.458 246.462 245.576C246.985 245.682 247.454 245.869 247.87 246.136C248.286 246.402 248.611 246.776 248.846 247.256C249.091 247.725 249.214 248.328 249.214 249.064C249.214 249.608 249.123 250.098 248.942 250.536C248.761 250.973 248.494 251.346 248.142 251.656C247.79 251.965 247.369 252.205 246.878 252.376L249.39 256.728H246.814L244.606 252.744H242.574V256.728H240.286ZM242.574 250.712H244.686C245.017 250.712 245.315 250.685 245.582 250.632C245.859 250.568 246.094 250.472 246.286 250.344C246.489 250.216 246.643 250.045 246.75 249.832C246.867 249.618 246.926 249.357 246.926 249.048C246.937 248.653 246.851 248.349 246.67 248.136C246.499 247.912 246.254 247.757 245.934 247.672C245.625 247.576 245.257 247.528 244.83 247.528H242.574V250.712ZM255.833 256.728V245.4H263.993V247.528H258.121V250.088H263.161V252.136H258.121V254.616H263.993V256.728H255.833ZM268.17 256.728V247.528H264.714V245.4H273.946V247.528H270.474V256.728H268.17ZM275.286 256.728V245.4H277.574V250.088H282.47V245.4H284.774V256.728H282.47V252.2H277.574V256.728H275.286ZM292.137 256.856C290.974 256.856 289.971 256.61 289.129 256.12C288.297 255.629 287.657 254.952 287.209 254.088C286.771 253.213 286.553 252.21 286.553 251.08C286.553 249.928 286.777 248.914 287.225 248.04C287.683 247.165 288.334 246.488 289.177 246.008C290.019 245.517 291.022 245.272 292.185 245.272C293.337 245.272 294.329 245.512 295.161 245.992C295.993 246.472 296.633 247.144 297.081 248.008C297.539 248.872 297.769 249.88 297.769 251.032C297.769 252.162 297.539 253.17 297.081 254.056C296.633 254.93 295.987 255.618 295.145 256.12C294.313 256.61 293.31 256.856 292.137 256.856ZM292.169 254.712C292.937 254.712 293.561 254.536 294.041 254.184C294.521 253.832 294.867 253.378 295.081 252.824C295.305 252.269 295.417 251.688 295.417 251.08C295.417 250.632 295.353 250.189 295.225 249.752C295.107 249.314 294.921 248.92 294.665 248.568C294.409 248.216 294.073 247.938 293.657 247.736C293.241 247.522 292.739 247.416 292.153 247.416C291.395 247.416 290.777 247.592 290.297 247.944C289.817 248.285 289.459 248.733 289.225 249.288C289.001 249.842 288.889 250.434 288.889 251.064C288.889 251.693 289.001 252.285 289.225 252.84C289.459 253.394 289.817 253.848 290.297 254.2C290.787 254.541 291.411 254.712 292.169 254.712ZM303.995 256.856C303.206 256.856 302.47 256.733 301.787 256.488C301.115 256.242 300.55 255.853 300.091 255.32C299.643 254.786 299.361 254.098 299.243 253.256H301.579C301.675 253.618 301.851 253.912 302.107 254.136C302.363 254.349 302.667 254.504 303.019 254.6C303.382 254.696 303.761 254.744 304.155 254.744C304.454 254.744 304.747 254.706 305.035 254.632C305.323 254.557 305.558 254.429 305.739 254.248C305.931 254.066 306.027 253.821 306.027 253.512C306.027 253.277 305.974 253.085 305.867 252.936C305.771 252.786 305.627 252.669 305.435 252.584C305.254 252.488 305.03 252.402 304.763 252.328C304.539 252.264 304.305 252.21 304.059 252.168C303.825 252.125 303.59 252.072 303.355 252.008C303.131 251.944 302.913 251.869 302.699 251.784C302.294 251.677 301.905 251.549 301.531 251.4C301.158 251.24 300.827 251.042 300.539 250.808C300.251 250.562 300.022 250.258 299.851 249.896C299.691 249.533 299.611 249.096 299.611 248.584C299.611 248.029 299.702 247.56 299.883 247.176C300.075 246.792 300.326 246.477 300.635 246.232C300.955 245.976 301.307 245.778 301.691 245.64C302.086 245.501 302.481 245.405 302.875 245.352C303.27 245.298 303.643 245.272 303.995 245.272C304.731 245.272 305.393 245.4 305.979 245.656C306.566 245.912 307.046 246.296 307.419 246.808C307.793 247.32 308.006 247.965 308.059 248.744H305.835C305.793 248.424 305.675 248.162 305.483 247.96C305.291 247.757 305.046 247.608 304.747 247.512C304.459 247.416 304.134 247.368 303.771 247.368C303.537 247.368 303.307 247.389 303.083 247.432C302.859 247.474 302.657 247.544 302.475 247.64C302.305 247.725 302.166 247.842 302.059 247.992C301.963 248.141 301.915 248.322 301.915 248.536C301.915 248.749 301.974 248.936 302.091 249.096C302.209 249.245 302.379 249.378 302.603 249.496C302.838 249.602 303.11 249.704 303.419 249.8C303.739 249.906 304.075 249.992 304.427 250.056C304.779 250.12 305.115 250.205 305.435 250.312C305.841 250.418 306.219 250.546 306.571 250.696C306.923 250.834 307.233 251.016 307.499 251.24C307.766 251.453 307.974 251.73 308.123 252.072C308.273 252.402 308.347 252.813 308.347 253.304C308.347 253.954 308.225 254.509 307.979 254.968C307.745 255.416 307.419 255.778 307.003 256.056C306.598 256.333 306.134 256.536 305.611 256.664C305.089 256.792 304.55 256.856 303.995 256.856Z" fill="#FDFDFD"/>
<path d="M58.38 99.6875V102.428H52.66V105.388H56.94V108.048H52.66V113.728H49.24V99.6875H58.38ZM63.5375 99.6875V108.088C63.5375 108.928 63.7442 109.574 64.1575 110.028C64.5708 110.481 65.1775 110.708 65.9775 110.708C66.7775 110.708 67.3908 110.481 67.8175 110.028C68.2442 109.574 68.4575 108.928 68.4575 108.088V99.6875H71.8775V108.068C71.8775 109.321 71.6108 110.381 71.0775 111.248C70.5442 112.114 69.8242 112.768 68.9175 113.208C68.0242 113.648 67.0242 113.868 65.9175 113.868C64.8108 113.868 63.8175 113.654 62.9375 113.228C62.0708 112.788 61.3842 112.134 60.8775 111.268C60.3708 110.388 60.1175 109.321 60.1175 108.068V99.6875H63.5375ZM86.8391 113.728H83.4191L77.6991 105.068V113.728H74.2791V99.6875H77.6991L83.4191 108.388V99.6875H86.8391V113.728ZM88.7381 106.688C88.7381 105.301 89.0381 104.068 89.6381 102.988C90.2381 101.894 91.0715 101.048 92.1381 100.448C93.2181 99.8342 94.4381 99.5275 95.7981 99.5275C97.4648 99.5275 98.8915 99.9675 100.078 100.848C101.265 101.728 102.058 102.928 102.458 104.448H98.6981C98.4181 103.861 98.0181 103.414 97.4981 103.108C96.9915 102.801 96.4115 102.648 95.7581 102.648C94.7048 102.648 93.8515 103.014 93.1981 103.748C92.5448 104.481 92.2181 105.461 92.2181 106.688C92.2181 107.914 92.5448 108.894 93.1981 109.628C93.8515 110.361 94.7048 110.728 95.7581 110.728C96.4115 110.728 96.9915 110.574 97.4981 110.268C98.0181 109.961 98.4181 109.514 98.6981 108.928H102.458C102.058 110.448 101.265 111.648 100.078 112.528C98.8915 113.394 97.4648 113.828 95.7981 113.828C94.4381 113.828 93.2181 113.528 92.1381 112.928C91.0715 112.314 90.2381 111.468 89.6381 110.388C89.0381 109.308 88.7381 108.074 88.7381 106.688ZM114.653 99.6875V102.428H110.933V113.728H107.513V102.428H103.793V99.6875H114.653ZM119.789 99.6875V113.728H116.369V99.6875H119.789ZM128.907 113.868C127.587 113.868 126.374 113.561 125.267 112.948C124.174 112.334 123.301 111.481 122.647 110.388C122.007 109.281 121.687 108.041 121.687 106.668C121.687 105.294 122.007 104.061 122.647 102.968C123.301 101.874 124.174 101.021 125.267 100.408C126.374 99.7942 127.587 99.4875 128.907 99.4875C130.227 99.4875 131.434 99.7942 132.527 100.408C133.634 101.021 134.501 101.874 135.127 102.968C135.767 104.061 136.087 105.294 136.087 106.668C136.087 108.041 135.767 109.281 135.127 110.388C134.487 111.481 133.621 112.334 132.527 112.948C131.434 113.561 130.227 113.868 128.907 113.868ZM128.907 110.748C130.027 110.748 130.921 110.374 131.587 109.628C132.267 108.881 132.607 107.894 132.607 106.668C132.607 105.428 132.267 104.441 131.587 103.708C130.921 102.961 130.027 102.588 128.907 102.588C127.774 102.588 126.867 102.954 126.187 103.688C125.521 104.421 125.187 105.414 125.187 106.668C125.187 107.908 125.521 108.901 126.187 109.648C126.867 110.381 127.774 110.748 128.907 110.748ZM150.55 113.728H147.13L141.41 105.068V113.728H137.99V99.6875H141.41L147.13 108.388V99.6875H150.55V113.728ZM161.769 111.248H156.529L155.689 113.728H152.109L157.189 99.6875H161.149L166.229 113.728H162.609L161.769 111.248ZM160.889 108.608L159.149 103.468L157.429 108.608H160.889ZM171.195 111.088H175.675V113.728H167.775V99.6875H171.195V111.088Z" fill="#000103"/>
<path d="M375.66 99.6875V113.728H372.24V99.6875H375.66ZM390.698 113.728H387.278L381.558 105.068V113.728H378.138V99.6875H381.558L387.278 108.388V99.6875H390.698V113.728ZM403.278 99.6875V102.428H399.558V113.728H396.138V102.428H392.418V99.6875H403.278ZM408.354 99.6875V108.088C408.354 108.928 408.561 109.574 408.974 110.028C409.387 110.481 409.994 110.708 410.794 110.708C411.594 110.708 412.207 110.481 412.634 110.028C413.061 109.574 413.274 108.928 413.274 108.088V99.6875H416.694V108.068C416.694 109.321 416.427 110.381 415.894 111.248C415.361 112.114 414.641 112.768 413.734 113.208C412.841 113.648 411.841 113.868 410.734 113.868C409.627 113.868 408.634 113.654 407.754 113.228C406.887 112.788 406.201 112.134 405.694 111.268C405.187 110.388 404.934 109.321 404.934 108.068V99.6875H408.354ZM422.515 99.6875V113.728H419.095V99.6875H422.515ZM435.094 99.6875V102.428H431.374V113.728H427.954V102.428H424.234V99.6875H435.094ZM440.23 99.6875V113.728H436.81V99.6875H440.23ZM455.889 99.6875L450.909 113.728H446.629L441.649 99.6875H445.289L448.769 110.288L452.269 99.6875H455.889ZM460.738 102.428V105.268H465.318V107.908H460.738V110.988H465.918V113.728H457.318V99.6875H465.918V102.428H460.738Z" fill="#000103"/>
<path d="M367.98 400.248H362.74L361.9 402.728H358.32L363.4 388.688H367.36L372.44 402.728H368.82L367.98 400.248ZM367.1 397.608L365.36 392.468L363.64 397.608H367.1ZM373.406 395.688C373.406 394.301 373.706 393.068 374.306 391.988C374.906 390.894 375.739 390.048 376.806 389.448C377.886 388.834 379.106 388.528 380.466 388.528C382.133 388.528 383.559 388.968 384.746 389.848C385.933 390.728 386.726 391.928 387.126 393.448H383.366C383.086 392.861 382.686 392.414 382.166 392.108C381.659 391.801 381.079 391.648 380.426 391.648C379.373 391.648 378.519 392.014 377.866 392.748C377.213 393.481 376.886 394.461 376.886 395.688C376.886 396.914 377.213 397.894 377.866 398.628C378.519 399.361 379.373 399.728 380.426 399.728C381.079 399.728 381.659 399.574 382.166 399.268C382.686 398.961 383.086 398.514 383.366 397.928H387.126C386.726 399.448 385.933 400.648 384.746 401.528C383.559 402.394 382.133 402.828 380.466 402.828C379.106 402.828 377.886 402.528 376.806 401.928C375.739 401.314 374.906 400.468 374.306 399.388C373.706 398.308 373.406 397.074 373.406 395.688ZM388.64 395.688C388.64 394.301 388.94 393.068 389.54 391.988C390.14 390.894 390.974 390.048 392.04 389.448C393.12 388.834 394.34 388.528 395.7 388.528C397.367 388.528 398.794 388.968 399.98 389.848C401.167 390.728 401.96 391.928 402.36 393.448H398.6C398.32 392.861 397.92 392.414 397.4 392.108C396.894 391.801 396.314 391.648 395.66 391.648C394.607 391.648 393.754 392.014 393.1 392.748C392.447 393.481 392.12 394.461 392.12 395.688C392.12 396.914 392.447 397.894 393.1 398.628C393.754 399.361 394.607 399.728 395.66 399.728C396.314 399.728 396.894 399.574 397.4 399.268C397.92 398.961 398.32 398.514 398.6 397.928H402.36C401.96 399.448 401.167 400.648 399.98 401.528C398.794 402.394 397.367 402.828 395.7 402.828C394.34 402.828 393.12 402.528 392.04 401.928C390.974 401.314 390.14 400.468 389.54 399.388C388.94 398.308 388.64 397.074 388.64 395.688ZM407.875 391.428V394.268H412.455V396.908H407.875V399.988H413.055V402.728H404.455V388.688H413.055V391.428H407.875ZM420.355 402.868C419.328 402.868 418.408 402.701 417.595 402.368C416.782 402.034 416.128 401.541 415.635 400.888C415.155 400.234 414.902 399.448 414.875 398.528H418.515C418.568 399.048 418.748 399.448 419.055 399.728C419.362 399.994 419.762 400.128 420.255 400.128C420.762 400.128 421.162 400.014 421.455 399.788C421.748 399.548 421.895 399.221 421.895 398.808C421.895 398.461 421.775 398.174 421.535 397.948C421.308 397.721 421.022 397.534 420.675 397.388C420.342 397.241 419.862 397.074 419.235 396.888C418.328 396.608 417.588 396.328 417.015 396.048C416.442 395.768 415.948 395.354 415.535 394.808C415.122 394.261 414.915 393.548 414.915 392.668C414.915 391.361 415.388 390.341 416.335 389.608C417.282 388.861 418.515 388.488 420.035 388.488C421.582 388.488 422.828 388.861 423.775 389.608C424.722 390.341 425.228 391.368 425.295 392.688H421.595C421.568 392.234 421.402 391.881 421.095 391.628C420.788 391.361 420.395 391.228 419.915 391.228C419.502 391.228 419.168 391.341 418.915 391.568C418.662 391.781 418.535 392.094 418.535 392.508C418.535 392.961 418.748 393.314 419.175 393.568C419.602 393.821 420.268 394.094 421.175 394.388C422.082 394.694 422.815 394.988 423.375 395.268C423.948 395.548 424.442 395.954 424.855 396.488C425.268 397.021 425.475 397.708 425.475 398.548C425.475 399.348 425.268 400.074 424.855 400.728C424.455 401.381 423.868 401.901 423.095 402.288C422.322 402.674 421.408 402.868 420.355 402.868ZM432.66 402.868C431.633 402.868 430.713 402.701 429.9 402.368C429.087 402.034 428.433 401.541 427.94 400.888C427.46 400.234 427.207 399.448 427.18 398.528H430.82C430.873 399.048 431.053 399.448 431.36 399.728C431.667 399.994 432.067 400.128 432.56 400.128C433.067 400.128 433.467 400.014 433.76 399.788C434.053 399.548 434.2 399.221 434.2 398.808C434.2 398.461 434.08 398.174 433.84 397.948C433.613 397.721 433.327 397.534 432.98 397.388C432.647 397.241 432.167 397.074 431.54 396.888C430.633 396.608 429.893 396.328 429.32 396.048C428.747 395.768 428.253 395.354 427.84 394.808C427.427 394.261 427.22 393.548 427.22 392.668C427.22 391.361 427.693 390.341 428.64 389.608C429.587 388.861 430.82 388.488 432.34 388.488C433.887 388.488 435.133 388.861 436.08 389.608C437.027 390.341 437.533 391.368 437.6 392.688H433.9C433.873 392.234 433.707 391.881 433.4 391.628C433.093 391.361 432.7 391.228 432.22 391.228C431.807 391.228 431.473 391.341 431.22 391.568C430.967 391.781 430.84 392.094 430.84 392.508C430.84 392.961 431.053 393.314 431.48 393.568C431.907 393.821 432.573 394.094 433.48 394.388C434.387 394.694 435.12 394.988 435.68 395.268C436.253 395.548 436.747 395.954 437.16 396.488C437.573 397.021 437.78 397.708 437.78 398.548C437.78 399.348 437.573 400.074 437.16 400.728C436.76 401.381 436.173 401.901 435.4 402.288C434.627 402.674 433.713 402.868 432.66 402.868ZM443.305 388.688V402.728H439.885V388.688H443.305ZM454.283 395.528C455.096 395.701 455.75 396.108 456.243 396.748C456.736 397.374 456.983 398.094 456.983 398.908C456.983 400.081 456.57 401.014 455.743 401.708C454.93 402.388 453.79 402.728 452.323 402.728H445.783V388.688H452.103C453.53 388.688 454.643 389.014 455.443 389.668C456.256 390.321 456.663 391.208 456.663 392.328C456.663 393.154 456.443 393.841 456.003 394.388C455.576 394.934 455.003 395.314 454.283 395.528ZM449.203 394.368H451.443C452.003 394.368 452.43 394.248 452.723 394.008C453.03 393.754 453.183 393.388 453.183 392.908C453.183 392.428 453.03 392.061 452.723 391.808C452.43 391.554 452.003 391.428 451.443 391.428H449.203V394.368ZM451.723 399.968C452.296 399.968 452.736 399.841 453.043 399.588C453.363 399.321 453.523 398.941 453.523 398.448C453.523 397.954 453.356 397.568 453.023 397.288C452.703 397.008 452.256 396.868 451.683 396.868H449.203V399.968H451.723ZM462.387 400.088H466.867V402.728H458.967V388.688H462.387V400.088ZM471.918 391.428V394.268H476.498V396.908H471.918V399.988H477.098V402.728H468.498V388.688H477.098V391.428H471.918Z" fill="#000103"/>
<path d="M72.66 393.428V396.268H77.24V398.908H72.66V401.988H77.84V404.728H69.24V390.688H77.84V393.428H72.66ZM83.4803 402.088H87.9603V404.728H80.0603V390.688H83.4803V402.088ZM93.0116 393.428V396.268H97.5916V398.908H93.0116V401.988H98.1916V404.728H89.5916V390.688H98.1916V393.428H93.0116ZM109.732 395.128C109.479 394.661 109.112 394.308 108.632 394.068C108.165 393.814 107.612 393.688 106.972 393.688C105.865 393.688 104.979 394.054 104.312 394.788C103.645 395.508 103.312 396.474 103.312 397.688C103.312 398.981 103.659 399.994 104.352 400.728C105.059 401.448 106.025 401.808 107.252 401.808C108.092 401.808 108.799 401.594 109.372 401.168C109.959 400.741 110.385 400.128 110.652 399.328H106.312V396.808H113.752V399.988C113.499 400.841 113.065 401.634 112.452 402.368C111.852 403.101 111.085 403.694 110.152 404.148C109.219 404.601 108.165 404.828 106.992 404.828C105.605 404.828 104.365 404.528 103.272 403.928C102.192 403.314 101.345 402.468 100.732 401.388C100.132 400.308 99.8319 399.074 99.8319 397.688C99.8319 396.301 100.132 395.068 100.732 393.988C101.345 392.894 102.192 392.048 103.272 391.448C104.352 390.834 105.585 390.528 106.972 390.528C108.652 390.528 110.065 390.934 111.212 391.748C112.372 392.561 113.139 393.688 113.512 395.128H109.732ZM124.386 402.248H119.146L118.306 404.728H114.726L119.806 390.688H123.766L128.846 404.728H125.226L124.386 402.248ZM123.506 399.608L121.766 394.468L120.046 399.608H123.506ZM142.952 404.728H139.532L133.812 396.068V404.728H130.392V390.688H133.812L139.532 399.388V390.688H142.952V404.728ZM155.531 390.688V393.428H151.811V404.728H148.391V393.428H144.671V390.688H155.531Z" fill="#000103"/>
</svg>
