<svg width="544" height="544" viewBox="0 0 544 544" fill="none" xmlns="http://www.w3.org/2000/svg">
<path d="M272.002 205.315C243.717 220.928 220.298 244.273 204.594 272.5C220.298 300.727 243.717 324.072 272.002 339.685C300.286 324.072 323.705 300.727 339.409 272.5C323.705 244.273 300.286 220.928 272.002 205.315Z" fill="#FB4E29"/>
<path d="M361 189C361 94.007 283.993 17 189 17C94.007 17 17 94.007 17 189C17 283.993 94.007 361 189 361C283.993 361 361 283.993 361 189Z" fill="#FFF2ED" style="mix-blend-mode:multiply"/>
<path d="M361 189C361 94.007 283.993 17 189 17C94.007 17 17 94.007 17 189C17 283.993 94.007 361 189 361C283.993 361 361 283.993 361 189Z" stroke="#FB4623" stroke-width="2"/>
<path d="M527 189C527 94.007 449.993 17 355 17C260.007 17 183 94.007 183 189C183 283.993 260.007 361 355 361C449.993 361 527 283.993 527 189Z" fill="#FFF2ED" style="mix-blend-mode:multiply"/>
<path d="M527 189C527 94.007 449.993 17 355 17C260.007 17 183 94.007 183 189C183 283.993 260.007 361 355 361C449.993 361 527 283.993 527 189Z" stroke="#FB4623" stroke-width="2"/>
<path d="M527 356C527 261.007 449.993 184 355 184C260.007 184 183 261.007 183 356C183 450.993 260.007 528 355 528C449.993 528 527 450.993 527 356Z" fill="#FFF2ED" style="mix-blend-mode:multiply"/>
<path d="M527 356C527 261.007 449.993 184 355 184C260.007 184 183 261.007 183 356C183 450.993 260.007 528 355 528C449.993 528 527 450.993 527 356Z" stroke="#FB4623" stroke-width="2"/>
<path d="M361 356C361 261.007 283.993 184 189 184C94.007 184 17 261.007 17 356C17 450.993 94.007 528 189 528C283.993 528 361 450.993 361 356Z" fill="#FFF2ED" style="mix-blend-mode:multiply"/>
<path d="M361 356C361 261.007 283.993 184 189 184C94.007 184 17 261.007 17 356C17 450.993 94.007 528 189 528C283.993 528 361 450.993 361 356Z" stroke="#FB4623" stroke-width="2"/>
<path d="M260.558 264.128C259.396 264.128 258.393 263.883 257.55 263.392C256.718 262.901 256.078 262.224 255.63 261.36C255.193 260.485 254.974 259.483 254.974 258.352C254.974 257.2 255.198 256.187 255.646 255.312C256.105 254.437 256.756 253.76 257.598 253.28C258.441 252.789 259.444 252.544 260.606 252.544C261.758 252.544 262.75 252.784 263.582 253.264C264.414 253.744 265.054 254.416 265.502 255.28C265.961 256.144 266.19 257.152 266.19 258.304C266.19 259.435 265.961 260.443 265.502 261.328C265.054 262.203 264.409 262.891 263.566 263.392C262.734 263.883 261.732 264.128 260.558 264.128ZM260.59 261.984C261.358 261.984 261.982 261.808 262.462 261.456C262.942 261.104 263.289 260.651 263.502 260.096C263.726 259.541 263.838 258.96 263.838 258.352C263.838 257.904 263.774 257.461 263.646 257.024C263.529 256.587 263.342 256.192 263.086 255.84C262.83 255.488 262.494 255.211 262.078 255.008C261.662 254.795 261.161 254.688 260.574 254.688C259.817 254.688 259.198 254.864 258.718 255.216C258.238 255.557 257.881 256.005 257.646 256.56C257.422 257.115 257.31 257.707 257.31 258.336C257.31 258.965 257.422 259.557 257.646 260.112C257.881 260.667 258.238 261.12 258.718 261.472C259.209 261.813 259.833 261.984 260.59 261.984ZM272.693 264.128C271.584 264.128 270.672 263.92 269.957 263.504C269.253 263.088 268.731 262.491 268.389 261.712C268.059 260.933 267.893 260 267.893 258.912V252.672H270.181V259.024C270.181 259.536 270.256 260.021 270.405 260.48C270.565 260.928 270.827 261.296 271.189 261.584C271.563 261.861 272.069 262 272.709 262C273.36 262 273.861 261.861 274.213 261.584C274.565 261.296 274.811 260.923 274.949 260.464C275.088 260.005 275.157 259.525 275.157 259.024V252.672H277.445V258.912C277.445 259.989 277.28 260.923 276.949 261.712C276.619 262.491 276.101 263.088 275.397 263.504C274.693 263.92 273.792 264.128 272.693 264.128ZM279.77 264V252.672H284.33C284.896 252.672 285.434 252.731 285.946 252.848C286.469 252.955 286.938 253.141 287.354 253.408C287.77 253.675 288.096 254.048 288.33 254.528C288.576 254.997 288.698 255.6 288.698 256.336C288.698 256.88 288.608 257.371 288.426 257.808C288.245 258.245 287.978 258.619 287.626 258.928C287.274 259.237 286.853 259.477 286.362 259.648L288.874 264H286.298L284.09 260.016H282.058V264H279.77ZM282.058 257.984H284.17C284.501 257.984 284.8 257.957 285.066 257.904C285.344 257.84 285.578 257.744 285.77 257.616C285.973 257.488 286.128 257.317 286.234 257.104C286.352 256.891 286.41 256.629 286.41 256.32C286.421 255.925 286.336 255.621 286.154 255.408C285.984 255.184 285.738 255.029 285.418 254.944C285.109 254.848 284.741 254.8 284.314 254.8H282.058V257.984ZM232.96 288V271.008H245.2V274.2H236.392V278.04H243.952V281.112H236.392V284.832H245.2V288H232.96ZM251.466 288V274.2H246.282V271.008H260.13V274.2H254.922V288H251.466ZM262.14 288V271.008H265.572V278.04H272.916V271.008H276.372V288H272.916V281.208H265.572V288H262.14ZM287.416 288.192C285.672 288.192 284.168 287.824 282.904 287.088C281.656 286.352 280.696 285.336 280.024 284.04C279.368 282.728 279.04 281.224 279.04 279.528C279.04 277.8 279.376 276.28 280.048 274.968C280.736 273.656 281.712 272.64 282.976 271.92C284.24 271.184 285.744 270.816 287.488 270.816C289.216 270.816 290.704 271.176 291.952 271.896C293.2 272.616 294.16 273.624 294.832 274.92C295.52 276.216 295.864 277.728 295.864 279.456C295.864 281.152 295.52 282.664 294.832 283.992C294.16 285.304 293.192 286.336 291.928 287.088C290.68 287.824 289.176 288.192 287.416 288.192ZM287.464 284.976C288.616 284.976 289.552 284.712 290.272 284.184C290.992 283.656 291.512 282.976 291.832 282.144C292.168 281.312 292.336 280.44 292.336 279.528C292.336 278.856 292.24 278.192 292.048 277.536C291.872 276.88 291.592 276.288 291.208 275.76C290.824 275.232 290.32 274.816 289.696 274.512C289.072 274.192 288.32 274.032 287.44 274.032C286.304 274.032 285.376 274.296 284.656 274.824C283.936 275.336 283.4 276.008 283.048 276.84C282.712 277.672 282.544 278.56 282.544 279.504C282.544 280.448 282.712 281.336 283.048 282.168C283.4 283 283.936 283.68 284.656 284.208C285.392 284.72 286.328 284.976 287.464 284.976ZM305.204 288.192C304.02 288.192 302.916 288.008 301.892 287.64C300.884 287.272 300.036 286.688 299.348 285.888C298.676 285.088 298.252 284.056 298.076 282.792H301.58C301.724 283.336 301.988 283.776 302.372 284.112C302.756 284.432 303.212 284.664 303.74 284.808C304.284 284.952 304.852 285.024 305.444 285.024C305.892 285.024 306.332 284.968 306.764 284.856C307.196 284.744 307.548 284.552 307.82 284.28C308.108 284.008 308.252 283.64 308.252 283.176C308.252 282.824 308.172 282.536 308.012 282.312C307.868 282.088 307.652 281.912 307.364 281.784C307.092 281.64 306.756 281.512 306.356 281.4C306.02 281.304 305.668 281.224 305.3 281.16C304.948 281.096 304.596 281.016 304.244 280.92C303.908 280.824 303.58 280.712 303.26 280.584C302.652 280.424 302.068 280.232 301.508 280.008C300.948 279.768 300.452 279.472 300.02 279.12C299.588 278.752 299.244 278.296 298.988 277.752C298.748 277.208 298.628 276.552 298.628 275.784C298.628 274.952 298.764 274.248 299.036 273.672C299.324 273.096 299.7 272.624 300.164 272.256C300.644 271.872 301.172 271.576 301.748 271.368C302.34 271.16 302.932 271.016 303.524 270.936C304.116 270.856 304.676 270.816 305.204 270.816C306.308 270.816 307.3 271.008 308.18 271.392C309.06 271.776 309.78 272.352 310.34 273.12C310.9 273.888 311.22 274.856 311.3 276.024H307.964C307.9 275.544 307.724 275.152 307.436 274.848C307.148 274.544 306.78 274.32 306.332 274.176C305.9 274.032 305.412 273.96 304.868 273.96C304.516 273.96 304.172 273.992 303.836 274.056C303.5 274.12 303.196 274.224 302.924 274.368C302.668 274.496 302.46 274.672 302.3 274.896C302.156 275.12 302.084 275.392 302.084 275.712C302.084 276.032 302.172 276.312 302.348 276.552C302.524 276.776 302.78 276.976 303.116 277.152C303.468 277.312 303.876 277.464 304.34 277.608C304.82 277.768 305.324 277.896 305.852 277.992C306.38 278.088 306.884 278.216 307.364 278.376C307.972 278.536 308.54 278.728 309.068 278.952C309.596 279.16 310.06 279.432 310.46 279.768C310.86 280.088 311.172 280.504 311.396 281.016C311.62 281.512 311.732 282.128 311.732 282.864C311.732 283.84 311.548 284.672 311.18 285.36C310.828 286.032 310.34 286.576 309.716 286.992C309.108 287.408 308.412 287.712 307.628 287.904C306.844 288.096 306.036 288.192 305.204 288.192Z" fill="#FDFDFD"/>
<path d="M51.35 153V140.256H60.422V142.65H53.924V145.944H59.414V148.32H53.924V153H51.35ZM67.5233 153.144C66.2753 153.144 65.2493 152.91 64.4453 152.442C63.6533 151.974 63.0653 151.302 62.6813 150.426C62.3093 149.55 62.1233 148.5 62.1233 147.276V140.256H64.6973V147.402C64.6973 147.978 64.7813 148.524 64.9493 149.04C65.1293 149.544 65.4233 149.958 65.8313 150.282C66.2513 150.594 66.8213 150.75 67.5413 150.75C68.2733 150.75 68.8373 150.594 69.2333 150.282C69.6293 149.958 69.9053 149.538 70.0613 149.022C70.2173 148.506 70.2953 147.966 70.2953 147.402V140.256H72.8693V147.276C72.8693 148.488 72.6833 149.538 72.3113 150.426C71.9393 151.302 71.3573 151.974 70.5653 152.442C69.7733 152.91 68.7593 153.144 67.5233 153.144ZM75.4848 153V140.256H78.1128L83.9988 148.878V140.256H86.5728V153H84.0168L78.0588 144.468V153H75.4848ZM94.702 153.144C93.394 153.144 92.278 152.88 91.354 152.352C90.442 151.812 89.746 151.056 89.266 150.084C88.798 149.112 88.564 147.978 88.564 146.682C88.564 145.362 88.804 144.21 89.284 143.226C89.776 142.242 90.478 141.48 91.39 140.94C92.302 140.388 93.4 140.112 94.684 140.112C95.656 140.112 96.526 140.28 97.294 140.616C98.062 140.94 98.68 141.426 99.148 142.074C99.628 142.71 99.928 143.496 100.048 144.432H97.564C97.408 143.844 97.09 143.382 96.61 143.046C96.142 142.698 95.518 142.524 94.738 142.524C93.874 142.524 93.184 142.722 92.668 143.118C92.164 143.502 91.798 144.006 91.57 144.63C91.342 145.242 91.228 145.89 91.228 146.574C91.228 147.282 91.348 147.954 91.588 148.59C91.828 149.226 92.206 149.742 92.722 150.138C93.25 150.534 93.94 150.732 94.792 150.732C95.296 150.732 95.746 150.66 96.142 150.516C96.538 150.36 96.862 150.138 97.114 149.85C97.378 149.562 97.558 149.22 97.654 148.824H100.228C100.12 149.748 99.808 150.534 99.292 151.182C98.776 151.83 98.122 152.322 97.33 152.658C96.538 152.982 95.662 153.144 94.702 153.144ZM104.816 153V142.65H100.928V140.256H111.314V142.65H107.408V153H104.816ZM112.821 153V140.256H115.395V153H112.821ZM123.674 153.144C122.366 153.144 121.238 152.868 120.29 152.316C119.354 151.764 118.634 151.002 118.13 150.03C117.638 149.046 117.392 147.918 117.392 146.646C117.392 145.35 117.644 144.21 118.148 143.226C118.664 142.242 119.396 141.48 120.344 140.94C121.292 140.388 122.42 140.112 123.728 140.112C125.024 140.112 126.14 140.382 127.076 140.922C128.012 141.462 128.732 142.218 129.236 143.19C129.752 144.162 130.01 145.296 130.01 146.592C130.01 147.864 129.752 148.998 129.236 149.994C128.732 150.978 128.006 151.752 127.058 152.316C126.122 152.868 124.994 153.144 123.674 153.144ZM123.71 150.732C124.574 150.732 125.276 150.534 125.816 150.138C126.356 149.742 126.746 149.232 126.986 148.608C127.238 147.984 127.364 147.33 127.364 146.646C127.364 146.142 127.292 145.644 127.148 145.152C127.016 144.66 126.806 144.216 126.518 143.82C126.23 143.424 125.852 143.112 125.384 142.884C124.916 142.644 124.352 142.524 123.692 142.524C122.84 142.524 122.144 142.722 121.604 143.118C121.064 143.502 120.662 144.006 120.398 144.63C120.146 145.254 120.02 145.92 120.02 146.628C120.02 147.336 120.146 148.002 120.398 148.626C120.662 149.25 121.064 149.76 121.604 150.156C122.156 150.54 122.858 150.732 123.71 150.732ZM132.016 153V140.256H134.644L140.53 148.878V140.256H143.104V153H140.548L134.59 144.468V153H132.016ZM144.465 153L149.433 140.256H152.313L157.227 153H154.455L153.663 150.822H148.029L147.237 153H144.465ZM148.857 148.5H152.853L150.873 142.992L148.857 148.5ZM158.594 153V140.256H161.168V150.624H167.63V153H158.594Z" fill="#1E0F10"/>
<path d="M395.35 153V140.256H397.924V153H395.35ZM400.623 153V140.256H403.251L409.137 148.878V140.256H411.711V153H409.155L403.197 144.468V153H400.623ZM417.105 153V142.65H413.217V140.256H423.603V142.65H419.697V153H417.105ZM430.42 153.144C429.172 153.144 428.146 152.91 427.342 152.442C426.55 151.974 425.962 151.302 425.578 150.426C425.206 149.55 425.02 148.5 425.02 147.276V140.256H427.594V147.402C427.594 147.978 427.678 148.524 427.846 149.04C428.026 149.544 428.32 149.958 428.728 150.282C429.148 150.594 429.718 150.75 430.438 150.75C431.17 150.75 431.734 150.594 432.13 150.282C432.526 149.958 432.802 149.538 432.958 149.022C433.114 148.506 433.192 147.966 433.192 147.402V140.256H435.766V147.276C435.766 148.488 435.58 149.538 435.208 150.426C434.836 151.302 434.254 151.974 433.462 152.442C432.67 152.91 431.656 153.144 430.42 153.144ZM438.381 153V140.256H440.955V153H438.381ZM446.355 153V142.65H442.467V140.256H452.853V142.65H448.947V153H446.355ZM454.36 153V140.256H456.934V153H454.36ZM463.035 153L458.391 140.256H461.199L464.763 150.822L468.255 140.256H471.045L466.419 153H463.035ZM472.5 153V140.256H481.68V142.65H475.074V145.53H480.744V147.834H475.074V150.624H481.68V153H472.5Z" fill="#1E0F10"/>
<path d="M382.018 403L386.986 390.256H389.866L394.78 403H392.008L391.216 400.822H385.582L384.79 403H382.018ZM386.41 398.5H390.406L388.426 392.992L386.41 398.5ZM401.161 403.144C399.853 403.144 398.737 402.88 397.813 402.352C396.901 401.812 396.205 401.056 395.725 400.084C395.257 399.112 395.023 397.978 395.023 396.682C395.023 395.362 395.263 394.21 395.743 393.226C396.235 392.242 396.937 391.48 397.849 390.94C398.761 390.388 399.859 390.112 401.143 390.112C402.115 390.112 402.985 390.28 403.753 390.616C404.521 390.94 405.139 391.426 405.607 392.074C406.087 392.71 406.387 393.496 406.507 394.432H404.023C403.867 393.844 403.549 393.382 403.069 393.046C402.601 392.698 401.977 392.524 401.197 392.524C400.333 392.524 399.643 392.722 399.127 393.118C398.623 393.502 398.257 394.006 398.029 394.63C397.801 395.242 397.687 395.89 397.687 396.574C397.687 397.282 397.807 397.954 398.047 398.59C398.287 399.226 398.665 399.742 399.181 400.138C399.709 400.534 400.399 400.732 401.251 400.732C401.755 400.732 402.205 400.66 402.601 400.516C402.997 400.36 403.321 400.138 403.573 399.85C403.837 399.562 404.017 399.22 404.113 398.824H406.687C406.579 399.748 406.267 400.534 405.751 401.182C405.235 401.83 404.581 402.322 403.789 402.658C402.997 402.982 402.121 403.144 401.161 403.144ZM414.204 403.144C412.896 403.144 411.78 402.88 410.856 402.352C409.944 401.812 409.248 401.056 408.768 400.084C408.3 399.112 408.066 397.978 408.066 396.682C408.066 395.362 408.306 394.21 408.786 393.226C409.278 392.242 409.98 391.48 410.892 390.94C411.804 390.388 412.902 390.112 414.186 390.112C415.158 390.112 416.028 390.28 416.796 390.616C417.564 390.94 418.182 391.426 418.65 392.074C419.13 392.71 419.43 393.496 419.55 394.432H417.066C416.91 393.844 416.592 393.382 416.112 393.046C415.644 392.698 415.02 392.524 414.24 392.524C413.376 392.524 412.686 392.722 412.17 393.118C411.666 393.502 411.3 394.006 411.072 394.63C410.844 395.242 410.73 395.89 410.73 396.574C410.73 397.282 410.85 397.954 411.09 398.59C411.33 399.226 411.708 399.742 412.224 400.138C412.752 400.534 413.442 400.732 414.294 400.732C414.798 400.732 415.248 400.66 415.644 400.516C416.04 400.36 416.364 400.138 416.616 399.85C416.88 399.562 417.06 399.22 417.156 398.824H419.73C419.622 399.748 419.31 400.534 418.794 401.182C418.278 401.83 417.624 402.322 416.832 402.658C416.04 402.982 415.164 403.144 414.204 403.144ZM421.618 403V390.256H430.798V392.65H424.192V395.53H429.862V397.834H424.192V400.624H430.798V403H421.618ZM437.603 403.144C436.715 403.144 435.887 403.006 435.119 402.73C434.363 402.454 433.727 402.016 433.211 401.416C432.707 400.816 432.389 400.042 432.257 399.094H434.885C434.993 399.502 435.191 399.832 435.479 400.084C435.767 400.324 436.109 400.498 436.505 400.606C436.913 400.714 437.339 400.768 437.783 400.768C438.119 400.768 438.449 400.726 438.773 400.642C439.097 400.558 439.361 400.414 439.565 400.21C439.781 400.006 439.889 399.73 439.889 399.382C439.889 399.118 439.829 398.902 439.709 398.734C439.601 398.566 439.439 398.434 439.223 398.338C439.019 398.23 438.767 398.134 438.467 398.05C438.215 397.978 437.951 397.918 437.675 397.87C437.411 397.822 437.147 397.762 436.883 397.69C436.631 397.618 436.385 397.534 436.145 397.438C435.689 397.318 435.251 397.174 434.831 397.006C434.411 396.826 434.039 396.604 433.715 396.34C433.391 396.064 433.133 395.722 432.941 395.314C432.761 394.906 432.671 394.414 432.671 393.838C432.671 393.214 432.773 392.686 432.977 392.254C433.193 391.822 433.475 391.468 433.823 391.192C434.183 390.904 434.579 390.682 435.011 390.526C435.455 390.37 435.899 390.262 436.343 390.202C436.787 390.142 437.207 390.112 437.603 390.112C438.431 390.112 439.175 390.256 439.835 390.544C440.495 390.832 441.035 391.264 441.455 391.84C441.875 392.416 442.115 393.142 442.175 394.018H439.673C439.625 393.658 439.493 393.364 439.277 393.136C439.061 392.908 438.785 392.74 438.449 392.632C438.125 392.524 437.759 392.47 437.351 392.47C437.087 392.47 436.829 392.494 436.577 392.542C436.325 392.59 436.097 392.668 435.893 392.776C435.701 392.872 435.545 393.004 435.425 393.172C435.317 393.34 435.263 393.544 435.263 393.784C435.263 394.024 435.329 394.234 435.461 394.414C435.593 394.582 435.785 394.732 436.037 394.864C436.301 394.984 436.607 395.098 436.955 395.206C437.315 395.326 437.693 395.422 438.089 395.494C438.485 395.566 438.863 395.662 439.223 395.782C439.679 395.902 440.105 396.046 440.501 396.214C440.897 396.37 441.245 396.574 441.545 396.826C441.845 397.066 442.079 397.378 442.247 397.762C442.415 398.134 442.499 398.596 442.499 399.148C442.499 399.88 442.361 400.504 442.085 401.02C441.821 401.524 441.455 401.932 440.987 402.244C440.531 402.556 440.009 402.784 439.421 402.928C438.833 403.072 438.227 403.144 437.603 403.144ZM449.679 403.144C448.791 403.144 447.963 403.006 447.195 402.73C446.439 402.454 445.803 402.016 445.287 401.416C444.783 400.816 444.465 400.042 444.333 399.094H446.961C447.069 399.502 447.267 399.832 447.555 400.084C447.843 400.324 448.185 400.498 448.581 400.606C448.989 400.714 449.415 400.768 449.859 400.768C450.195 400.768 450.525 400.726 450.849 400.642C451.173 400.558 451.437 400.414 451.641 400.21C451.857 400.006 451.965 399.73 451.965 399.382C451.965 399.118 451.905 398.902 451.785 398.734C451.677 398.566 451.515 398.434 451.299 398.338C451.095 398.23 450.843 398.134 450.543 398.05C450.291 397.978 450.027 397.918 449.751 397.87C449.487 397.822 449.223 397.762 448.959 397.69C448.707 397.618 448.461 397.534 448.221 397.438C447.765 397.318 447.327 397.174 446.907 397.006C446.487 396.826 446.115 396.604 445.791 396.34C445.467 396.064 445.209 395.722 445.017 395.314C444.837 394.906 444.747 394.414 444.747 393.838C444.747 393.214 444.849 392.686 445.053 392.254C445.269 391.822 445.551 391.468 445.899 391.192C446.259 390.904 446.655 390.682 447.087 390.526C447.531 390.37 447.975 390.262 448.419 390.202C448.863 390.142 449.283 390.112 449.679 390.112C450.507 390.112 451.251 390.256 451.911 390.544C452.571 390.832 453.111 391.264 453.531 391.84C453.951 392.416 454.191 393.142 454.251 394.018H451.749C451.701 393.658 451.569 393.364 451.353 393.136C451.137 392.908 450.861 392.74 450.525 392.632C450.201 392.524 449.835 392.47 449.427 392.47C449.163 392.47 448.905 392.494 448.653 392.542C448.401 392.59 448.173 392.668 447.969 392.776C447.777 392.872 447.621 393.004 447.501 393.172C447.393 393.34 447.339 393.544 447.339 393.784C447.339 394.024 447.405 394.234 447.537 394.414C447.669 394.582 447.861 394.732 448.113 394.864C448.377 394.984 448.683 395.098 449.031 395.206C449.391 395.326 449.769 395.422 450.165 395.494C450.561 395.566 450.939 395.662 451.299 395.782C451.755 395.902 452.181 396.046 452.577 396.214C452.973 396.37 453.321 396.574 453.621 396.826C453.921 397.066 454.155 397.378 454.323 397.762C454.491 398.134 454.575 398.596 454.575 399.148C454.575 399.88 454.437 400.504 454.161 401.02C453.897 401.524 453.531 401.932 453.063 402.244C452.607 402.556 452.085 402.784 451.497 402.928C450.909 403.072 450.303 403.144 449.679 403.144ZM456.756 403V390.256H459.33V403H456.756ZM462.012 403V390.256H467.592C468.18 390.256 468.714 390.316 469.194 390.436C469.686 390.544 470.112 390.724 470.472 390.976C470.832 391.228 471.108 391.564 471.3 391.984C471.504 392.404 471.606 392.938 471.606 393.586C471.606 394.114 471.486 394.606 471.246 395.062C471.006 395.518 470.652 395.866 470.184 396.106C470.808 396.31 471.3 396.664 471.66 397.168C472.02 397.66 472.2 398.314 472.2 399.13C472.2 399.862 472.062 400.48 471.786 400.984C471.51 401.476 471.132 401.872 470.652 402.172C470.172 402.472 469.614 402.688 468.978 402.82C468.342 402.94 467.664 403 466.944 403H462.012ZM464.586 400.624H467.25C467.574 400.624 467.874 400.6 468.15 400.552C468.438 400.504 468.69 400.426 468.906 400.318C469.122 400.198 469.29 400.036 469.41 399.832C469.542 399.628 469.608 399.376 469.608 399.076C469.608 398.8 469.554 398.572 469.446 398.392C469.35 398.2 469.206 398.044 469.014 397.924C468.834 397.804 468.618 397.72 468.366 397.672C468.126 397.624 467.856 397.6 467.556 397.6H464.586V400.624ZM464.586 395.458H466.944C467.268 395.458 467.562 395.428 467.826 395.368C468.09 395.308 468.312 395.212 468.492 395.08C468.672 394.948 468.81 394.786 468.906 394.594C469.002 394.39 469.05 394.156 469.05 393.892C469.062 393.532 468.984 393.268 468.816 393.1C468.648 392.92 468.42 392.8 468.132 392.74C467.844 392.668 467.52 392.632 467.16 392.632H464.586V395.458ZM474.211 403V390.256H476.785V400.624H483.247V403H474.211ZM484.899 403V390.256H494.079V392.65H487.473V395.53H493.143V397.834H487.473V400.624H494.079V403H484.899Z" fill="#1E0F10"/>
<path d="M68.35 403V390.256H77.53V392.65H70.924V395.53H76.594V397.834H70.924V400.624H77.53V403H68.35ZM79.5297 403V390.256H82.1037V400.624H88.5657V403H79.5297ZM90.2172 403V390.256H99.3972V392.65H92.7912V395.53H98.4612V397.834H92.7912V400.624H99.3972V403H90.2172ZM106.815 403.144C105.519 403.144 104.415 402.874 103.503 402.334C102.591 401.782 101.895 401.02 101.415 400.048C100.935 399.064 100.695 397.918 100.695 396.61C100.695 395.638 100.827 394.756 101.091 393.964C101.367 393.16 101.763 392.47 102.279 391.894C102.807 391.318 103.449 390.88 104.205 390.58C104.961 390.268 105.819 390.112 106.779 390.112C107.751 390.112 108.621 390.268 109.389 390.58C110.157 390.892 110.793 391.36 111.297 391.984C111.813 392.596 112.149 393.364 112.305 394.288H109.695C109.599 393.892 109.425 393.568 109.173 393.316C108.921 393.052 108.603 392.854 108.219 392.722C107.847 392.59 107.421 392.524 106.941 392.524C106.281 392.524 105.723 392.638 105.267 392.866C104.811 393.094 104.439 393.406 104.151 393.802C103.875 394.186 103.671 394.63 103.539 395.134C103.419 395.626 103.359 396.136 103.359 396.664C103.359 397.384 103.479 398.056 103.719 398.68C103.959 399.292 104.337 399.79 104.853 400.174C105.369 400.546 106.053 400.732 106.905 400.732C107.469 400.732 107.967 400.648 108.399 400.48C108.843 400.3 109.197 400.036 109.461 399.688C109.737 399.328 109.893 398.896 109.929 398.392H106.455V396.178H112.575V396.88C112.575 398.176 112.359 399.292 111.927 400.228C111.495 401.164 110.853 401.884 110.001 402.388C109.149 402.892 108.087 403.144 106.815 403.144ZM112.774 403L117.742 390.256H120.622L125.536 403H122.764L121.972 400.822H116.338L115.546 403H112.774ZM117.166 398.5H121.162L119.182 392.992L117.166 398.5ZM126.903 403V390.256H129.531L135.417 398.878V390.256H137.991V403H135.435L129.477 394.468V403H126.903ZM143.384 403V392.65H139.496V390.256H149.882V392.65H145.976V403H143.384Z" fill="#1E0F10"/>
</svg>
