<svg width="526" height="502" viewBox="0 0 526 502" fill="none" xmlns="http://www.w3.org/2000/svg">
<path d="M346.391 176.234C346.391 81.2622 269.327 4.27234 174.265 4.27234C79.2021 4.27234 2.13867 81.2622 2.13867 176.234C2.13867 271.206 79.2021 348.196 174.265 348.196C269.327 348.196 346.391 271.206 346.391 176.234Z" stroke="black" stroke-width="2"/>
<path d="M523.861 175.166C523.861 79.6042 446.319 2.13617 350.666 2.13617C255.013 2.13617 177.471 79.6042 177.471 175.166C177.471 270.728 255.013 348.196 350.666 348.196C446.319 348.196 523.861 270.728 523.861 175.166Z" stroke="black" stroke-width="2"/>
<path d="M523.861 326.834C523.861 231.272 446.319 153.804 350.666 153.804C255.013 153.804 177.471 231.272 177.471 326.834C177.471 422.396 255.013 499.864 350.666 499.864C446.319 499.864 523.861 422.396 523.861 326.834Z" stroke="black" stroke-width="2"/>
<path d="M348.529 326.834C348.529 231.272 270.987 153.804 175.334 153.804C79.6808 153.804 2.13867 231.272 2.13867 326.834C2.13867 422.396 79.6808 499.864 175.334 499.864C270.987 499.864 348.529 422.396 348.529 326.834Z" stroke="black" stroke-width="2"/>
<path fill-rule="evenodd" clip-rule="evenodd" d="M262.868 175.166C292.734 192.426 317.033 218.235 332.409 249.244C317.433 281.624 292.794 308.627 262.188 326.567C232.052 308.969 207.645 282.645 192.439 251.064C207.759 219.246 232.42 192.763 262.868 175.166Z" fill="black"/>
<mask id="mask0_88_8147" style="mask-type:luminance" maskUnits="userSpaceOnUse" x="192" y="175" width="141" height="152">
<path fill-rule="evenodd" clip-rule="evenodd" d="M262.868 175.166C292.734 192.426 317.033 218.235 332.409 249.244C317.433 281.624 292.794 308.627 262.188 326.567C232.052 308.969 207.645 282.645 192.439 251.064C207.759 219.246 232.42 192.763 262.868 175.166Z" fill="white"/>
</mask>
<g mask="url(#mask0_88_8147)">
<path d="M262.867 175.166L265.01 171.468L262.867 170.23L260.727 171.468L262.867 175.166ZM332.408 249.244L336.289 251.036L337.149 249.18L336.24 247.349L332.408 249.244ZM262.187 326.567L260.03 330.256L262.191 331.519L264.351 330.252L262.187 326.567ZM192.439 251.064L188.585 249.212L187.693 251.064L188.585 252.916L192.439 251.064ZM260.727 178.864C289.866 195.705 313.575 220.889 328.576 251.141L336.24 247.349C320.488 215.582 295.601 189.148 265.01 171.468L260.727 178.864ZM264.351 330.252C295.706 311.874 320.945 284.211 336.289 251.036L328.525 247.452C313.917 279.035 289.881 305.38 260.023 322.882L264.351 330.252ZM188.585 252.916C204.162 285.268 229.162 312.231 260.03 330.256L264.345 322.878C234.942 305.709 211.127 280.022 196.292 249.212L188.585 252.916ZM260.727 171.468C229.537 189.492 204.279 216.616 188.585 249.212L196.292 252.916C211.238 221.873 235.299 196.033 265.01 178.864L260.727 171.468Z" fill="black"/>
</g>
<path d="M223.343 257.112C222.287 257.112 221.316 256.867 220.431 256.376C219.556 255.885 218.858 255.203 218.335 254.328C217.823 253.443 217.567 252.451 217.567 251.352C217.567 250.253 217.823 249.267 218.335 248.392C218.858 247.517 219.556 246.835 220.431 246.344C221.316 245.853 222.287 245.608 223.343 245.608C224.399 245.608 225.364 245.853 226.239 246.344C227.124 246.835 227.818 247.517 228.319 248.392C228.831 249.267 229.087 250.253 229.087 251.352C229.087 252.451 228.831 253.443 228.319 254.328C227.807 255.203 227.114 255.885 226.239 256.376C225.364 256.867 224.399 257.112 223.343 257.112ZM223.343 254.616C224.239 254.616 224.954 254.317 225.487 253.72C226.031 253.123 226.303 252.333 226.303 251.352C226.303 250.36 226.031 249.571 225.487 248.984C224.954 248.387 224.239 248.088 223.343 248.088C222.436 248.088 221.711 248.381 221.167 248.968C220.634 249.555 220.367 250.349 220.367 251.352C220.367 252.344 220.634 253.139 221.167 253.736C221.711 254.323 222.436 254.616 223.343 254.616ZM233.297 245.768V252.488C233.297 253.16 233.463 253.677 233.793 254.04C234.124 254.403 234.609 254.584 235.249 254.584C235.889 254.584 236.38 254.403 236.721 254.04C237.063 253.677 237.233 253.16 237.233 252.488V245.768H239.969V252.472C239.969 253.475 239.756 254.323 239.329 255.016C238.903 255.709 238.327 256.232 237.601 256.584C236.887 256.936 236.087 257.112 235.201 257.112C234.316 257.112 233.521 256.941 232.817 256.6C232.124 256.248 231.575 255.725 231.169 255.032C230.764 254.328 230.561 253.475 230.561 252.472V245.768H233.297ZM247.618 257L245.282 252.76H244.626V257H241.89V245.768H246.482C247.368 245.768 248.12 245.923 248.738 246.232C249.368 246.541 249.837 246.968 250.146 247.512C250.456 248.045 250.61 248.643 250.61 249.304C250.61 250.051 250.397 250.717 249.97 251.304C249.554 251.891 248.936 252.307 248.114 252.552L250.706 257H247.618ZM244.626 250.824H246.322C246.824 250.824 247.197 250.701 247.442 250.456C247.698 250.211 247.826 249.864 247.826 249.416C247.826 248.989 247.698 248.653 247.442 248.408C247.197 248.163 246.824 248.04 246.322 248.04H244.626V250.824ZM258.455 247.96V250.232H262.119V252.344H258.455V254.808H262.599V257H255.719V245.768H262.599V247.96H258.455ZM272.455 245.768V247.96H269.479V257H266.743V247.96H263.767V245.768H272.455ZM283.556 245.768V257H280.82V252.376H276.564V257H273.828V245.768H276.564V250.168H280.82V245.768H283.556ZM290.843 257.112C289.787 257.112 288.816 256.867 287.931 256.376C287.056 255.885 286.358 255.203 285.835 254.328C285.323 253.443 285.067 252.451 285.067 251.352C285.067 250.253 285.323 249.267 285.835 248.392C286.358 247.517 287.056 246.835 287.931 246.344C288.816 245.853 289.787 245.608 290.843 245.608C291.899 245.608 292.864 245.853 293.739 246.344C294.624 246.835 295.318 247.517 295.819 248.392C296.331 249.267 296.587 250.253 296.587 251.352C296.587 252.451 296.331 253.443 295.819 254.328C295.307 255.203 294.614 255.885 293.739 256.376C292.864 256.867 291.899 257.112 290.843 257.112ZM290.843 254.616C291.739 254.616 292.454 254.317 292.987 253.72C293.531 253.123 293.803 252.333 293.803 251.352C293.803 250.36 293.531 249.571 292.987 248.984C292.454 248.387 291.739 248.088 290.843 248.088C289.936 248.088 289.211 248.381 288.667 248.968C288.134 249.555 287.867 250.349 287.867 251.352C287.867 252.344 288.134 253.139 288.667 253.736C289.211 254.323 289.936 254.616 290.843 254.616ZM302.173 257.112C301.352 257.112 300.616 256.979 299.965 256.712C299.315 256.445 298.792 256.051 298.397 255.528C298.013 255.005 297.811 254.376 297.789 253.64H300.701C300.744 254.056 300.888 254.376 301.133 254.6C301.379 254.813 301.699 254.92 302.093 254.92C302.499 254.92 302.819 254.829 303.053 254.648C303.288 254.456 303.405 254.195 303.405 253.864C303.405 253.587 303.309 253.357 303.117 253.176C302.936 252.995 302.707 252.845 302.429 252.728C302.163 252.611 301.779 252.477 301.277 252.328C300.552 252.104 299.96 251.88 299.501 251.656C299.043 251.432 298.648 251.101 298.317 250.664C297.987 250.227 297.821 249.656 297.821 248.952C297.821 247.907 298.2 247.091 298.957 246.504C299.715 245.907 300.701 245.608 301.917 245.608C303.155 245.608 304.152 245.907 304.909 246.504C305.667 247.091 306.072 247.912 306.125 248.968H303.165C303.144 248.605 303.011 248.323 302.765 248.12C302.52 247.907 302.205 247.8 301.821 247.8C301.491 247.8 301.224 247.891 301.021 248.072C300.819 248.243 300.717 248.493 300.717 248.824C300.717 249.187 300.888 249.469 301.229 249.672C301.571 249.875 302.104 250.093 302.829 250.328C303.555 250.573 304.141 250.808 304.589 251.032C305.048 251.256 305.443 251.581 305.773 252.008C306.104 252.435 306.269 252.984 306.269 253.656C306.269 254.296 306.104 254.877 305.773 255.4C305.453 255.923 304.984 256.339 304.365 256.648C303.747 256.957 303.016 257.112 302.173 257.112Z" fill="white"/>
<path d="M58.38 98.96V101.7H52.66V104.66H56.94V107.32H52.66V113H49.24V98.96H58.38ZM63.5375 98.96V107.36C63.5375 108.2 63.7442 108.847 64.1575 109.3C64.5708 109.753 65.1775 109.98 65.9775 109.98C66.7775 109.98 67.3908 109.753 67.8175 109.3C68.2442 108.847 68.4575 108.2 68.4575 107.36V98.96H71.8775V107.34C71.8775 108.593 71.6108 109.653 71.0775 110.52C70.5442 111.387 69.8242 112.04 68.9175 112.48C68.0242 112.92 67.0242 113.14 65.9175 113.14C64.8108 113.14 63.8175 112.927 62.9375 112.5C62.0708 112.06 61.3842 111.407 60.8775 110.54C60.3708 109.66 60.1175 108.593 60.1175 107.34V98.96H63.5375ZM86.8391 113H83.4191L77.6991 104.34V113H74.2791V98.96H77.6991L83.4191 107.66V98.96H86.8391V113ZM88.7381 105.96C88.7381 104.573 89.0381 103.34 89.6381 102.26C90.2381 101.167 91.0715 100.32 92.1381 99.72C93.2181 99.1067 94.4381 98.8 95.7981 98.8C97.4648 98.8 98.8915 99.24 100.078 100.12C101.265 101 102.058 102.2 102.458 103.72H98.6981C98.4181 103.133 98.0181 102.687 97.4981 102.38C96.9915 102.073 96.4115 101.92 95.7581 101.92C94.7048 101.92 93.8515 102.287 93.1981 103.02C92.5448 103.753 92.2181 104.733 92.2181 105.96C92.2181 107.187 92.5448 108.167 93.1981 108.9C93.8515 109.633 94.7048 110 95.7581 110C96.4115 110 96.9915 109.847 97.4981 109.54C98.0181 109.233 98.4181 108.787 98.6981 108.2H102.458C102.058 109.72 101.265 110.92 100.078 111.8C98.8915 112.667 97.4648 113.1 95.7981 113.1C94.4381 113.1 93.2181 112.8 92.1381 112.2C91.0715 111.587 90.2381 110.74 89.6381 109.66C89.0381 108.58 88.7381 107.347 88.7381 105.96ZM114.653 98.96V101.7H110.933V113H107.513V101.7H103.793V98.96H114.653ZM119.789 98.96V113H116.369V98.96H119.789ZM128.907 113.14C127.587 113.14 126.374 112.833 125.267 112.22C124.174 111.607 123.301 110.753 122.647 109.66C122.007 108.553 121.687 107.313 121.687 105.94C121.687 104.567 122.007 103.333 122.647 102.24C123.301 101.147 124.174 100.293 125.267 99.68C126.374 99.0667 127.587 98.76 128.907 98.76C130.227 98.76 131.434 99.0667 132.527 99.68C133.634 100.293 134.501 101.147 135.127 102.24C135.767 103.333 136.087 104.567 136.087 105.94C136.087 107.313 135.767 108.553 135.127 109.66C134.487 110.753 133.621 111.607 132.527 112.22C131.434 112.833 130.227 113.14 128.907 113.14ZM128.907 110.02C130.027 110.02 130.921 109.647 131.587 108.9C132.267 108.153 132.607 107.167 132.607 105.94C132.607 104.7 132.267 103.713 131.587 102.98C130.921 102.233 130.027 101.86 128.907 101.86C127.774 101.86 126.867 102.227 126.187 102.96C125.521 103.693 125.187 104.687 125.187 105.94C125.187 107.18 125.521 108.173 126.187 108.92C126.867 109.653 127.774 110.02 128.907 110.02ZM150.55 113H147.13L141.41 104.34V113H137.99V98.96H141.41L147.13 107.66V98.96H150.55V113ZM161.769 110.52H156.529L155.689 113H152.109L157.189 98.96H161.149L166.229 113H162.609L161.769 110.52ZM160.889 107.88L159.149 102.74L157.429 107.88H160.889ZM171.195 110.36H175.675V113H167.775V98.96H171.195V110.36Z" fill="black"/>
<path d="M375.66 98.96V113H372.24V98.96H375.66ZM390.698 113H387.278L381.558 104.34V113H378.138V98.96H381.558L387.278 107.66V98.96H390.698V113ZM403.278 98.96V101.7H399.558V113H396.138V101.7H392.418V98.96H403.278ZM408.354 98.96V107.36C408.354 108.2 408.561 108.847 408.974 109.3C409.387 109.753 409.994 109.98 410.794 109.98C411.594 109.98 412.207 109.753 412.634 109.3C413.061 108.847 413.274 108.2 413.274 107.36V98.96H416.694V107.34C416.694 108.593 416.427 109.653 415.894 110.52C415.361 111.387 414.641 112.04 413.734 112.48C412.841 112.92 411.841 113.14 410.734 113.14C409.627 113.14 408.634 112.927 407.754 112.5C406.887 112.06 406.201 111.407 405.694 110.54C405.187 109.66 404.934 108.593 404.934 107.34V98.96H408.354ZM422.515 98.96V113H419.095V98.96H422.515ZM435.094 98.96V101.7H431.374V113H427.954V101.7H424.234V98.96H435.094ZM440.23 98.96V113H436.81V98.96H440.23ZM455.889 98.96L450.909 113H446.629L441.649 98.96H445.289L448.769 109.56L452.269 98.96H455.889ZM460.738 101.7V104.54H465.318V107.18H460.738V110.26H465.918V113H457.318V98.96H465.918V101.7H460.738Z" fill="black"/>
<path d="M367.98 399.52H362.74L361.9 402H358.32L363.4 387.96H367.36L372.44 402H368.82L367.98 399.52ZM367.1 396.88L365.36 391.74L363.64 396.88H367.1ZM373.406 394.96C373.406 393.573 373.706 392.34 374.306 391.26C374.906 390.167 375.739 389.32 376.806 388.72C377.886 388.107 379.106 387.8 380.466 387.8C382.133 387.8 383.559 388.24 384.746 389.12C385.933 390 386.726 391.2 387.126 392.72H383.366C383.086 392.133 382.686 391.687 382.166 391.38C381.659 391.073 381.079 390.92 380.426 390.92C379.373 390.92 378.519 391.287 377.866 392.02C377.213 392.753 376.886 393.733 376.886 394.96C376.886 396.187 377.213 397.167 377.866 397.9C378.519 398.633 379.373 399 380.426 399C381.079 399 381.659 398.847 382.166 398.54C382.686 398.233 383.086 397.787 383.366 397.2H387.126C386.726 398.72 385.933 399.92 384.746 400.8C383.559 401.667 382.133 402.1 380.466 402.1C379.106 402.1 377.886 401.8 376.806 401.2C375.739 400.587 374.906 399.74 374.306 398.66C373.706 397.58 373.406 396.347 373.406 394.96ZM388.64 394.96C388.64 393.573 388.94 392.34 389.54 391.26C390.14 390.167 390.974 389.32 392.04 388.72C393.12 388.107 394.34 387.8 395.7 387.8C397.367 387.8 398.794 388.24 399.98 389.12C401.167 390 401.96 391.2 402.36 392.72H398.6C398.32 392.133 397.92 391.687 397.4 391.38C396.894 391.073 396.314 390.92 395.66 390.92C394.607 390.92 393.754 391.287 393.1 392.02C392.447 392.753 392.12 393.733 392.12 394.96C392.12 396.187 392.447 397.167 393.1 397.9C393.754 398.633 394.607 399 395.66 399C396.314 399 396.894 398.847 397.4 398.54C397.92 398.233 398.32 397.787 398.6 397.2H402.36C401.96 398.72 401.167 399.92 399.98 400.8C398.794 401.667 397.367 402.1 395.7 402.1C394.34 402.1 393.12 401.8 392.04 401.2C390.974 400.587 390.14 399.74 389.54 398.66C388.94 397.58 388.64 396.347 388.64 394.96ZM407.875 390.7V393.54H412.455V396.18H407.875V399.26H413.055V402H404.455V387.96H413.055V390.7H407.875ZM420.355 402.14C419.328 402.14 418.408 401.973 417.595 401.64C416.782 401.307 416.128 400.813 415.635 400.16C415.155 399.507 414.902 398.72 414.875 397.8H418.515C418.568 398.32 418.748 398.72 419.055 399C419.362 399.267 419.762 399.4 420.255 399.4C420.762 399.4 421.162 399.287 421.455 399.06C421.748 398.82 421.895 398.493 421.895 398.08C421.895 397.733 421.775 397.447 421.535 397.22C421.308 396.993 421.022 396.807 420.675 396.66C420.342 396.513 419.862 396.347 419.235 396.16C418.328 395.88 417.588 395.6 417.015 395.32C416.442 395.04 415.948 394.627 415.535 394.08C415.122 393.533 414.915 392.82 414.915 391.94C414.915 390.633 415.388 389.613 416.335 388.88C417.282 388.133 418.515 387.76 420.035 387.76C421.582 387.76 422.828 388.133 423.775 388.88C424.722 389.613 425.228 390.64 425.295 391.96H421.595C421.568 391.507 421.402 391.153 421.095 390.9C420.788 390.633 420.395 390.5 419.915 390.5C419.502 390.5 419.168 390.613 418.915 390.84C418.662 391.053 418.535 391.367 418.535 391.78C418.535 392.233 418.748 392.587 419.175 392.84C419.602 393.093 420.268 393.367 421.175 393.66C422.082 393.967 422.815 394.26 423.375 394.54C423.948 394.82 424.442 395.227 424.855 395.76C425.268 396.293 425.475 396.98 425.475 397.82C425.475 398.62 425.268 399.347 424.855 400C424.455 400.653 423.868 401.173 423.095 401.56C422.322 401.947 421.408 402.14 420.355 402.14ZM432.66 402.14C431.633 402.14 430.713 401.973 429.9 401.64C429.087 401.307 428.433 400.813 427.94 400.16C427.46 399.507 427.207 398.72 427.18 397.8H430.82C430.873 398.32 431.053 398.72 431.36 399C431.667 399.267 432.067 399.4 432.56 399.4C433.067 399.4 433.467 399.287 433.76 399.06C434.053 398.82 434.2 398.493 434.2 398.08C434.2 397.733 434.08 397.447 433.84 397.22C433.613 396.993 433.327 396.807 432.98 396.66C432.647 396.513 432.167 396.347 431.54 396.16C430.633 395.88 429.893 395.6 429.32 395.32C428.747 395.04 428.253 394.627 427.84 394.08C427.427 393.533 427.22 392.82 427.22 391.94C427.22 390.633 427.693 389.613 428.64 388.88C429.587 388.133 430.82 387.76 432.34 387.76C433.887 387.76 435.133 388.133 436.08 388.88C437.027 389.613 437.533 390.64 437.6 391.96H433.9C433.873 391.507 433.707 391.153 433.4 390.9C433.093 390.633 432.7 390.5 432.22 390.5C431.807 390.5 431.473 390.613 431.22 390.84C430.967 391.053 430.84 391.367 430.84 391.78C430.84 392.233 431.053 392.587 431.48 392.84C431.907 393.093 432.573 393.367 433.48 393.66C434.387 393.967 435.12 394.26 435.68 394.54C436.253 394.82 436.747 395.227 437.16 395.76C437.573 396.293 437.78 396.98 437.78 397.82C437.78 398.62 437.573 399.347 437.16 400C436.76 400.653 436.173 401.173 435.4 401.56C434.627 401.947 433.713 402.14 432.66 402.14ZM443.305 387.96V402H439.885V387.96H443.305ZM454.283 394.8C455.096 394.973 455.75 395.38 456.243 396.02C456.736 396.647 456.983 397.367 456.983 398.18C456.983 399.353 456.57 400.287 455.743 400.98C454.93 401.66 453.79 402 452.323 402H445.783V387.96H452.103C453.53 387.96 454.643 388.287 455.443 388.94C456.256 389.593 456.663 390.48 456.663 391.6C456.663 392.427 456.443 393.113 456.003 393.66C455.576 394.207 455.003 394.587 454.283 394.8ZM449.203 393.64H451.443C452.003 393.64 452.43 393.52 452.723 393.28C453.03 393.027 453.183 392.66 453.183 392.18C453.183 391.7 453.03 391.333 452.723 391.08C452.43 390.827 452.003 390.7 451.443 390.7H449.203V393.64ZM451.723 399.24C452.296 399.24 452.736 399.113 453.043 398.86C453.363 398.593 453.523 398.213 453.523 397.72C453.523 397.227 453.356 396.84 453.023 396.56C452.703 396.28 452.256 396.14 451.683 396.14H449.203V399.24H451.723ZM462.387 399.36H466.867V402H458.967V387.96H462.387V399.36ZM471.918 390.7V393.54H476.498V396.18H471.918V399.26H477.098V402H468.498V387.96H477.098V390.7H471.918Z" fill="black"/>
<path d="M72.66 392.7V395.54H77.24V398.18H72.66V401.26H77.84V404H69.24V389.96H77.84V392.7H72.66ZM83.4803 401.36H87.9603V404H80.0603V389.96H83.4803V401.36ZM93.0116 392.7V395.54H97.5916V398.18H93.0116V401.26H98.1916V404H89.5916V389.96H98.1916V392.7H93.0116ZM109.732 394.4C109.479 393.933 109.112 393.58 108.632 393.34C108.165 393.087 107.612 392.96 106.972 392.96C105.865 392.96 104.979 393.327 104.312 394.06C103.645 394.78 103.312 395.747 103.312 396.96C103.312 398.253 103.659 399.267 104.352 400C105.059 400.72 106.025 401.08 107.252 401.08C108.092 401.08 108.799 400.867 109.372 400.44C109.959 400.013 110.385 399.4 110.652 398.6H106.312V396.08H113.752V399.26C113.499 400.113 113.065 400.907 112.452 401.64C111.852 402.373 111.085 402.967 110.152 403.42C109.219 403.873 108.165 404.1 106.992 404.1C105.605 404.1 104.365 403.8 103.272 403.2C102.192 402.587 101.345 401.74 100.732 400.66C100.132 399.58 99.8319 398.347 99.8319 396.96C99.8319 395.573 100.132 394.34 100.732 393.26C101.345 392.167 102.192 391.32 103.272 390.72C104.352 390.107 105.585 389.8 106.972 389.8C108.652 389.8 110.065 390.207 111.212 391.02C112.372 391.833 113.139 392.96 113.512 394.4H109.732ZM124.386 401.52H119.146L118.306 404H114.726L119.806 389.96H123.766L128.846 404H125.226L124.386 401.52ZM123.506 398.88L121.766 393.74L120.046 398.88H123.506ZM142.952 404H139.532L133.812 395.34V404H130.392V389.96H133.812L139.532 398.66V389.96H142.952V404ZM155.531 389.96V392.7H151.811V404H148.391V392.7H144.671V389.96H155.531Z" fill="black"/>
</svg>
