<svg width="526" height="502" viewBox="0 0 526 502" fill="none" xmlns="http://www.w3.org/2000/svg">
<path d="M346.391 176.234C346.391 81.2623 269.327 4.27246 174.265 4.27246C79.2021 4.27246 2.13867 81.2623 2.13867 176.234C2.13867 271.206 79.2021 348.196 174.265 348.196C269.327 348.196 346.391 271.206 346.391 176.234Z" stroke="black" stroke-width="2"/>
<path d="M523.861 175.166C523.861 79.6038 446.319 2.13574 350.666 2.13574C255.013 2.13574 177.471 79.6038 177.471 175.166C177.471 270.727 255.013 348.195 350.666 348.195C446.319 348.195 523.861 270.727 523.861 175.166Z" stroke="black" stroke-width="2"/>
<path d="M523.861 326.834C523.861 231.273 446.319 153.805 350.666 153.805C255.013 153.805 177.471 231.273 177.471 326.834C177.471 422.396 255.013 499.864 350.666 499.864C446.319 499.864 523.861 422.396 523.861 326.834Z" stroke="black" stroke-width="2"/>
<path d="M348.529 326.834C348.529 231.273 270.987 153.805 175.334 153.805C79.6808 153.805 2.13867 231.273 2.13867 326.834C2.13867 422.396 79.6808 499.864 175.334 499.864C270.987 499.864 348.529 422.396 348.529 326.834Z" stroke="black" stroke-width="2"/>
<path fill-rule="evenodd" clip-rule="evenodd" d="M262.868 175.166C292.734 192.426 317.033 218.235 332.409 249.244C317.433 281.624 292.794 308.628 262.188 326.567C232.052 308.969 207.645 282.645 192.439 251.064C207.759 219.246 232.42 192.763 262.868 175.166Z" fill="black"/>
<mask id="mask0_159_3677" style="mask-type:luminance" maskUnits="userSpaceOnUse" x="192" y="175" width="141" height="152">
<path fill-rule="evenodd" clip-rule="evenodd" d="M262.868 175.166C292.734 192.426 317.033 218.235 332.409 249.244C317.433 281.624 292.794 308.628 262.188 326.567C232.052 308.969 207.645 282.645 192.439 251.064C207.759 219.246 232.42 192.763 262.868 175.166Z" fill="white"/>
</mask>
<g mask="url(#mask0_159_3677)">
<path d="M262.867 175.166L265.01 171.468L262.867 170.23L260.727 171.468L262.867 175.166ZM332.408 249.244L336.289 251.036L337.149 249.18L336.24 247.349L332.408 249.244ZM262.187 326.567L260.03 330.256L262.191 331.519L264.351 330.252L262.187 326.567ZM192.439 251.064L188.585 249.212L187.693 251.064L188.585 252.916L192.439 251.064ZM260.727 178.864C289.866 195.705 313.575 220.889 328.576 251.141L336.24 247.349C320.488 215.582 295.601 189.148 265.01 171.468L260.727 178.864ZM264.351 330.252C295.706 311.875 320.945 284.211 336.289 251.036L328.525 247.452C313.917 279.035 289.881 305.381 260.023 322.882L264.351 330.252ZM188.585 252.916C204.162 285.269 229.162 312.231 260.03 330.256L264.345 322.878C234.942 305.71 211.127 280.022 196.292 249.212L188.585 252.916ZM260.727 171.468C229.537 189.493 204.279 216.616 188.585 249.212L196.292 252.916C211.238 221.873 235.299 196.033 265.01 178.864L260.727 171.468Z" fill="black"/>
</g>
<path d="M57.38 103.96V106.7H51.66V109.66H55.94V112.32H51.66V118H48.24V103.96H57.38ZM62.5375 103.96V112.36C62.5375 113.2 62.7442 113.847 63.1575 114.3C63.5708 114.753 64.1775 114.98 64.9775 114.98C65.7775 114.98 66.3908 114.753 66.8175 114.3C67.2442 113.847 67.4575 113.2 67.4575 112.36V103.96H70.8775V112.34C70.8775 113.593 70.6108 114.653 70.0775 115.52C69.5442 116.387 68.8242 117.04 67.9175 117.48C67.0242 117.92 66.0242 118.14 64.9175 118.14C63.8108 118.14 62.8175 117.927 61.9375 117.5C61.0708 117.06 60.3842 116.407 59.8775 115.54C59.3708 114.66 59.1175 113.593 59.1175 112.34V103.96H62.5375ZM85.8391 118H82.4191L76.6991 109.34V118H73.2791V103.96H76.6991L82.4191 112.66V103.96H85.8391V118ZM87.7381 110.96C87.7381 109.573 88.0381 108.34 88.6381 107.26C89.2381 106.167 90.0715 105.32 91.1381 104.72C92.2181 104.107 93.4381 103.8 94.7981 103.8C96.4648 103.8 97.8915 104.24 99.0781 105.12C100.265 106 101.058 107.2 101.458 108.72H97.6981C97.4181 108.133 97.0181 107.687 96.4981 107.38C95.9915 107.073 95.4115 106.92 94.7581 106.92C93.7048 106.92 92.8515 107.287 92.1981 108.02C91.5448 108.753 91.2181 109.733 91.2181 110.96C91.2181 112.187 91.5448 113.167 92.1981 113.9C92.8515 114.633 93.7048 115 94.7581 115C95.4115 115 95.9915 114.847 96.4981 114.54C97.0181 114.233 97.4181 113.787 97.6981 113.2H101.458C101.058 114.72 100.265 115.92 99.0781 116.8C97.8915 117.667 96.4648 118.1 94.7981 118.1C93.4381 118.1 92.2181 117.8 91.1381 117.2C90.0715 116.587 89.2381 115.74 88.6381 114.66C88.0381 113.58 87.7381 112.347 87.7381 110.96ZM113.653 103.96V106.7H109.933V118H106.513V106.7H102.793V103.96H113.653ZM118.789 103.96V118H115.369V103.96H118.789ZM127.907 118.14C126.587 118.14 125.374 117.833 124.267 117.22C123.174 116.607 122.301 115.753 121.647 114.66C121.007 113.553 120.687 112.313 120.687 110.94C120.687 109.567 121.007 108.333 121.647 107.24C122.301 106.147 123.174 105.293 124.267 104.68C125.374 104.067 126.587 103.76 127.907 103.76C129.227 103.76 130.434 104.067 131.527 104.68C132.634 105.293 133.501 106.147 134.127 107.24C134.767 108.333 135.087 109.567 135.087 110.94C135.087 112.313 134.767 113.553 134.127 114.66C133.487 115.753 132.621 116.607 131.527 117.22C130.434 117.833 129.227 118.14 127.907 118.14ZM127.907 115.02C129.027 115.02 129.921 114.647 130.587 113.9C131.267 113.153 131.607 112.167 131.607 110.94C131.607 109.7 131.267 108.713 130.587 107.98C129.921 107.233 129.027 106.86 127.907 106.86C126.774 106.86 125.867 107.227 125.187 107.96C124.521 108.693 124.187 109.687 124.187 110.94C124.187 112.18 124.521 113.173 125.187 113.92C125.867 114.653 126.774 115.02 127.907 115.02ZM149.55 118H146.13L140.41 109.34V118H136.99V103.96H140.41L146.13 112.66V103.96H149.55V118ZM160.769 115.52H155.529L154.689 118H151.109L156.189 103.96H160.149L165.229 118H161.609L160.769 115.52ZM159.889 112.88L158.149 107.74L156.429 112.88H159.889ZM170.195 115.36H174.675V118H166.775V103.96H170.195V115.36Z" fill="black"/>
<path d="M374.66 103.96V118H371.24V103.96H374.66ZM389.698 118H386.278L380.558 109.34V118H377.138V103.96H380.558L386.278 112.66V103.96H389.698V118ZM402.278 103.96V106.7H398.558V118H395.138V106.7H391.418V103.96H402.278ZM407.354 103.96V112.36C407.354 113.2 407.561 113.847 407.974 114.3C408.387 114.753 408.994 114.98 409.794 114.98C410.594 114.98 411.207 114.753 411.634 114.3C412.061 113.847 412.274 113.2 412.274 112.36V103.96H415.694V112.34C415.694 113.593 415.427 114.653 414.894 115.52C414.361 116.387 413.641 117.04 412.734 117.48C411.841 117.92 410.841 118.14 409.734 118.14C408.627 118.14 407.634 117.927 406.754 117.5C405.887 117.06 405.201 116.407 404.694 115.54C404.187 114.66 403.934 113.593 403.934 112.34V103.96H407.354ZM421.515 103.96V118H418.095V103.96H421.515ZM434.094 103.96V106.7H430.374V118H426.954V106.7H423.234V103.96H434.094ZM439.23 103.96V118H435.81V103.96H439.23ZM454.889 103.96L449.909 118H445.629L440.649 103.96H444.289L447.769 114.56L451.269 103.96H454.889ZM459.738 106.7V109.54H464.318V112.18H459.738V115.26H464.918V118H456.318V103.96H464.918V106.7H459.738Z" fill="black"/>
<path d="M366.98 404.52H361.74L360.9 407H357.32L362.4 392.96H366.36L371.44 407H367.82L366.98 404.52ZM366.1 401.88L364.36 396.74L362.64 401.88H366.1ZM372.406 399.96C372.406 398.573 372.706 397.34 373.306 396.26C373.906 395.167 374.739 394.32 375.806 393.72C376.886 393.107 378.106 392.8 379.466 392.8C381.133 392.8 382.559 393.24 383.746 394.12C384.933 395 385.726 396.2 386.126 397.72H382.366C382.086 397.133 381.686 396.687 381.166 396.38C380.659 396.073 380.079 395.92 379.426 395.92C378.373 395.92 377.519 396.287 376.866 397.02C376.213 397.753 375.886 398.733 375.886 399.96C375.886 401.187 376.213 402.167 376.866 402.9C377.519 403.633 378.373 404 379.426 404C380.079 404 380.659 403.847 381.166 403.54C381.686 403.233 382.086 402.787 382.366 402.2H386.126C385.726 403.72 384.933 404.92 383.746 405.8C382.559 406.667 381.133 407.1 379.466 407.1C378.106 407.1 376.886 406.8 375.806 406.2C374.739 405.587 373.906 404.74 373.306 403.66C372.706 402.58 372.406 401.347 372.406 399.96ZM387.64 399.96C387.64 398.573 387.94 397.34 388.54 396.26C389.14 395.167 389.974 394.32 391.04 393.72C392.12 393.107 393.34 392.8 394.7 392.8C396.367 392.8 397.794 393.24 398.98 394.12C400.167 395 400.96 396.2 401.36 397.72H397.6C397.32 397.133 396.92 396.687 396.4 396.38C395.894 396.073 395.314 395.92 394.66 395.92C393.607 395.92 392.754 396.287 392.1 397.02C391.447 397.753 391.12 398.733 391.12 399.96C391.12 401.187 391.447 402.167 392.1 402.9C392.754 403.633 393.607 404 394.66 404C395.314 404 395.894 403.847 396.4 403.54C396.92 403.233 397.32 402.787 397.6 402.2H401.36C400.96 403.72 400.167 404.92 398.98 405.8C397.794 406.667 396.367 407.1 394.7 407.1C393.34 407.1 392.12 406.8 391.04 406.2C389.974 405.587 389.14 404.74 388.54 403.66C387.94 402.58 387.64 401.347 387.64 399.96ZM406.875 395.7V398.54H411.455V401.18H406.875V404.26H412.055V407H403.455V392.96H412.055V395.7H406.875ZM419.355 407.14C418.328 407.14 417.408 406.973 416.595 406.64C415.782 406.307 415.128 405.813 414.635 405.16C414.155 404.507 413.902 403.72 413.875 402.8H417.515C417.568 403.32 417.748 403.72 418.055 404C418.362 404.267 418.762 404.4 419.255 404.4C419.762 404.4 420.162 404.287 420.455 404.06C420.748 403.82 420.895 403.493 420.895 403.08C420.895 402.733 420.775 402.447 420.535 402.22C420.308 401.993 420.022 401.807 419.675 401.66C419.342 401.513 418.862 401.347 418.235 401.16C417.328 400.88 416.588 400.6 416.015 400.32C415.442 400.04 414.948 399.627 414.535 399.08C414.122 398.533 413.915 397.82 413.915 396.94C413.915 395.633 414.388 394.613 415.335 393.88C416.282 393.133 417.515 392.76 419.035 392.76C420.582 392.76 421.828 393.133 422.775 393.88C423.722 394.613 424.228 395.64 424.295 396.96H420.595C420.568 396.507 420.402 396.153 420.095 395.9C419.788 395.633 419.395 395.5 418.915 395.5C418.502 395.5 418.168 395.613 417.915 395.84C417.662 396.053 417.535 396.367 417.535 396.78C417.535 397.233 417.748 397.587 418.175 397.84C418.602 398.093 419.268 398.367 420.175 398.66C421.082 398.967 421.815 399.26 422.375 399.54C422.948 399.82 423.442 400.227 423.855 400.76C424.268 401.293 424.475 401.98 424.475 402.82C424.475 403.62 424.268 404.347 423.855 405C423.455 405.653 422.868 406.173 422.095 406.56C421.322 406.947 420.408 407.14 419.355 407.14ZM431.66 407.14C430.633 407.14 429.713 406.973 428.9 406.64C428.087 406.307 427.433 405.813 426.94 405.16C426.46 404.507 426.207 403.72 426.18 402.8H429.82C429.873 403.32 430.053 403.72 430.36 404C430.667 404.267 431.067 404.4 431.56 404.4C432.067 404.4 432.467 404.287 432.76 404.06C433.053 403.82 433.2 403.493 433.2 403.08C433.2 402.733 433.08 402.447 432.84 402.22C432.613 401.993 432.327 401.807 431.98 401.66C431.647 401.513 431.167 401.347 430.54 401.16C429.633 400.88 428.893 400.6 428.32 400.32C427.747 400.04 427.253 399.627 426.84 399.08C426.427 398.533 426.22 397.82 426.22 396.94C426.22 395.633 426.693 394.613 427.64 393.88C428.587 393.133 429.82 392.76 431.34 392.76C432.887 392.76 434.133 393.133 435.08 393.88C436.027 394.613 436.533 395.64 436.6 396.96H432.9C432.873 396.507 432.707 396.153 432.4 395.9C432.093 395.633 431.7 395.5 431.22 395.5C430.807 395.5 430.473 395.613 430.22 395.84C429.967 396.053 429.84 396.367 429.84 396.78C429.84 397.233 430.053 397.587 430.48 397.84C430.907 398.093 431.573 398.367 432.48 398.66C433.387 398.967 434.12 399.26 434.68 399.54C435.253 399.82 435.747 400.227 436.16 400.76C436.573 401.293 436.78 401.98 436.78 402.82C436.78 403.62 436.573 404.347 436.16 405C435.76 405.653 435.173 406.173 434.4 406.56C433.627 406.947 432.713 407.14 431.66 407.14ZM442.305 392.96V407H438.885V392.96H442.305ZM453.283 399.8C454.096 399.973 454.75 400.38 455.243 401.02C455.736 401.647 455.983 402.367 455.983 403.18C455.983 404.353 455.57 405.287 454.743 405.98C453.93 406.66 452.79 407 451.323 407H444.783V392.96H451.103C452.53 392.96 453.643 393.287 454.443 393.94C455.256 394.593 455.663 395.48 455.663 396.6C455.663 397.427 455.443 398.113 455.003 398.66C454.576 399.207 454.003 399.587 453.283 399.8ZM448.203 398.64H450.443C451.003 398.64 451.43 398.52 451.723 398.28C452.03 398.027 452.183 397.66 452.183 397.18C452.183 396.7 452.03 396.333 451.723 396.08C451.43 395.827 451.003 395.7 450.443 395.7H448.203V398.64ZM450.723 404.24C451.296 404.24 451.736 404.113 452.043 403.86C452.363 403.593 452.523 403.213 452.523 402.72C452.523 402.227 452.356 401.84 452.023 401.56C451.703 401.28 451.256 401.14 450.683 401.14H448.203V404.24H450.723ZM461.387 404.36H465.867V407H457.967V392.96H461.387V404.36ZM470.918 395.7V398.54H475.498V401.18H470.918V404.26H476.098V407H467.498V392.96H476.098V395.7H470.918Z" fill="black"/>
<path d="M81.66 397.7V400.54H86.24V403.18H81.66V406.26H86.84V409H78.24V394.96H86.84V397.7H81.66ZM92.4803 406.36H96.9603V409H89.0603V394.96H92.4803V406.36ZM102.012 397.7V400.54H106.592V403.18H102.012V406.26H107.192V409H98.5916V394.96H107.192V397.7H102.012ZM118.732 399.4C118.479 398.933 118.112 398.58 117.632 398.34C117.165 398.087 116.612 397.96 115.972 397.96C114.865 397.96 113.979 398.327 113.312 399.06C112.645 399.78 112.312 400.747 112.312 401.96C112.312 403.253 112.659 404.267 113.352 405C114.059 405.72 115.025 406.08 116.252 406.08C117.092 406.08 117.799 405.867 118.372 405.44C118.959 405.013 119.385 404.4 119.652 403.6H115.312V401.08H122.752V404.26C122.499 405.113 122.065 405.907 121.452 406.64C120.852 407.373 120.085 407.967 119.152 408.42C118.219 408.873 117.165 409.1 115.992 409.1C114.605 409.1 113.365 408.8 112.272 408.2C111.192 407.587 110.345 406.74 109.732 405.66C109.132 404.58 108.832 403.347 108.832 401.96C108.832 400.573 109.132 399.34 109.732 398.26C110.345 397.167 111.192 396.32 112.272 395.72C113.352 395.107 114.585 394.8 115.972 394.8C117.652 394.8 119.065 395.207 120.212 396.02C121.372 396.833 122.139 397.96 122.512 399.4H118.732ZM133.386 406.52H128.146L127.306 409H123.726L128.806 394.96H132.766L137.846 409H134.226L133.386 406.52ZM132.506 403.88L130.766 398.74L129.046 403.88H132.506ZM151.952 409H148.532L142.812 400.34V409H139.392V394.96H142.812L148.532 403.66V394.96H151.952V409ZM164.531 394.96V397.7H160.811V409H157.391V397.7H153.671V394.96H164.531Z" fill="black"/>
<path d="M231.304 257.112C230.248 257.112 229.277 256.867 228.392 256.376C227.517 255.885 226.819 255.203 226.296 254.328C225.784 253.443 225.528 252.451 225.528 251.352C225.528 250.253 225.784 249.267 226.296 248.392C226.819 247.517 227.517 246.835 228.392 246.344C229.277 245.853 230.248 245.608 231.304 245.608C232.36 245.608 233.325 245.853 234.2 246.344C235.085 246.835 235.779 247.517 236.28 248.392C236.792 249.267 237.048 250.253 237.048 251.352C237.048 252.451 236.792 253.443 236.28 254.328C235.768 255.203 235.075 255.885 234.2 256.376C233.325 256.867 232.36 257.112 231.304 257.112ZM231.304 254.616C232.2 254.616 232.915 254.317 233.448 253.72C233.992 253.123 234.264 252.333 234.264 251.352C234.264 250.36 233.992 249.571 233.448 248.984C232.915 248.387 232.2 248.088 231.304 248.088C230.397 248.088 229.672 248.381 229.128 248.968C228.595 249.555 228.328 250.349 228.328 251.352C228.328 252.344 228.595 253.139 229.128 253.736C229.672 254.323 230.397 254.616 231.304 254.616ZM241.258 245.768V252.488C241.258 253.16 241.423 253.677 241.754 254.04C242.085 254.403 242.57 254.584 243.21 254.584C243.85 254.584 244.341 254.403 244.682 254.04C245.023 253.677 245.194 253.16 245.194 252.488V245.768H247.93V252.472C247.93 253.475 247.717 254.323 247.29 255.016C246.863 255.709 246.287 256.232 245.562 256.584C244.847 256.936 244.047 257.112 243.162 257.112C242.277 257.112 241.482 256.941 240.778 256.6C240.085 256.248 239.535 255.725 239.13 255.032C238.725 254.328 238.522 253.475 238.522 252.472V245.768H241.258ZM255.579 257L253.243 252.76H252.587V257H249.851V245.768H254.443C255.329 245.768 256.081 245.923 256.699 246.232C257.329 246.541 257.798 246.968 258.107 247.512C258.417 248.045 258.571 248.643 258.571 249.304C258.571 250.051 258.358 250.717 257.931 251.304C257.515 251.891 256.897 252.307 256.075 252.552L258.667 257H255.579ZM252.587 250.824H254.283C254.785 250.824 255.158 250.701 255.403 250.456C255.659 250.211 255.787 249.864 255.787 249.416C255.787 248.989 255.659 248.653 255.403 248.408C255.158 248.163 254.785 248.04 254.283 248.04H252.587V250.824ZM271.135 249.32C270.933 248.947 270.64 248.664 270.256 248.472C269.882 248.269 269.44 248.168 268.928 248.168C268.042 248.168 267.333 248.461 266.799 249.048C266.266 249.624 266 250.397 266 251.368C266 252.403 266.277 253.213 266.832 253.8C267.397 254.376 268.17 254.664 269.152 254.664C269.824 254.664 270.389 254.493 270.848 254.152C271.317 253.811 271.658 253.32 271.872 252.68H268.4V250.664H274.352V253.208C274.149 253.891 273.802 254.525 273.312 255.112C272.832 255.699 272.218 256.173 271.472 256.536C270.725 256.899 269.882 257.08 268.944 257.08C267.834 257.08 266.842 256.84 265.968 256.36C265.104 255.869 264.426 255.192 263.936 254.328C263.456 253.464 263.215 252.477 263.215 251.368C263.215 250.259 263.456 249.272 263.936 248.408C264.426 247.533 265.104 246.856 265.968 246.376C266.832 245.885 267.818 245.64 268.928 245.64C270.272 245.64 271.402 245.965 272.32 246.616C273.248 247.267 273.861 248.168 274.16 249.32H271.135ZM281.179 257.112C280.123 257.112 279.152 256.867 278.267 256.376C277.392 255.885 276.694 255.203 276.171 254.328C275.659 253.443 275.403 252.451 275.403 251.352C275.403 250.253 275.659 249.267 276.171 248.392C276.694 247.517 277.392 246.835 278.267 246.344C279.152 245.853 280.123 245.608 281.179 245.608C282.235 245.608 283.2 245.853 284.075 246.344C284.96 246.835 285.654 247.517 286.155 248.392C286.667 249.267 286.923 250.253 286.923 251.352C286.923 252.451 286.667 253.443 286.155 254.328C285.643 255.203 284.95 255.885 284.075 256.376C283.2 256.867 282.235 257.112 281.179 257.112ZM281.179 254.616C282.075 254.616 282.79 254.317 283.323 253.72C283.867 253.123 284.139 252.333 284.139 251.352C284.139 250.36 283.867 249.571 283.323 248.984C282.79 248.387 282.075 248.088 281.179 248.088C280.272 248.088 279.547 248.381 279.003 248.968C278.47 249.555 278.203 250.349 278.203 251.352C278.203 252.344 278.47 253.139 279.003 253.736C279.547 254.323 280.272 254.616 281.179 254.616ZM295.437 255.016H291.245L290.573 257H287.709L291.773 245.768H294.941L299.005 257H296.109L295.437 255.016ZM294.733 252.904L293.341 248.792L291.965 252.904H294.733ZM302.978 254.888H306.562V257H300.242V245.768H302.978V254.888Z" fill="white"/>
</svg>
