<svg width="45" height="49" viewBox="0 0 45 49" fill="none" xmlns="http://www.w3.org/2000/svg">
<path d="M0.332033 27C0.332033 32.8348 2.64988 38.4305 6.77568 42.5563C10.9015 46.6821 16.4973 49 22.332 49C28.1668 49 33.7626 46.6821 37.8884 42.5564C42.0142 38.4306 44.332 32.8348 44.332 27L22.332 27L0.332033 27Z" fill="black"/>
<path d="M9.33203 13.5C9.33203 17.0804 10.7543 20.5142 13.2861 23.0459C15.8178 25.5777 19.2516 27 22.832 27C26.4125 27 29.8462 25.5777 32.378 23.0459C34.9097 20.5142 36.332 17.0804 36.332 13.5L22.832 13.5L9.33203 13.5Z" fill="black"/>
</svg>
