<svg width="48" height="48" viewBox="0 0 48 48" fill="none" xmlns="http://www.w3.org/2000/svg">
<path d="M31.9948 32.0027C35.1596 32.0027 38.2532 31.0644 40.8846 29.3066C43.516 27.5488 45.567 25.0503 46.7781 22.1272C47.9892 19.2041 48.306 15.9875 47.6886 12.8843C47.0712 9.7811 45.5472 6.93063 43.3094 4.69335C41.0716 2.45607 38.2205 0.932463 35.1165 0.315198C32.0126 -0.302067 28.7952 0.0147359 25.8714 1.22554C22.9475 2.43635 20.4485 4.48678 18.6902 7.11755C16.932 9.74831 15.9935 12.8413 15.9935 16.0052L31.9948 16.0052L31.9948 32.0027Z" fill="black"/>
<path d="M15.9974 16.0129C12.8326 16.0129 9.73894 16.9512 7.10754 18.709C4.47615 20.4668 2.42522 22.9653 1.21412 25.8884C0.00302216 28.8116 -0.313857 32.0281 0.303556 35.1313C0.920968 38.2345 2.44494 41.085 4.68276 43.3223C6.92058 45.5596 9.77174 47.0832 12.8757 47.7004C15.9796 48.3177 19.1969 48.0009 22.1208 46.7901C25.0447 45.5793 27.5437 43.5288 29.302 40.8981C31.0602 38.2673 31.9987 35.1744 31.9987 32.0104L15.9974 32.0104L15.9974 16.0129Z" fill="black"/>
</svg>
