<svg width="75" height="44" viewBox="0 0 75 44" fill="none" xmlns="http://www.w3.org/2000/svg">
<circle cx="22.668" cy="22" r="22" fill="black"/>
<path d="M44.668 44C50.5027 44 56.0985 41.6821 60.2243 37.5564C64.3501 33.4305 66.668 27.8348 66.668 22C66.668 16.1652 64.3501 10.5695 60.2243 6.44365C56.0985 2.31785 50.5027 1.7442e-07 44.668 -9.6165e-07L44.668 22L44.668 44Z" fill="black"/>
<path d="M66.668 44C68.7897 44 70.8245 41.6821 72.3248 37.5564C73.8251 33.4305 74.668 27.8348 74.668 22C74.668 16.1652 73.8251 10.5695 72.3248 6.44365C70.8245 2.31785 68.7897 6.24078e-07 66.668 -3.49691e-07L66.668 22L66.668 44Z" fill="black"/>
</svg>
