<svg width="41" height="40" viewBox="0 0 41 40" fill="none" xmlns="http://www.w3.org/2000/svg">
<path d="M13.332 26.5C13.332 28.2728 13.6812 30.0283 14.3597 31.6662C15.0381 33.3041 16.0325 34.7923 17.2861 36.0459C18.5397 37.2995 20.0279 38.2939 21.6658 38.9724C23.3037 39.6508 25.0592 40 26.832 40L26.832 26.5L13.332 26.5Z" fill="black"/>
<path d="M0.332031 13.5C0.33203 15.2728 0.681218 17.0283 1.35966 18.6662C2.03809 20.3041 3.0325 21.7923 4.28609 23.0459C5.53968 24.2995 7.02791 25.2939 8.6658 25.9724C10.3037 26.6508 12.0592 27 13.832 27L13.832 13.5L0.332031 13.5Z" fill="black"/>
<path d="M40.332 26.5C40.332 24.7272 39.9828 22.9717 39.3044 21.3338C38.626 19.6959 37.6316 18.2076 36.378 16.9541C35.1244 15.7005 33.6362 14.7061 31.9983 14.0276C30.3604 13.3492 28.6049 13 26.832 13L26.832 26.5H40.332Z" fill="black"/>
<path d="M27.332 13.5C27.332 11.7272 26.9828 9.97167 26.3044 8.33377C25.626 6.69588 24.6316 5.20765 23.378 3.95406C22.1244 2.70047 20.6362 1.70606 18.9983 1.02763C17.3604 0.349188 15.6049 -7.74935e-08 13.832 0L13.832 13.5H27.332Z" fill="black"/>
</svg>
