<svg width="48" height="48" viewBox="0 0 48 48" fill="none" xmlns="http://www.w3.org/2000/svg">
<path d="M48.0001 16C48.0001 13.8989 47.5862 11.8183 46.7821 9.87706C45.9781 7.93586 44.7995 6.17203 43.3138 4.68629C41.828 3.20055 40.0642 2.022 38.123 1.21793C36.1818 0.413852 34.1012 -9.18442e-08 32 0C29.8989 9.18442e-08 27.8183 0.413852 25.8771 1.21793C23.9359 2.022 22.172 3.20055 20.6863 4.68629C19.2006 6.17203 18.022 7.93586 17.2179 9.87707C16.4139 11.8183 16 13.8989 16 16L32 16H48.0001Z" fill="black"/>
<path d="M32 48C34.1011 48 36.1817 47.5861 38.1229 46.7821C40.0641 45.978 41.828 44.7994 43.3137 43.3137C44.7994 41.828 45.978 40.0641 46.7821 38.1229C47.5861 36.1817 48 34.1011 48 32C48 29.8988 47.5861 27.8183 46.7821 25.8771C45.978 23.9359 44.7994 22.172 43.3137 20.6863C41.828 19.2006 40.0641 18.022 38.1229 17.2179C36.1817 16.4139 34.1011 16 32 16L32 32L32 48Z" fill="black"/>
<path d="M0.0038428 32C0.00384262 34.1011 0.417696 36.1817 1.22177 38.1229C2.02585 40.0641 3.2044 41.828 4.69014 43.3137C6.17588 44.7994 7.93971 45.978 9.88093 46.7821C11.8221 47.5861 13.9027 48 16.0039 48C18.105 48 20.1856 47.5861 22.1268 46.7821C24.068 45.978 25.8319 44.7994 27.3176 43.3137C28.8033 41.828 29.9819 40.0641 30.786 38.1229C31.5901 36.1817 32.0039 34.1011 32.0039 32L16.0039 32L0.0038428 32Z" fill="black"/>
<path d="M16 2.09815e-06C13.8989 1.82261e-06 11.8183 0.413854 9.87709 1.21793C7.93588 2.022 6.17204 3.20056 4.6863 4.68629C3.20056 6.17203 2.02201 7.93586 1.21793 9.87707C0.413856 11.8183 2.28184e-06 13.8989 2.09815e-06 16C1.91446e-06 18.1012 0.413855 20.1817 1.21793 22.1229C2.02201 24.0641 3.20056 25.828 4.6863 27.3137C6.17204 28.7994 7.93587 29.978 9.87709 30.7821C11.8183 31.5861 13.8989 32 16 32L16 16L16 2.09815e-06Z" fill="black"/>
</svg>
