<svg width="35" height="48" viewBox="0 0 35 48" fill="none" xmlns="http://www.w3.org/2000/svg">
<path d="M17.5143 47.9992C19.729 47.9992 21.922 47.563 23.9681 46.7156C26.0142 45.8682 27.8733 44.6261 29.4394 43.0602C31.0054 41.4943 32.2476 39.6354 33.0952 37.5895C33.9427 35.5436 34.3789 33.3508 34.3789 31.1363C34.3789 28.9219 33.9427 26.7291 33.0952 24.6832C32.2476 22.6373 31.0054 20.7783 29.4394 19.2125C27.8733 17.6466 26.0142 16.4045 23.9681 15.557C21.922 14.7096 19.729 14.2734 17.5143 14.2734L17.5143 31.1363L17.5143 47.9992Z" fill="black"/>
<path d="M16.8646 0.00078041C14.6499 0.000780119 12.4569 0.436951 10.4108 1.28439C8.36471 2.13183 6.50557 3.37394 4.93954 4.93981C3.37351 6.50567 2.13127 8.36462 1.28375 10.4105C0.436219 12.4564 2.40514e-06 14.6492 2.21153e-06 16.8637C2.01791e-06 19.0781 0.436219 21.2709 1.28375 23.3168C2.13127 25.3627 3.37351 27.2217 4.93954 28.7875C6.50556 30.3534 8.36471 31.5955 10.4108 32.443C12.4569 33.2904 14.6499 33.7266 16.8646 33.7266L16.8646 16.8637L16.8646 0.00078041Z" fill="black"/>
</svg>
